<?xml version="1.0" encoding="UTF-8" standalone="no"?>
<!DOCTYPE svg PUBLIC "-//W3C//DTD SVG 1.1//EN"
 "http://www.w3.org/Graphics/SVG/1.1/DTD/svg11.dtd">
<!-- Generated by graphviz version 2.38.0 (20140413.2041)
 -->
<!-- Title: snakemake_dag Pages: 1 -->
<svg width="1122pt" height="620pt"
 viewBox="0.00 0.00 1122.00 620.00" xmlns="http://www.w3.org/2000/svg" xmlns:xlink="http://www.w3.org/1999/xlink">
<g id="graph0" class="graph" transform="scale(1 1) rotate(0) translate(4 616)">
<title>snakemake_dag</title>
<polygon fill="white" stroke="none" points="-4,4 -4,-616 1118,-616 1118,4 -4,4"/>
<!-- 0 -->
<g id="node1" class="node"><title>0</title>
<path fill="none" stroke="#56d882" stroke-width="2" d="M601,-36C601,-36 571,-36 571,-36 565,-36 559,-30 559,-24 559,-24 559,-12 559,-12 559,-6 565,-0 571,-0 571,-0 601,-0 601,-0 607,-0 613,-6 613,-12 613,-12 613,-24 613,-24 613,-30 607,-36 601,-36"/>
<text text-anchor="middle" x="586" y="-15" font-family="sans" font-size="10.00">targets</text>
</g>
<!-- 1 -->
<g id="node2" class="node"><title>1</title>
<path fill="none" stroke="#d85656" stroke-width="2" d="M534.38,-108C534.38,-108 483.62,-108 483.62,-108 477.62,-108 471.62,-102 471.62,-96 471.62,-96 471.62,-84 471.62,-84 471.62,-78 477.62,-72 483.62,-72 483.62,-72 534.38,-72 534.38,-72 540.38,-72 546.38,-78 546.38,-84 546.38,-84 546.38,-96 546.38,-96 546.38,-102 540.38,-108 534.38,-108"/>
<text text-anchor="middle" x="509" y="-87" font-family="sans" font-size="10.00">get_otu_reps</text>
</g>
<!-- 1&#45;&gt;0 -->
<g id="edge1" class="edge"><title>1&#45;&gt;0</title>
<path fill="none" stroke="grey" stroke-width="2" d="M528.034,-71.6966C537.545,-63.0503 549.207,-52.4486 559.57,-43.027"/>
<polygon fill="grey" stroke="grey" stroke-width="2" points="562.14,-45.4209 567.185,-36.1043 557.431,-40.2413 562.14,-45.4209"/>
</g>
<!-- 2 -->
<g id="node3" class="node"><title>2</title>
<path fill="none" stroke="#d85656" stroke-width="2" d="M689.38,-108C689.38,-108 638.62,-108 638.62,-108 632.62,-108 626.62,-102 626.62,-96 626.62,-96 626.62,-84 626.62,-84 626.62,-78 632.62,-72 638.62,-72 638.62,-72 689.38,-72 689.38,-72 695.38,-72 701.38,-78 701.38,-84 701.38,-84 701.38,-96 701.38,-96 701.38,-102 695.38,-108 689.38,-108"/>
<text text-anchor="middle" x="664" y="-87" font-family="sans" font-size="10.00">get_otu_reps</text>
</g>
<!-- 2&#45;&gt;0 -->
<g id="edge2" class="edge"><title>2&#45;&gt;0</title>
<path fill="none" stroke="grey" stroke-width="2" d="M644.719,-71.6966C635.085,-63.0503 623.271,-52.4486 612.773,-43.027"/>
<polygon fill="grey" stroke="grey" stroke-width="2" points="614.839,-40.1786 605.059,-36.1043 610.164,-45.3883 614.839,-40.1786"/>
</g>
<!-- 3 -->
<g id="node4" class="node"><title>3</title>
<path fill="none" stroke="#d85656" stroke-width="2" d="M91.3799,-108C91.3799,-108 40.6201,-108 40.6201,-108 34.6201,-108 28.6201,-102 28.6201,-96 28.6201,-96 28.6201,-84 28.6201,-84 28.6201,-78 34.6201,-72 40.6201,-72 40.6201,-72 91.3799,-72 91.3799,-72 97.3799,-72 103.38,-78 103.38,-84 103.38,-84 103.38,-96 103.38,-96 103.38,-102 97.3799,-108 91.3799,-108"/>
<text text-anchor="middle" x="66" y="-87" font-family="sans" font-size="10.00">get_otu_reps</text>
</g>
<!-- 3&#45;&gt;0 -->
<g id="edge3" class="edge"><title>3&#45;&gt;0</title>
<path fill="none" stroke="grey" stroke-width="2" d="M103.397,-83.9658C199.241,-71.0637 452.843,-36.925 548.643,-24.0288"/>
<polygon fill="grey" stroke="grey" stroke-width="2" points="549.291,-27.4732 558.735,-22.6703 548.357,-20.5358 549.291,-27.4732"/>
</g>
<!-- 4 -->
<g id="node5" class="node"><title>4</title>
<path fill="none" stroke="#d85656" stroke-width="2" d="M343.38,-108C343.38,-108 292.62,-108 292.62,-108 286.62,-108 280.62,-102 280.62,-96 280.62,-96 280.62,-84 280.62,-84 280.62,-78 286.62,-72 292.62,-72 292.62,-72 343.38,-72 343.38,-72 349.38,-72 355.38,-78 355.38,-84 355.38,-84 355.38,-96 355.38,-96 355.38,-102 349.38,-108 343.38,-108"/>
<text text-anchor="middle" x="318" y="-87" font-family="sans" font-size="10.00">get_otu_reps</text>
</g>
<!-- 4&#45;&gt;0 -->
<g id="edge4" class="edge"><title>4&#45;&gt;0</title>
<path fill="none" stroke="grey" stroke-width="2" d="M355.264,-79.2668C406.396,-65.9116 497.764,-42.0467 548.84,-28.7059"/>
<polygon fill="grey" stroke="grey" stroke-width="2" points="550.006,-32.0189 558.797,-26.1053 548.237,-25.2462 550.006,-32.0189"/>
</g>
<!-- 5 -->
<g id="node6" class="node"><title>5</title>
<path fill="none" stroke="#d85656" stroke-width="2" d="M881.38,-108C881.38,-108 830.62,-108 830.62,-108 824.62,-108 818.62,-102 818.62,-96 818.62,-96 818.62,-84 818.62,-84 818.62,-78 824.62,-72 830.62,-72 830.62,-72 881.38,-72 881.38,-72 887.38,-72 893.38,-78 893.38,-84 893.38,-84 893.38,-96 893.38,-96 893.38,-102 887.38,-108 881.38,-108"/>
<text text-anchor="middle" x="856" y="-87" font-family="sans" font-size="10.00">get_otu_reps</text>
</g>
<!-- 5&#45;&gt;0 -->
<g id="edge5" class="edge"><title>5&#45;&gt;0</title>
<path fill="none" stroke="grey" stroke-width="2" d="M818.741,-79.3403C767.069,-65.9438 674.22,-41.8719 622.795,-28.5396"/>
<polygon fill="grey" stroke="grey" stroke-width="2" points="623.646,-25.1443 613.087,-26.0226 621.889,-31.9203 623.646,-25.1443"/>
</g>
<!-- 6 -->
<g id="node7" class="node"><title>6</title>
<path fill="none" stroke="#d85656" stroke-width="2" d="M1014.38,-108C1014.38,-108 963.62,-108 963.62,-108 957.62,-108 951.62,-102 951.62,-96 951.62,-96 951.62,-84 951.62,-84 951.62,-78 957.62,-72 963.62,-72 963.62,-72 1014.38,-72 1014.38,-72 1020.38,-72 1026.38,-78 1026.38,-84 1026.38,-84 1026.38,-96 1026.38,-96 1026.38,-102 1020.38,-108 1014.38,-108"/>
<text text-anchor="middle" x="989" y="-87" font-family="sans" font-size="10.00">get_otu_reps</text>
</g>
<!-- 6&#45;&gt;0 -->
<g id="edge6" class="edge"><title>6&#45;&gt;0</title>
<path fill="none" stroke="grey" stroke-width="2" d="M951.785,-81.5007C936.393,-78.4582 918.354,-74.9687 902,-72 801.316,-53.723 682.164,-34.3463 623.073,-24.8876"/>
<polygon fill="grey" stroke="grey" stroke-width="2" points="623.522,-21.4151 613.096,-23.2935 622.418,-28.3275 623.522,-21.4151"/>
</g>
<!-- 7 -->
<g id="node8" class="node"><title>7</title>
<path fill="none" stroke="#d6d856" stroke-width="2" d="M561.539,-540C561.539,-540 514.461,-540 514.461,-540 508.461,-540 502.461,-534 502.461,-528 502.461,-528 502.461,-516 502.461,-516 502.461,-510 508.461,-504 514.461,-504 514.461,-504 561.539,-504 561.539,-504 567.539,-504 573.539,-510 573.539,-516 573.539,-516 573.539,-528 573.539,-528 573.539,-534 567.539,-540 561.539,-540"/>
<text text-anchor="middle" x="538" y="-524" font-family="sans" font-size="10.00">get_bacteria</text>
<text text-anchor="middle" x="538" y="-514" font-family="sans" font-size="10.00">ref: silva</text>
</g>
<!-- 7&#45;&gt;1 -->
<g id="edge7" class="edge"><title>7&#45;&gt;1</title>
<path fill="none" stroke="grey" stroke-width="2" d="M538,-503.951C538,-477.292 538,-424.115 538,-379 538,-379 538,-379 538,-233 538,-192.215 526.373,-146.148 517.844,-117.84"/>
<polygon fill="grey" stroke="grey" stroke-width="2" points="521.176,-116.769 514.869,-108.257 514.491,-118.845 521.176,-116.769"/>
</g>
<!-- 7&#45;&gt;2 -->
<g id="edge10" class="edge"><title>7&#45;&gt;2</title>
<path fill="none" stroke="grey" stroke-width="2" d="M573.664,-512.122C629.189,-495.917 730,-455.907 730,-379 730,-379 730,-379 730,-233 730,-188.845 703.432,-143.558 684.009,-116.35"/>
<polygon fill="grey" stroke="grey" stroke-width="2" points="686.742,-114.158 677.997,-108.176 681.103,-118.306 686.742,-114.158"/>
</g>
<!-- 34 -->
<g id="node35" class="node"><title>34</title>
<path fill="none" stroke="#80d856" stroke-width="2" d="M497.936,-468C497.936,-468 422.064,-468 422.064,-468 416.064,-468 410.064,-462 410.064,-456 410.064,-456 410.064,-444 410.064,-444 410.064,-438 416.064,-432 422.064,-432 422.064,-432 497.936,-432 497.936,-432 503.936,-432 509.936,-438 509.936,-444 509.936,-444 509.936,-456 509.936,-456 509.936,-462 503.936,-468 497.936,-468"/>
<text text-anchor="middle" x="460" y="-447" font-family="sans" font-size="10.00">rename_silva_bact</text>
</g>
<!-- 7&#45;&gt;34 -->
<g id="edge55" class="edge"><title>7&#45;&gt;34</title>
<path fill="none" stroke="grey" stroke-width="2" d="M518.719,-503.697C509.085,-495.05 497.271,-484.449 486.773,-475.027"/>
<polygon fill="grey" stroke="grey" stroke-width="2" points="488.839,-472.179 479.059,-468.104 484.164,-477.388 488.839,-472.179"/>
</g>
<!-- 8 -->
<g id="node9" class="node"><title>8</title>
<path fill="none" stroke="#d8ac56" stroke-width="2" d="M495,-180C495,-180 465,-180 465,-180 459,-180 453,-174 453,-168 453,-168 453,-156 453,-156 453,-150 459,-144 465,-144 465,-144 495,-144 495,-144 501,-144 507,-150 507,-156 507,-156 507,-168 507,-168 507,-174 501,-180 495,-180"/>
<text text-anchor="middle" x="480" y="-159" font-family="sans" font-size="10.00">cluster</text>
</g>
<!-- 8&#45;&gt;1 -->
<g id="edge8" class="edge"><title>8&#45;&gt;1</title>
<path fill="none" stroke="grey" stroke-width="2" d="M487.169,-143.697C490.435,-135.813 494.374,-126.304 498.002,-117.546"/>
<polygon fill="grey" stroke="grey" stroke-width="2" points="501.32,-118.683 501.914,-108.104 494.853,-116.003 501.32,-118.683"/>
</g>
<!-- 9 -->
<g id="node10" class="node"><title>9</title>
<path fill="none" stroke="#afd856" stroke-width="2" d="M472.044,-324C472.044,-324 409.956,-324 409.956,-324 403.956,-324 397.956,-318 397.956,-312 397.956,-312 397.956,-300 397.956,-300 397.956,-294 403.956,-288 409.956,-288 409.956,-288 472.044,-288 472.044,-288 478.044,-288 484.044,-294 484.044,-300 484.044,-300 484.044,-312 484.044,-312 484.044,-318 478.044,-324 472.044,-324"/>
<text text-anchor="middle" x="441" y="-308" font-family="sans" font-size="10.00">filter</text>
<text text-anchor="middle" x="441" y="-298" font-family="sans" font-size="10.00">subset: bact_v4</text>
</g>
<!-- 9&#45;&gt;1 -->
<g id="edge9" class="edge"><title>9&#45;&gt;1</title>
<path fill="none" stroke="grey" stroke-width="2" d="M436.178,-287.574C428.598,-256.372 417.334,-189.938 444,-144 450.691,-132.474 460.907,-122.414 471.271,-114.246"/>
<polygon fill="grey" stroke="grey" stroke-width="2" points="473.601,-116.876 479.551,-108.11 469.433,-111.252 473.601,-116.876"/>
</g>
<!-- 9&#45;&gt;8 -->
<g id="edge27" class="edge"><title>9&#45;&gt;8</title>
<path fill="none" stroke="grey" stroke-width="2" d="M437.89,-287.771C435.293,-269.468 433.145,-239.929 441,-216 444.314,-205.906 450.367,-196.151 456.732,-187.821"/>
<polygon fill="grey" stroke="grey" stroke-width="2" points="459.498,-189.967 463.11,-180.007 454.075,-185.54 459.498,-189.967"/>
</g>
<!-- 23 -->
<g id="node24" class="node"><title>23</title>
<path fill="none" stroke="#56d8d8" stroke-width="2" d="M497.906,-252C497.906,-252 462.094,-252 462.094,-252 456.094,-252 450.094,-246 450.094,-240 450.094,-240 450.094,-228 450.094,-228 450.094,-222 456.094,-216 462.094,-216 462.094,-216 497.906,-216 497.906,-216 503.906,-216 509.906,-222 509.906,-228 509.906,-228 509.906,-240 509.906,-240 509.906,-246 503.906,-252 497.906,-252"/>
<text text-anchor="middle" x="480" y="-231" font-family="sans" font-size="10.00">calc_dists</text>
</g>
<!-- 9&#45;&gt;23 -->
<g id="edge46" class="edge"><title>9&#45;&gt;23</title>
<path fill="none" stroke="grey" stroke-width="2" d="M450.64,-287.697C455.127,-279.644 460.559,-269.894 465.524,-260.982"/>
<polygon fill="grey" stroke="grey" stroke-width="2" points="468.661,-262.544 470.47,-252.104 462.546,-259.137 468.661,-262.544"/>
</g>
<!-- 10 -->
<g id="node11" class="node"><title>10</title>
<path fill="none" stroke="#d8ac56" stroke-width="2" d="M652,-180C652,-180 622,-180 622,-180 616,-180 610,-174 610,-168 610,-168 610,-156 610,-156 610,-150 616,-144 622,-144 622,-144 652,-144 652,-144 658,-144 664,-150 664,-156 664,-156 664,-168 664,-168 664,-174 658,-180 652,-180"/>
<text text-anchor="middle" x="637" y="-159" font-family="sans" font-size="10.00">cluster</text>
</g>
<!-- 10&#45;&gt;2 -->
<g id="edge11" class="edge"><title>10&#45;&gt;2</title>
<path fill="none" stroke="grey" stroke-width="2" d="M643.674,-143.697C646.715,-135.813 650.383,-126.304 653.761,-117.546"/>
<polygon fill="grey" stroke="grey" stroke-width="2" points="657.069,-118.694 657.403,-108.104 650.538,-116.175 657.069,-118.694"/>
</g>
<!-- 11 -->
<g id="node12" class="node"><title>11</title>
<path fill="none" stroke="#afd856" stroke-width="2" d="M664.266,-324C664.266,-324 599.734,-324 599.734,-324 593.734,-324 587.734,-318 587.734,-312 587.734,-312 587.734,-300 587.734,-300 587.734,-294 593.734,-288 599.734,-288 599.734,-288 664.266,-288 664.266,-288 670.266,-288 676.266,-294 676.266,-300 676.266,-300 676.266,-312 676.266,-312 676.266,-318 670.266,-324 664.266,-324"/>
<text text-anchor="middle" x="632" y="-308" font-family="sans" font-size="10.00">filter</text>
<text text-anchor="middle" x="632" y="-298" font-family="sans" font-size="10.00">subset: bact_full</text>
</g>
<!-- 11&#45;&gt;2 -->
<g id="edge12" class="edge"><title>11&#45;&gt;2</title>
<path fill="none" stroke="grey" stroke-width="2" d="M637.916,-287.841C641.467,-277.478 646.047,-263.998 650,-252 660.513,-220.094 667.827,-213.192 673,-180 675.464,-164.191 674.344,-159.943 673,-144 672.283,-135.499 670.931,-126.312 669.488,-118.012"/>
<polygon fill="grey" stroke="grey" stroke-width="2" points="672.914,-117.289 667.654,-108.092 666.031,-118.562 672.914,-117.289"/>
</g>
<!-- 11&#45;&gt;10 -->
<g id="edge30" class="edge"><title>11&#45;&gt;10</title>
<path fill="none" stroke="grey" stroke-width="2" d="M633.121,-287.821C633.761,-277.452 634.527,-263.972 635,-252 635.819,-231.282 636.329,-207.837 636.629,-190.212"/>
<polygon fill="grey" stroke="grey" stroke-width="2" points="640.13,-190.121 636.789,-180.067 633.131,-190.011 640.13,-190.121"/>
</g>
<!-- 25 -->
<g id="node26" class="node"><title>25</title>
<path fill="none" stroke="#56d8d8" stroke-width="2" d="M613.906,-252C613.906,-252 578.094,-252 578.094,-252 572.094,-252 566.094,-246 566.094,-240 566.094,-240 566.094,-228 566.094,-228 566.094,-222 572.094,-216 578.094,-216 578.094,-216 613.906,-216 613.906,-216 619.906,-216 625.906,-222 625.906,-228 625.906,-228 625.906,-240 625.906,-240 625.906,-246 619.906,-252 613.906,-252"/>
<text text-anchor="middle" x="596" y="-231" font-family="sans" font-size="10.00">calc_dists</text>
</g>
<!-- 11&#45;&gt;25 -->
<g id="edge48" class="edge"><title>11&#45;&gt;25</title>
<path fill="none" stroke="grey" stroke-width="2" d="M623.101,-287.697C619.003,-279.728 614.051,-270.1 609.507,-261.264"/>
<polygon fill="grey" stroke="grey" stroke-width="2" points="612.483,-259.396 604.797,-252.104 606.258,-262.598 612.483,-259.396"/>
</g>
<!-- 12 -->
<g id="node13" class="node"><title>12</title>
<path fill="none" stroke="#d6d856" stroke-width="2" d="M215.539,-540C215.539,-540 168.461,-540 168.461,-540 162.461,-540 156.461,-534 156.461,-528 156.461,-528 156.461,-516 156.461,-516 156.461,-510 162.461,-504 168.461,-504 168.461,-504 215.539,-504 215.539,-504 221.539,-504 227.539,-510 227.539,-516 227.539,-516 227.539,-528 227.539,-528 227.539,-534 221.539,-540 215.539,-540"/>
<text text-anchor="middle" x="192" y="-524" font-family="sans" font-size="10.00">get_bacteria</text>
<text text-anchor="middle" x="192" y="-514" font-family="sans" font-size="10.00">ref: gg</text>
</g>
<!-- 12&#45;&gt;3 -->
<g id="edge13" class="edge"><title>12&#45;&gt;3</title>
<path fill="none" stroke="grey" stroke-width="2" d="M156.336,-512.122C100.811,-495.917 0,-455.907 0,-379 0,-379 0,-379 0,-233 0,-188.845 26.5676,-143.558 45.9907,-116.35"/>
<polygon fill="grey" stroke="grey" stroke-width="2" points="48.8973,-118.306 52.0031,-108.176 43.2584,-114.158 48.8973,-118.306"/>
</g>
<!-- 12&#45;&gt;4 -->
<g id="edge16" class="edge"><title>12&#45;&gt;4</title>
<path fill="none" stroke="grey" stroke-width="2" d="M192,-503.951C192,-477.292 192,-424.115 192,-379 192,-379 192,-379 192,-233 192,-180.213 241.317,-137.896 278.244,-113.61"/>
<polygon fill="grey" stroke="grey" stroke-width="2" points="280.303,-116.447 286.854,-108.12 276.54,-110.545 280.303,-116.447"/>
</g>
<!-- 35 -->
<g id="node36" class="node"><title>35</title>
<path fill="none" stroke="#56a9d8" stroke-width="2" d="M311.097,-468C311.097,-468 258.903,-468 258.903,-468 252.903,-468 246.903,-462 246.903,-456 246.903,-456 246.903,-444 246.903,-444 246.903,-438 252.903,-432 258.903,-432 258.903,-432 311.097,-432 311.097,-432 317.097,-432 323.097,-438 323.097,-444 323.097,-444 323.097,-456 323.097,-456 323.097,-462 317.097,-468 311.097,-468"/>
<text text-anchor="middle" x="285" y="-447" font-family="sans" font-size="10.00">align_to_silva</text>
</g>
<!-- 12&#45;&gt;35 -->
<g id="edge56" class="edge"><title>12&#45;&gt;35</title>
<path fill="none" stroke="grey" stroke-width="2" d="M214.989,-503.697C226.814,-494.796 241.392,-483.823 254.179,-474.199"/>
<polygon fill="grey" stroke="grey" stroke-width="2" points="256.391,-476.915 262.276,-468.104 252.181,-471.322 256.391,-476.915"/>
</g>
<!-- 13 -->
<g id="node14" class="node"><title>13</title>
<path fill="none" stroke="#d8ac56" stroke-width="2" d="M108,-180C108,-180 78,-180 78,-180 72,-180 66,-174 66,-168 66,-168 66,-156 66,-156 66,-150 72,-144 78,-144 78,-144 108,-144 108,-144 114,-144 120,-150 120,-156 120,-156 120,-168 120,-168 120,-174 114,-180 108,-180"/>
<text text-anchor="middle" x="93" y="-159" font-family="sans" font-size="10.00">cluster</text>
</g>
<!-- 13&#45;&gt;3 -->
<g id="edge14" class="edge"><title>13&#45;&gt;3</title>
<path fill="none" stroke="grey" stroke-width="2" d="M86.3258,-143.697C83.2851,-135.813 79.6173,-126.304 76.2393,-117.546"/>
<polygon fill="grey" stroke="grey" stroke-width="2" points="79.4617,-116.175 72.5974,-108.104 72.9307,-118.694 79.4617,-116.175"/>
</g>
<!-- 14 -->
<g id="node15" class="node"><title>14</title>
<path fill="none" stroke="#afd856" stroke-width="2" d="M130.044,-324C130.044,-324 67.956,-324 67.956,-324 61.956,-324 55.956,-318 55.956,-312 55.956,-312 55.956,-300 55.956,-300 55.956,-294 61.956,-288 67.956,-288 67.956,-288 130.044,-288 130.044,-288 136.044,-288 142.044,-294 142.044,-300 142.044,-300 142.044,-312 142.044,-312 142.044,-318 136.044,-324 130.044,-324"/>
<text text-anchor="middle" x="99" y="-308" font-family="sans" font-size="10.00">filter</text>
<text text-anchor="middle" x="99" y="-298" font-family="sans" font-size="10.00">subset: bact_v4</text>
</g>
<!-- 14&#45;&gt;3 -->
<g id="edge15" class="edge"><title>14&#45;&gt;3</title>
<path fill="none" stroke="grey" stroke-width="2" d="M91.1636,-287.658C80.9152,-263.935 63.5019,-219.765 57,-180 54.4181,-164.21 55.6559,-159.943 57,-144 57.7166,-135.499 59.0689,-126.312 60.5116,-118.012"/>
<polygon fill="grey" stroke="grey" stroke-width="2" points="63.9691,-118.562 62.3462,-108.092 57.0858,-117.289 63.9691,-118.562"/>
</g>
<!-- 14&#45;&gt;13 -->
<g id="edge34" class="edge"><title>14&#45;&gt;13</title>
<path fill="none" stroke="grey" stroke-width="2" d="M97.473,-287.829C96.6087,-277.462 95.5863,-263.981 95,-252 93.9865,-231.291 93.486,-207.845 93.2392,-190.218"/>
<polygon fill="grey" stroke="grey" stroke-width="2" points="96.7372,-190.028 93.1159,-180.071 89.7377,-190.113 96.7372,-190.028"/>
</g>
<!-- 27 -->
<g id="node28" class="node"><title>27</title>
<path fill="none" stroke="#56d8d8" stroke-width="2" d="M151.906,-252C151.906,-252 116.094,-252 116.094,-252 110.094,-252 104.094,-246 104.094,-240 104.094,-240 104.094,-228 104.094,-228 104.094,-222 110.094,-216 116.094,-216 116.094,-216 151.906,-216 151.906,-216 157.906,-216 163.906,-222 163.906,-228 163.906,-228 163.906,-240 163.906,-240 163.906,-246 157.906,-252 151.906,-252"/>
<text text-anchor="middle" x="134" y="-231" font-family="sans" font-size="10.00">calc_dists</text>
</g>
<!-- 14&#45;&gt;27 -->
<g id="edge49" class="edge"><title>14&#45;&gt;27</title>
<path fill="none" stroke="grey" stroke-width="2" d="M107.652,-287.697C111.636,-279.728 116.45,-270.1 120.868,-261.264"/>
<polygon fill="grey" stroke="grey" stroke-width="2" points="124.106,-262.614 125.448,-252.104 117.845,-259.483 124.106,-262.614"/>
</g>
<!-- 15 -->
<g id="node16" class="node"><title>15</title>
<path fill="none" stroke="#d8ac56" stroke-width="2" d="M306,-180C306,-180 276,-180 276,-180 270,-180 264,-174 264,-168 264,-168 264,-156 264,-156 264,-150 270,-144 276,-144 276,-144 306,-144 306,-144 312,-144 318,-150 318,-156 318,-156 318,-168 318,-168 318,-174 312,-180 306,-180"/>
<text text-anchor="middle" x="291" y="-159" font-family="sans" font-size="10.00">cluster</text>
</g>
<!-- 15&#45;&gt;4 -->
<g id="edge17" class="edge"><title>15&#45;&gt;4</title>
<path fill="none" stroke="grey" stroke-width="2" d="M297.674,-143.697C300.715,-135.813 304.383,-126.304 307.761,-117.546"/>
<polygon fill="grey" stroke="grey" stroke-width="2" points="311.069,-118.694 311.403,-108.104 304.538,-116.175 311.069,-118.694"/>
</g>
<!-- 16 -->
<g id="node17" class="node"><title>16</title>
<path fill="none" stroke="#afd856" stroke-width="2" d="M329.266,-324C329.266,-324 264.734,-324 264.734,-324 258.734,-324 252.734,-318 252.734,-312 252.734,-312 252.734,-300 252.734,-300 252.734,-294 258.734,-288 264.734,-288 264.734,-288 329.266,-288 329.266,-288 335.266,-288 341.266,-294 341.266,-300 341.266,-300 341.266,-312 341.266,-312 341.266,-318 335.266,-324 329.266,-324"/>
<text text-anchor="middle" x="297" y="-308" font-family="sans" font-size="10.00">filter</text>
<text text-anchor="middle" x="297" y="-298" font-family="sans" font-size="10.00">subset: bact_full</text>
</g>
<!-- 16&#45;&gt;4 -->
<g id="edge18" class="edge"><title>16&#45;&gt;4</title>
<path fill="none" stroke="grey" stroke-width="2" d="M302.481,-287.843C309.794,-263.967 322.358,-219.229 327,-180 328.88,-164.111 328.344,-159.943 327,-144 326.283,-135.499 324.931,-126.312 323.488,-118.012"/>
<polygon fill="grey" stroke="grey" stroke-width="2" points="326.914,-117.289 321.654,-108.092 320.031,-118.562 326.914,-117.289"/>
</g>
<!-- 16&#45;&gt;15 -->
<g id="edge37" class="edge"><title>16&#45;&gt;15</title>
<path fill="none" stroke="grey" stroke-width="2" d="M296.276,-287.871C295.254,-263.67 293.375,-219.211 292.157,-190.393"/>
<polygon fill="grey" stroke="grey" stroke-width="2" points="295.645,-190.033 291.726,-180.189 288.652,-190.328 295.645,-190.033"/>
</g>
<!-- 29 -->
<g id="node30" class="node"><title>29</title>
<path fill="none" stroke="#56d8d8" stroke-width="2" d="M267.906,-252C267.906,-252 232.094,-252 232.094,-252 226.094,-252 220.094,-246 220.094,-240 220.094,-240 220.094,-228 220.094,-228 220.094,-222 226.094,-216 232.094,-216 232.094,-216 267.906,-216 267.906,-216 273.906,-216 279.906,-222 279.906,-228 279.906,-228 279.906,-240 279.906,-240 279.906,-246 273.906,-252 267.906,-252"/>
<text text-anchor="middle" x="250" y="-231" font-family="sans" font-size="10.00">calc_dists</text>
</g>
<!-- 16&#45;&gt;29 -->
<g id="edge51" class="edge"><title>16&#45;&gt;29</title>
<path fill="none" stroke="grey" stroke-width="2" d="M285.382,-287.697C279.861,-279.474 273.153,-269.483 267.068,-260.421"/>
<polygon fill="grey" stroke="grey" stroke-width="2" points="269.965,-258.456 261.484,-252.104 264.153,-262.358 269.965,-258.456"/>
</g>
<!-- 17 -->
<g id="node18" class="node"><title>17</title>
<path fill="none" stroke="#d6d856" stroke-width="2" d="M945.539,-540C945.539,-540 898.461,-540 898.461,-540 892.461,-540 886.461,-534 886.461,-528 886.461,-528 886.461,-516 886.461,-516 886.461,-510 892.461,-504 898.461,-504 898.461,-504 945.539,-504 945.539,-504 951.539,-504 957.539,-510 957.539,-516 957.539,-516 957.539,-528 957.539,-528 957.539,-534 951.539,-540 945.539,-540"/>
<text text-anchor="middle" x="922" y="-524" font-family="sans" font-size="10.00">get_bacteria</text>
<text text-anchor="middle" x="922" y="-514" font-family="sans" font-size="10.00">ref: rdp</text>
</g>
<!-- 17&#45;&gt;5 -->
<g id="edge19" class="edge"><title>17&#45;&gt;5</title>
<path fill="none" stroke="grey" stroke-width="2" d="M922,-503.951C922,-477.292 922,-424.115 922,-379 922,-379 922,-379 922,-233 922,-188.845 895.432,-143.558 876.009,-116.35"/>
<polygon fill="grey" stroke="grey" stroke-width="2" points="878.742,-114.158 869.997,-108.176 873.103,-118.306 878.742,-114.158"/>
</g>
<!-- 17&#45;&gt;6 -->
<g id="edge22" class="edge"><title>17&#45;&gt;6</title>
<path fill="none" stroke="grey" stroke-width="2" d="M957.664,-512.122C1013.19,-495.917 1114,-455.907 1114,-379 1114,-379 1114,-379 1114,-233 1114,-180.397 1065.07,-138.034 1028.44,-113.687"/>
<polygon fill="grey" stroke="grey" stroke-width="2" points="1030.2,-110.657 1019.9,-108.183 1026.41,-116.542 1030.2,-110.657"/>
</g>
<!-- 36 -->
<g id="node37" class="node"><title>36</title>
<path fill="none" stroke="#56a9d8" stroke-width="2" d="M876.097,-468C876.097,-468 823.903,-468 823.903,-468 817.903,-468 811.903,-462 811.903,-456 811.903,-456 811.903,-444 811.903,-444 811.903,-438 817.903,-432 823.903,-432 823.903,-432 876.097,-432 876.097,-432 882.097,-432 888.097,-438 888.097,-444 888.097,-444 888.097,-456 888.097,-456 888.097,-462 882.097,-468 876.097,-468"/>
<text text-anchor="middle" x="850" y="-447" font-family="sans" font-size="10.00">align_to_silva</text>
</g>
<!-- 17&#45;&gt;36 -->
<g id="edge58" class="edge"><title>17&#45;&gt;36</title>
<path fill="none" stroke="grey" stroke-width="2" d="M904.202,-503.697C895.396,-495.135 884.618,-484.656 874.999,-475.304"/>
<polygon fill="grey" stroke="grey" stroke-width="2" points="877.203,-472.566 867.593,-468.104 872.323,-477.585 877.203,-472.566"/>
</g>
<!-- 18 -->
<g id="node19" class="node"><title>18</title>
<path fill="none" stroke="#d8ac56" stroke-width="2" d="M844,-180C844,-180 814,-180 814,-180 808,-180 802,-174 802,-168 802,-168 802,-156 802,-156 802,-150 808,-144 814,-144 814,-144 844,-144 844,-144 850,-144 856,-150 856,-156 856,-156 856,-168 856,-168 856,-174 850,-180 844,-180"/>
<text text-anchor="middle" x="829" y="-159" font-family="sans" font-size="10.00">cluster</text>
</g>
<!-- 18&#45;&gt;5 -->
<g id="edge20" class="edge"><title>18&#45;&gt;5</title>
<path fill="none" stroke="grey" stroke-width="2" d="M835.674,-143.697C838.715,-135.813 842.383,-126.304 845.761,-117.546"/>
<polygon fill="grey" stroke="grey" stroke-width="2" points="849.069,-118.694 849.403,-108.104 842.538,-116.175 849.069,-118.694"/>
</g>
<!-- 19 -->
<g id="node20" class="node"><title>19</title>
<path fill="none" stroke="#afd856" stroke-width="2" d="M880.044,-324C880.044,-324 817.956,-324 817.956,-324 811.956,-324 805.956,-318 805.956,-312 805.956,-312 805.956,-300 805.956,-300 805.956,-294 811.956,-288 817.956,-288 817.956,-288 880.044,-288 880.044,-288 886.044,-288 892.044,-294 892.044,-300 892.044,-300 892.044,-312 892.044,-312 892.044,-318 886.044,-324 880.044,-324"/>
<text text-anchor="middle" x="849" y="-308" font-family="sans" font-size="10.00">filter</text>
<text text-anchor="middle" x="849" y="-298" font-family="sans" font-size="10.00">subset: bact_v4</text>
</g>
<!-- 19&#45;&gt;5 -->
<g id="edge21" class="edge"><title>19&#45;&gt;5</title>
<path fill="none" stroke="grey" stroke-width="2" d="M852.822,-287.624C858.841,-258.122 869.412,-196.341 865,-144 864.283,-135.499 862.931,-126.312 861.488,-118.012"/>
<polygon fill="grey" stroke="grey" stroke-width="2" points="864.914,-117.289 859.654,-108.092 858.031,-118.562 864.914,-117.289"/>
</g>
<!-- 19&#45;&gt;18 -->
<g id="edge41" class="edge"><title>19&#45;&gt;18</title>
<path fill="none" stroke="grey" stroke-width="2" d="M846.588,-287.871C843.179,-263.67 836.917,-219.211 832.858,-190.393"/>
<polygon fill="grey" stroke="grey" stroke-width="2" points="836.282,-189.603 831.421,-180.189 829.35,-190.58 836.282,-189.603"/>
</g>
<!-- 31 -->
<g id="node32" class="node"><title>31</title>
<path fill="none" stroke="#56d8d8" stroke-width="2" d="M805.906,-252C805.906,-252 770.094,-252 770.094,-252 764.094,-252 758.094,-246 758.094,-240 758.094,-240 758.094,-228 758.094,-228 758.094,-222 764.094,-216 770.094,-216 770.094,-216 805.906,-216 805.906,-216 811.906,-216 817.906,-222 817.906,-228 817.906,-228 817.906,-240 817.906,-240 817.906,-246 811.906,-252 805.906,-252"/>
<text text-anchor="middle" x="788" y="-231" font-family="sans" font-size="10.00">calc_dists</text>
</g>
<!-- 19&#45;&gt;31 -->
<g id="edge52" class="edge"><title>19&#45;&gt;31</title>
<path fill="none" stroke="grey" stroke-width="2" d="M833.921,-287.697C826.608,-279.305 817.69,-269.07 809.665,-259.861"/>
<polygon fill="grey" stroke="grey" stroke-width="2" points="812.114,-257.344 802.905,-252.104 806.836,-261.943 812.114,-257.344"/>
</g>
<!-- 20 -->
<g id="node21" class="node"><title>20</title>
<path fill="none" stroke="#d8ac56" stroke-width="2" d="M1033,-180C1033,-180 1003,-180 1003,-180 997,-180 991,-174 991,-168 991,-168 991,-156 991,-156 991,-150 997,-144 1003,-144 1003,-144 1033,-144 1033,-144 1039,-144 1045,-150 1045,-156 1045,-156 1045,-168 1045,-168 1045,-174 1039,-180 1033,-180"/>
<text text-anchor="middle" x="1018" y="-159" font-family="sans" font-size="10.00">cluster</text>
</g>
<!-- 20&#45;&gt;6 -->
<g id="edge23" class="edge"><title>20&#45;&gt;6</title>
<path fill="none" stroke="grey" stroke-width="2" d="M1010.83,-143.697C1007.57,-135.813 1003.63,-126.304 999.998,-117.546"/>
<polygon fill="grey" stroke="grey" stroke-width="2" points="1003.15,-116.003 996.086,-108.104 996.68,-118.683 1003.15,-116.003"/>
</g>
<!-- 21 -->
<g id="node22" class="node"><title>21</title>
<path fill="none" stroke="#afd856" stroke-width="2" d="M1038.27,-324C1038.27,-324 973.734,-324 973.734,-324 967.734,-324 961.734,-318 961.734,-312 961.734,-312 961.734,-300 961.734,-300 961.734,-294 967.734,-288 973.734,-288 973.734,-288 1038.27,-288 1038.27,-288 1044.27,-288 1050.27,-294 1050.27,-300 1050.27,-300 1050.27,-312 1050.27,-312 1050.27,-318 1044.27,-324 1038.27,-324"/>
<text text-anchor="middle" x="1006" y="-308" font-family="sans" font-size="10.00">filter</text>
<text text-anchor="middle" x="1006" y="-298" font-family="sans" font-size="10.00">subset: bact_full</text>
</g>
<!-- 21&#45;&gt;6 -->
<g id="edge24" class="edge"><title>21&#45;&gt;6</title>
<path fill="none" stroke="grey" stroke-width="2" d="M994.533,-287.667C988.625,-277.689 982.037,-264.652 979,-252 967.959,-206.004 975.841,-150.616 982.482,-118.253"/>
<polygon fill="grey" stroke="grey" stroke-width="2" points="985.961,-118.722 984.657,-108.207 979.12,-117.24 985.961,-118.722"/>
</g>
<!-- 21&#45;&gt;20 -->
<g id="edge44" class="edge"><title>21&#45;&gt;20</title>
<path fill="none" stroke="grey" stroke-width="2" d="M1029.3,-287.819C1039.9,-278.538 1051.32,-266.094 1057,-252 1062.98,-237.16 1061.99,-231.202 1057,-216 1053.69,-205.906 1047.63,-196.151 1041.27,-187.821"/>
<polygon fill="grey" stroke="grey" stroke-width="2" points="1043.92,-185.54 1034.89,-180.007 1038.5,-189.967 1043.92,-185.54"/>
</g>
<!-- 33 -->
<g id="node34" class="node"><title>33</title>
<path fill="none" stroke="#56d8d8" stroke-width="2" d="M1035.91,-252C1035.91,-252 1000.09,-252 1000.09,-252 994.094,-252 988.094,-246 988.094,-240 988.094,-240 988.094,-228 988.094,-228 988.094,-222 994.094,-216 1000.09,-216 1000.09,-216 1035.91,-216 1035.91,-216 1041.91,-216 1047.91,-222 1047.91,-228 1047.91,-228 1047.91,-240 1047.91,-240 1047.91,-246 1041.91,-252 1035.91,-252"/>
<text text-anchor="middle" x="1018" y="-231" font-family="sans" font-size="10.00">calc_dists</text>
</g>
<!-- 21&#45;&gt;33 -->
<g id="edge54" class="edge"><title>21&#45;&gt;33</title>
<path fill="none" stroke="grey" stroke-width="2" d="M1008.97,-287.697C1010.29,-279.983 1011.88,-270.712 1013.35,-262.112"/>
<polygon fill="grey" stroke="grey" stroke-width="2" points="1016.83,-262.552 1015.07,-252.104 1009.93,-261.369 1016.83,-262.552"/>
</g>
<!-- 22 -->
<g id="node23" class="node"><title>22</title>
<path fill="none" stroke="#56d8a9" stroke-width="2" d="M568.38,-612C568.38,-612 507.62,-612 507.62,-612 501.62,-612 495.62,-606 495.62,-600 495.62,-600 495.62,-588 495.62,-588 495.62,-582 501.62,-576 507.62,-576 507.62,-576 568.38,-576 568.38,-576 574.38,-576 580.38,-582 580.38,-588 580.38,-588 580.38,-600 580.38,-600 580.38,-606 574.38,-612 568.38,-612"/>
<text text-anchor="middle" x="538" y="-591" font-family="sans" font-size="10.00">download_silva</text>
</g>
<!-- 22&#45;&gt;7 -->
<g id="edge25" class="edge"><title>22&#45;&gt;7</title>
<path fill="none" stroke="grey" stroke-width="2" d="M538,-575.697C538,-567.983 538,-558.712 538,-550.112"/>
<polygon fill="grey" stroke="grey" stroke-width="2" points="541.5,-550.104 538,-540.104 534.5,-550.104 541.5,-550.104"/>
</g>
<!-- 22&#45;&gt;35 -->
<g id="edge57" class="edge"><title>22&#45;&gt;35</title>
<path fill="none" stroke="grey" stroke-width="2" d="M507.482,-575.871C461.704,-550.178 375.242,-501.65 324.639,-473.248"/>
<polygon fill="grey" stroke="grey" stroke-width="2" points="326.059,-470.032 315.626,-468.189 322.633,-476.136 326.059,-470.032"/>
</g>
<!-- 22&#45;&gt;36 -->
<g id="edge59" class="edge"><title>22&#45;&gt;36</title>
<path fill="none" stroke="grey" stroke-width="2" d="M575.634,-575.871C632.674,-549.911 740.931,-500.64 803.044,-472.371"/>
<polygon fill="grey" stroke="grey" stroke-width="2" points="804.58,-475.517 812.232,-468.189 801.68,-469.146 804.58,-475.517"/>
</g>
<!-- 23&#45;&gt;8 -->
<g id="edge26" class="edge"><title>23&#45;&gt;8</title>
<path fill="none" stroke="grey" stroke-width="2" d="M480,-215.697C480,-207.983 480,-198.712 480,-190.112"/>
<polygon fill="grey" stroke="grey" stroke-width="2" points="483.5,-190.104 480,-180.104 476.5,-190.104 483.5,-190.104"/>
</g>
<!-- 24 -->
<g id="node25" class="node"><title>24</title>
<path fill="none" stroke="#5682d8" stroke-width="2" d="M489.822,-396C489.822,-396 430.178,-396 430.178,-396 424.178,-396 418.178,-390 418.178,-384 418.178,-384 418.178,-372 418.178,-372 418.178,-366 424.178,-360 430.178,-360 430.178,-360 489.822,-360 489.822,-360 495.822,-360 501.822,-366 501.822,-372 501.822,-372 501.822,-384 501.822,-384 501.822,-390 495.822,-396 489.822,-396"/>
<text text-anchor="middle" x="460" y="-380" font-family="sans" font-size="10.00">subset_regions</text>
<text text-anchor="middle" x="460" y="-370" font-family="sans" font-size="10.00">ref: silva</text>
</g>
<!-- 24&#45;&gt;9 -->
<g id="edge28" class="edge"><title>24&#45;&gt;9</title>
<path fill="none" stroke="grey" stroke-width="2" d="M455.303,-359.697C453.187,-351.898 450.638,-342.509 448.282,-333.829"/>
<polygon fill="grey" stroke="grey" stroke-width="2" points="451.64,-332.838 445.643,-324.104 444.884,-334.672 451.64,-332.838"/>
</g>
<!-- 24&#45;&gt;11 -->
<g id="edge31" class="edge"><title>24&#45;&gt;11</title>
<path fill="none" stroke="grey" stroke-width="2" d="M502.076,-359.876C525.798,-350.222 555.616,-338.087 580.701,-327.878"/>
<polygon fill="grey" stroke="grey" stroke-width="2" points="582.118,-331.08 590.061,-324.068 579.479,-324.596 582.118,-331.08"/>
</g>
<!-- 25&#45;&gt;10 -->
<g id="edge29" class="edge"><title>25&#45;&gt;10</title>
<path fill="none" stroke="grey" stroke-width="2" d="M606.135,-215.697C610.852,-207.644 616.562,-197.894 621.782,-188.982"/>
<polygon fill="grey" stroke="grey" stroke-width="2" points="624.948,-190.502 626.982,-180.104 618.908,-186.964 624.948,-190.502"/>
</g>
<!-- 26 -->
<g id="node27" class="node"><title>26</title>
<path fill="none" stroke="#d88556" stroke-width="2" d="M217.999,-612C217.999,-612 166.001,-612 166.001,-612 160.001,-612 154.001,-606 154.001,-600 154.001,-600 154.001,-588 154.001,-588 154.001,-582 160.001,-576 166.001,-576 166.001,-576 217.999,-576 217.999,-576 223.999,-576 229.999,-582 229.999,-588 229.999,-588 229.999,-600 229.999,-600 229.999,-606 223.999,-612 217.999,-612"/>
<text text-anchor="middle" x="192" y="-591" font-family="sans" font-size="10.00">download_gg</text>
</g>
<!-- 26&#45;&gt;12 -->
<g id="edge32" class="edge"><title>26&#45;&gt;12</title>
<path fill="none" stroke="grey" stroke-width="2" d="M192,-575.697C192,-567.983 192,-558.712 192,-550.112"/>
<polygon fill="grey" stroke="grey" stroke-width="2" points="195.5,-550.104 192,-540.104 188.5,-550.104 195.5,-550.104"/>
</g>
<!-- 27&#45;&gt;13 -->
<g id="edge33" class="edge"><title>27&#45;&gt;13</title>
<path fill="none" stroke="grey" stroke-width="2" d="M123.865,-215.697C119.148,-207.644 113.438,-197.894 108.218,-188.982"/>
<polygon fill="grey" stroke="grey" stroke-width="2" points="111.092,-186.964 103.018,-180.104 105.052,-190.502 111.092,-186.964"/>
</g>
<!-- 28 -->
<g id="node29" class="node"><title>28</title>
<path fill="none" stroke="#5682d8" stroke-width="2" d="M314.822,-396C314.822,-396 255.178,-396 255.178,-396 249.178,-396 243.178,-390 243.178,-384 243.178,-384 243.178,-372 243.178,-372 243.178,-366 249.178,-360 255.178,-360 255.178,-360 314.822,-360 314.822,-360 320.822,-360 326.822,-366 326.822,-372 326.822,-372 326.822,-384 326.822,-384 326.822,-390 320.822,-396 314.822,-396"/>
<text text-anchor="middle" x="285" y="-375" font-family="sans" font-size="10.00">subset_regions</text>
</g>
<!-- 28&#45;&gt;14 -->
<g id="edge35" class="edge"><title>28&#45;&gt;14</title>
<path fill="none" stroke="grey" stroke-width="2" d="M242.794,-361.116C215.83,-350.968 180.65,-337.729 151.836,-326.885"/>
<polygon fill="grey" stroke="grey" stroke-width="2" points="152.922,-323.554 142.33,-323.307 150.456,-330.105 152.922,-323.554"/>
</g>
<!-- 28&#45;&gt;16 -->
<g id="edge38" class="edge"><title>28&#45;&gt;16</title>
<path fill="none" stroke="grey" stroke-width="2" d="M287.966,-359.697C289.289,-351.983 290.878,-342.712 292.352,-334.112"/>
<polygon fill="grey" stroke="grey" stroke-width="2" points="295.828,-334.552 294.068,-324.104 288.928,-333.369 295.828,-334.552"/>
</g>
<!-- 29&#45;&gt;15 -->
<g id="edge36" class="edge"><title>29&#45;&gt;15</title>
<path fill="none" stroke="grey" stroke-width="2" d="M260.135,-215.697C264.852,-207.644 270.562,-197.894 275.782,-188.982"/>
<polygon fill="grey" stroke="grey" stroke-width="2" points="278.948,-190.502 280.982,-180.104 272.908,-186.964 278.948,-190.502"/>
</g>
<!-- 30 -->
<g id="node31" class="node"><title>30</title>
<path fill="none" stroke="#59d856" stroke-width="2" stroke-dasharray="5,2" d="M949.327,-612C949.327,-612 894.673,-612 894.673,-612 888.673,-612 882.673,-606 882.673,-600 882.673,-600 882.673,-588 882.673,-588 882.673,-582 888.673,-576 894.673,-576 894.673,-576 949.327,-576 949.327,-576 955.327,-576 961.327,-582 961.327,-588 961.327,-588 961.327,-600 961.327,-600 961.327,-606 955.327,-612 949.327,-612"/>
<text text-anchor="middle" x="922" y="-591" font-family="sans" font-size="10.00">download_rdp</text>
</g>
<!-- 30&#45;&gt;17 -->
<g id="edge39" class="edge"><title>30&#45;&gt;17</title>
<path fill="none" stroke="grey" stroke-width="2" d="M922,-575.697C922,-567.983 922,-558.712 922,-550.112"/>
<polygon fill="grey" stroke="grey" stroke-width="2" points="925.5,-550.104 922,-540.104 918.5,-550.104 925.5,-550.104"/>
</g>
<!-- 31&#45;&gt;18 -->
<g id="edge40" class="edge"><title>31&#45;&gt;18</title>
<path fill="none" stroke="grey" stroke-width="2" d="M798.135,-215.697C802.852,-207.644 808.562,-197.894 813.782,-188.982"/>
<polygon fill="grey" stroke="grey" stroke-width="2" points="816.948,-190.502 818.982,-180.104 810.908,-186.964 816.948,-190.502"/>
</g>
<!-- 32 -->
<g id="node33" class="node"><title>32</title>
<path fill="none" stroke="#5682d8" stroke-width="2" d="M879.822,-396C879.822,-396 820.178,-396 820.178,-396 814.178,-396 808.178,-390 808.178,-384 808.178,-384 808.178,-372 808.178,-372 808.178,-366 814.178,-360 820.178,-360 820.178,-360 879.822,-360 879.822,-360 885.822,-360 891.822,-366 891.822,-372 891.822,-372 891.822,-384 891.822,-384 891.822,-390 885.822,-396 879.822,-396"/>
<text text-anchor="middle" x="850" y="-375" font-family="sans" font-size="10.00">subset_regions</text>
</g>
<!-- 32&#45;&gt;19 -->
<g id="edge42" class="edge"><title>32&#45;&gt;19</title>
<path fill="none" stroke="grey" stroke-width="2" d="M849.753,-359.697C849.643,-351.983 849.51,-342.712 849.387,-334.112"/>
<polygon fill="grey" stroke="grey" stroke-width="2" points="852.887,-334.053 849.244,-324.104 845.888,-334.153 852.887,-334.053"/>
</g>
<!-- 32&#45;&gt;21 -->
<g id="edge45" class="edge"><title>32&#45;&gt;21</title>
<path fill="none" stroke="grey" stroke-width="2" d="M888.162,-359.876C909.393,-350.349 936.008,-338.407 958.569,-328.283"/>
<polygon fill="grey" stroke="grey" stroke-width="2" points="960.271,-331.356 967.962,-324.068 957.406,-324.969 960.271,-331.356"/>
</g>
<!-- 33&#45;&gt;20 -->
<g id="edge43" class="edge"><title>33&#45;&gt;20</title>
<path fill="none" stroke="grey" stroke-width="2" d="M1018,-215.697C1018,-207.983 1018,-198.712 1018,-190.112"/>
<polygon fill="grey" stroke="grey" stroke-width="2" points="1021.5,-190.104 1018,-180.104 1014.5,-190.104 1021.5,-190.104"/>
</g>
<!-- 34&#45;&gt;24 -->
<g id="edge47" class="edge"><title>34&#45;&gt;24</title>
<path fill="none" stroke="grey" stroke-width="2" d="M460,-431.697C460,-423.983 460,-414.712 460,-406.112"/>
<polygon fill="grey" stroke="grey" stroke-width="2" points="463.5,-406.104 460,-396.104 456.5,-406.104 463.5,-406.104"/>
</g>
<!-- 35&#45;&gt;28 -->
<g id="edge50" class="edge"><title>35&#45;&gt;28</title>
<path fill="none" stroke="grey" stroke-width="2" d="M285,-431.697C285,-423.983 285,-414.712 285,-406.112"/>
<polygon fill="grey" stroke="grey" stroke-width="2" points="288.5,-406.104 285,-396.104 281.5,-406.104 288.5,-406.104"/>
</g>
<!-- 36&#45;&gt;32 -->
<g id="edge53" class="edge"><title>36&#45;&gt;32</title>
<path fill="none" stroke="grey" stroke-width="2" d="M850,-431.697C850,-423.983 850,-414.712 850,-406.112"/>
<polygon fill="grey" stroke="grey" stroke-width="2" points="853.5,-406.104 850,-396.104 846.5,-406.104 853.5,-406.104"/>
</g>
</g>
</svg>
