<?xml version="1.0" encoding="UTF-8" standalone="no"?>
<!DOCTYPE svg PUBLIC "-//W3C//DTD SVG 1.1//EN"
 "http://www.w3.org/Graphics/SVG/1.1/DTD/svg11.dtd">
<!-- Generated by graphviz version 2.38.0 (20140413.2041)
 -->
<!-- Title: snakemake_dag Pages: 1 -->
<svg width="917pt" height="620pt"
 viewBox="0.00 0.00 916.83 620.00" xmlns="http://www.w3.org/2000/svg" xmlns:xlink="http://www.w3.org/1999/xlink">
<g id="graph0" class="graph" transform="scale(1 1) rotate(0) translate(4 616)">
<title>snakemake_dag</title>
<polygon fill="white" stroke="none" points="-4,4 -4,-616 912.83,-616 912.83,4 -4,4"/>
<!-- 0 -->
<g id="node1" class="node"><title>0</title>
<path fill="none" stroke="#56a9d8" stroke-width="2" d="M490,-36C490,-36 460,-36 460,-36 454,-36 448,-30 448,-24 448,-24 448,-12 448,-12 448,-6 454,-0 460,-0 460,-0 490,-0 490,-0 496,-0 502,-6 502,-12 502,-12 502,-24 502,-24 502,-30 496,-36 490,-36"/>
<text text-anchor="middle" x="475" y="-15.5" font-family="sans" font-size="10.00">targets</text>
</g>
<!-- 1 -->
<g id="node2" class="node"><title>1</title>
<path fill="none" stroke="#5682d8" stroke-width="2" d="M129,-108C129,-108 73,-108 73,-108 67,-108 61,-102 61,-96 61,-96 61,-84 61,-84 61,-78 67,-72 73,-72 73,-72 129,-72 129,-72 135,-72 141,-78 141,-84 141,-84 141,-96 141,-96 141,-102 135,-108 129,-108"/>
<text text-anchor="middle" x="101" y="-87.5" font-family="sans" font-size="10.00">get_otu_reps</text>
</g>
<!-- 1&#45;&gt;0 -->
<g id="edge1" class="edge"><title>1&#45;&gt;0</title>
<path fill="none" stroke="grey" stroke-width="2" d="M141.025,-81.5088C213.796,-67.8885 366.788,-39.2536 437.589,-26.0021"/>
<polygon fill="grey" stroke="grey" stroke-width="2" points="438.635,-29.3671 447.82,-24.0871 437.347,-22.4866 438.635,-29.3671"/>
</g>
<!-- 2 -->
<g id="node3" class="node"><title>2</title>
<path fill="none" stroke="#5682d8" stroke-width="2" d="M289,-108C289,-108 233,-108 233,-108 227,-108 221,-102 221,-96 221,-96 221,-84 221,-84 221,-78 227,-72 233,-72 233,-72 289,-72 289,-72 295,-72 301,-78 301,-84 301,-84 301,-96 301,-96 301,-102 295,-108 289,-108"/>
<text text-anchor="middle" x="261" y="-87.5" font-family="sans" font-size="10.00">get_otu_reps</text>
</g>
<!-- 2&#45;&gt;0 -->
<g id="edge2" class="edge"><title>2&#45;&gt;0</title>
<path fill="none" stroke="grey" stroke-width="2" d="M301.001,-75.9157C340.313,-63.0565 399.815,-43.5931 438.043,-31.0888"/>
<polygon fill="grey" stroke="grey" stroke-width="2" points="439.335,-34.3486 447.752,-27.913 437.159,-27.6955 439.335,-34.3486"/>
</g>
<!-- 3 -->
<g id="node4" class="node"><title>3</title>
<path fill="none" stroke="#5682d8" stroke-width="2" d="M565,-108C565,-108 509,-108 509,-108 503,-108 497,-102 497,-96 497,-96 497,-84 497,-84 497,-78 503,-72 509,-72 509,-72 565,-72 565,-72 571,-72 577,-78 577,-84 577,-84 577,-96 577,-96 577,-102 571,-108 565,-108"/>
<text text-anchor="middle" x="537" y="-87.5" font-family="sans" font-size="10.00">get_otu_reps</text>
</g>
<!-- 3&#45;&gt;0 -->
<g id="edge3" class="edge"><title>3&#45;&gt;0</title>
<path fill="none" stroke="grey" stroke-width="2" d="M521.674,-71.6966C514.241,-63.3046 505.177,-53.0705 497.02,-43.8613"/>
<polygon fill="grey" stroke="grey" stroke-width="2" points="499.4,-41.2696 490.15,-36.1043 494.16,-45.9109 499.4,-41.2696"/>
</g>
<!-- 4 -->
<g id="node5" class="node"><title>4</title>
<path fill="none" stroke="#5682d8" stroke-width="2" d="M442,-108C442,-108 386,-108 386,-108 380,-108 374,-102 374,-96 374,-96 374,-84 374,-84 374,-78 380,-72 386,-72 386,-72 442,-72 442,-72 448,-72 454,-78 454,-84 454,-84 454,-96 454,-96 454,-102 448,-108 442,-108"/>
<text text-anchor="middle" x="414" y="-87.5" font-family="sans" font-size="10.00">get_otu_reps</text>
</g>
<!-- 4&#45;&gt;0 -->
<g id="edge4" class="edge"><title>4&#45;&gt;0</title>
<path fill="none" stroke="grey" stroke-width="2" d="M429.079,-71.6966C436.392,-63.3046 445.31,-53.0705 453.335,-43.8613"/>
<polygon fill="grey" stroke="grey" stroke-width="2" points="456.164,-45.9429 460.095,-36.1043 450.886,-41.344 456.164,-45.9429"/>
</g>
<!-- 5 -->
<g id="node6" class="node"><title>5</title>
<path fill="none" stroke="#5682d8" stroke-width="2" d="M870,-108C870,-108 814,-108 814,-108 808,-108 802,-102 802,-96 802,-96 802,-84 802,-84 802,-78 808,-72 814,-72 814,-72 870,-72 870,-72 876,-72 882,-78 882,-84 882,-84 882,-96 882,-96 882,-102 876,-108 870,-108"/>
<text text-anchor="middle" x="842" y="-87.5" font-family="sans" font-size="10.00">get_otu_reps</text>
</g>
<!-- 5&#45;&gt;0 -->
<g id="edge5" class="edge"><title>5&#45;&gt;0</title>
<path fill="none" stroke="grey" stroke-width="2" d="M801.675,-81.3085C730.121,-67.6608 581.958,-39.4007 512.488,-26.1503"/>
<polygon fill="grey" stroke="grey" stroke-width="2" points="512.911,-22.6679 502.432,-24.2323 511.599,-29.544 512.911,-22.6679"/>
</g>
<!-- 6 -->
<g id="node7" class="node"><title>6</title>
<path fill="none" stroke="#5682d8" stroke-width="2" d="M710,-108C710,-108 654,-108 654,-108 648,-108 642,-102 642,-96 642,-96 642,-84 642,-84 642,-78 648,-72 654,-72 654,-72 710,-72 710,-72 716,-72 722,-78 722,-84 722,-84 722,-96 722,-96 722,-102 716,-108 710,-108"/>
<text text-anchor="middle" x="682" y="-87.5" font-family="sans" font-size="10.00">get_otu_reps</text>
</g>
<!-- 6&#45;&gt;0 -->
<g id="edge6" class="edge"><title>6&#45;&gt;0</title>
<path fill="none" stroke="grey" stroke-width="2" d="M641.597,-75.3371C603.956,-62.6082 548.309,-43.7906 511.855,-31.4631"/>
<polygon fill="grey" stroke="grey" stroke-width="2" points="512.707,-28.0566 502.113,-28.1687 510.465,-34.6877 512.707,-28.0566"/>
</g>
<!-- 7 -->
<g id="node8" class="node"><title>7</title>
<path fill="none" stroke="#59d856" stroke-width="2" d="M42,-180C42,-180 12,-180 12,-180 6,-180 0,-174 0,-168 0,-168 0,-156 0,-156 0,-150 6,-144 12,-144 12,-144 42,-144 42,-144 48,-144 54,-150 54,-156 54,-156 54,-168 54,-168 54,-174 48,-180 42,-180"/>
<text text-anchor="middle" x="27" y="-159.5" font-family="sans" font-size="10.00">cluster</text>
</g>
<!-- 7&#45;&gt;1 -->
<g id="edge7" class="edge"><title>7&#45;&gt;1</title>
<path fill="none" stroke="grey" stroke-width="2" d="M45.2921,-143.697C54.4326,-135.05 65.6401,-124.449 75.6,-115.027"/>
<polygon fill="grey" stroke="grey" stroke-width="2" points="78.0588,-117.519 82.9183,-108.104 73.2484,-112.434 78.0588,-117.519"/>
</g>
<!-- 8 -->
<g id="node9" class="node"><title>8</title>
<path fill="none" stroke="#80d856" stroke-width="2" d="M117,-324C117,-324 49,-324 49,-324 43,-324 37,-318 37,-312 37,-312 37,-300 37,-300 37,-294 43,-288 49,-288 49,-288 117,-288 117,-288 123,-288 129,-294 129,-300 129,-300 129,-312 129,-312 129,-318 123,-324 117,-324"/>
<text text-anchor="middle" x="83" y="-309" font-family="sans" font-size="10.00">filter</text>
<text text-anchor="middle" x="83" y="-298" font-family="sans" font-size="10.00">region: bact_v4</text>
</g>
<!-- 8&#45;&gt;1 -->
<g id="edge8" class="edge"><title>8&#45;&gt;1</title>
<path fill="none" stroke="grey" stroke-width="2" d="M90.0376,-287.661C93.8002,-277.464 98.0502,-264.214 100,-252 107.443,-205.378 105.499,-150.19 103.316,-118.036"/>
<polygon fill="grey" stroke="grey" stroke-width="2" points="106.806,-117.775 102.579,-108.06 99.8252,-118.291 106.806,-117.775"/>
</g>
<!-- 8&#45;&gt;7 -->
<g id="edge26" class="edge"><title>8&#45;&gt;7</title>
<path fill="none" stroke="grey" stroke-width="2" d="M50.9466,-287.88C37.8805,-279.055 24.1797,-266.974 17,-252 7.74073,-232.689 11.3396,-208.395 16.6409,-190.07"/>
<polygon fill="grey" stroke="grey" stroke-width="2" points="20.049,-190.904 19.7821,-180.313 13.3858,-188.759 20.049,-190.904"/>
</g>
<!-- 9 -->
<g id="node10" class="node"><title>9</title>
<path fill="none" stroke="#d8ac56" stroke-width="2" d="M79.5,-252C79.5,-252 38.5,-252 38.5,-252 32.5,-252 26.5,-246 26.5,-240 26.5,-240 26.5,-228 26.5,-228 26.5,-222 32.5,-216 38.5,-216 38.5,-216 79.5,-216 79.5,-216 85.5,-216 91.5,-222 91.5,-228 91.5,-228 91.5,-240 91.5,-240 91.5,-246 85.5,-252 79.5,-252"/>
<text text-anchor="middle" x="59" y="-231.5" font-family="sans" font-size="10.00">calc_dists</text>
</g>
<!-- 8&#45;&gt;9 -->
<g id="edge29" class="edge"><title>8&#45;&gt;9</title>
<path fill="none" stroke="grey" stroke-width="2" d="M77.0674,-287.697C74.3936,-279.898 71.1744,-270.509 68.1986,-261.829"/>
<polygon fill="grey" stroke="grey" stroke-width="2" points="71.4185,-260.429 64.8643,-252.104 64.7968,-262.699 71.4185,-260.429"/>
</g>
<!-- 9&#45;&gt;1 -->
<g id="edge9" class="edge"><title>9&#45;&gt;1</title>
<path fill="none" stroke="grey" stroke-width="2" d="M64.0662,-215.871C71.2558,-191.564 84.4902,-146.819 93.0102,-118.013"/>
<polygon fill="grey" stroke="grey" stroke-width="2" points="96.4358,-118.771 95.9159,-108.189 89.7232,-116.786 96.4358,-118.771"/>
</g>
<!-- 9&#45;&gt;7 -->
<g id="edge25" class="edge"><title>9&#45;&gt;7</title>
<path fill="none" stroke="grey" stroke-width="2" d="M51.0899,-215.697C47.4473,-207.728 43.0455,-198.1 39.0065,-189.264"/>
<polygon fill="grey" stroke="grey" stroke-width="2" points="42.1599,-187.744 34.8191,-180.104 35.7936,-190.654 42.1599,-187.744"/>
</g>
<!-- 10 -->
<g id="node11" class="node"><title>10</title>
<path fill="none" stroke="#59d856" stroke-width="2" d="M202,-180C202,-180 172,-180 172,-180 166,-180 160,-174 160,-168 160,-168 160,-156 160,-156 160,-150 166,-144 172,-144 172,-144 202,-144 202,-144 208,-144 214,-150 214,-156 214,-156 214,-168 214,-168 214,-174 208,-180 202,-180"/>
<text text-anchor="middle" x="187" y="-159.5" font-family="sans" font-size="10.00">cluster</text>
</g>
<!-- 10&#45;&gt;2 -->
<g id="edge10" class="edge"><title>10&#45;&gt;2</title>
<path fill="none" stroke="grey" stroke-width="2" d="M205.292,-143.697C214.433,-135.05 225.64,-124.449 235.6,-115.027"/>
<polygon fill="grey" stroke="grey" stroke-width="2" points="238.059,-117.519 242.918,-108.104 233.248,-112.434 238.059,-117.519"/>
</g>
<!-- 11 -->
<g id="node12" class="node"><title>11</title>
<path fill="none" stroke="#80d856" stroke-width="2" d="M254.5,-324C254.5,-324 183.5,-324 183.5,-324 177.5,-324 171.5,-318 171.5,-312 171.5,-312 171.5,-300 171.5,-300 171.5,-294 177.5,-288 183.5,-288 183.5,-288 254.5,-288 254.5,-288 260.5,-288 266.5,-294 266.5,-300 266.5,-300 266.5,-312 266.5,-312 266.5,-318 260.5,-324 254.5,-324"/>
<text text-anchor="middle" x="219" y="-309" font-family="sans" font-size="10.00">filter</text>
<text text-anchor="middle" x="219" y="-298" font-family="sans" font-size="10.00">region: bact_full</text>
</g>
<!-- 11&#45;&gt;2 -->
<g id="edge11" class="edge"><title>11&#45;&gt;2</title>
<path fill="none" stroke="grey" stroke-width="2" d="M237.135,-287.666C245.841,-278.082 255.37,-265.416 260,-252 275.484,-207.133 270.867,-150.952 266.002,-118.206"/>
<polygon fill="grey" stroke="grey" stroke-width="2" points="269.413,-117.368 264.372,-108.05 262.501,-118.478 269.413,-117.368"/>
</g>
<!-- 11&#45;&gt;10 -->
<g id="edge31" class="edge"><title>11&#45;&gt;10</title>
<path fill="none" stroke="grey" stroke-width="2" d="M200.396,-287.756C191.469,-278.198 181.71,-265.527 177,-252 170.033,-231.992 173.316,-208.069 177.911,-190.067"/>
<polygon fill="grey" stroke="grey" stroke-width="2" points="181.34,-190.802 180.7,-180.227 174.606,-188.893 181.34,-190.802"/>
</g>
<!-- 12 -->
<g id="node13" class="node"><title>12</title>
<path fill="none" stroke="#d8ac56" stroke-width="2" d="M239.5,-252C239.5,-252 198.5,-252 198.5,-252 192.5,-252 186.5,-246 186.5,-240 186.5,-240 186.5,-228 186.5,-228 186.5,-222 192.5,-216 198.5,-216 198.5,-216 239.5,-216 239.5,-216 245.5,-216 251.5,-222 251.5,-228 251.5,-228 251.5,-240 251.5,-240 251.5,-246 245.5,-252 239.5,-252"/>
<text text-anchor="middle" x="219" y="-231.5" font-family="sans" font-size="10.00">calc_dists</text>
</g>
<!-- 11&#45;&gt;12 -->
<g id="edge34" class="edge"><title>11&#45;&gt;12</title>
<path fill="none" stroke="grey" stroke-width="2" d="M219,-287.697C219,-279.983 219,-270.712 219,-262.112"/>
<polygon fill="grey" stroke="grey" stroke-width="2" points="222.5,-262.104 219,-252.104 215.5,-262.104 222.5,-262.104"/>
</g>
<!-- 12&#45;&gt;2 -->
<g id="edge12" class="edge"><title>12&#45;&gt;2</title>
<path fill="none" stroke="grey" stroke-width="2" d="M224.066,-215.871C231.256,-191.564 244.49,-146.819 253.01,-118.013"/>
<polygon fill="grey" stroke="grey" stroke-width="2" points="256.436,-118.771 255.916,-108.189 249.723,-116.786 256.436,-118.771"/>
</g>
<!-- 12&#45;&gt;10 -->
<g id="edge30" class="edge"><title>12&#45;&gt;10</title>
<path fill="none" stroke="grey" stroke-width="2" d="M211.09,-215.697C207.447,-207.728 203.046,-198.1 199.006,-189.264"/>
<polygon fill="grey" stroke="grey" stroke-width="2" points="202.16,-187.744 194.819,-180.104 195.794,-190.654 202.16,-187.744"/>
</g>
<!-- 13 -->
<g id="node14" class="node"><title>13</title>
<path fill="none" stroke="#59d856" stroke-width="2" d="M510,-180C510,-180 480,-180 480,-180 474,-180 468,-174 468,-168 468,-168 468,-156 468,-156 468,-150 474,-144 480,-144 480,-144 510,-144 510,-144 516,-144 522,-150 522,-156 522,-156 522,-168 522,-168 522,-174 516,-180 510,-180"/>
<text text-anchor="middle" x="495" y="-159.5" font-family="sans" font-size="10.00">cluster</text>
</g>
<!-- 13&#45;&gt;3 -->
<g id="edge13" class="edge"><title>13&#45;&gt;3</title>
<path fill="none" stroke="grey" stroke-width="2" d="M505.382,-143.697C510.265,-135.559 516.187,-125.689 521.579,-116.701"/>
<polygon fill="grey" stroke="grey" stroke-width="2" points="524.594,-118.48 526.737,-108.104 518.591,-114.879 524.594,-118.48"/>
</g>
<!-- 14 -->
<g id="node15" class="node"><title>14</title>
<path fill="none" stroke="#80d856" stroke-width="2" d="M549,-324C549,-324 481,-324 481,-324 475,-324 469,-318 469,-312 469,-312 469,-300 469,-300 469,-294 475,-288 481,-288 481,-288 549,-288 549,-288 555,-288 561,-294 561,-300 561,-300 561,-312 561,-312 561,-318 555,-324 549,-324"/>
<text text-anchor="middle" x="515" y="-309" font-family="sans" font-size="10.00">filter</text>
<text text-anchor="middle" x="515" y="-298" font-family="sans" font-size="10.00">region: bact_v4</text>
</g>
<!-- 14&#45;&gt;3 -->
<g id="edge14" class="edge"><title>14&#45;&gt;3</title>
<path fill="none" stroke="grey" stroke-width="2" d="M546.58,-287.776C559.45,-278.931 572.942,-266.863 580,-252 601.441,-206.852 574.362,-149.319 554.484,-116.677"/>
<polygon fill="grey" stroke="grey" stroke-width="2" points="557.409,-114.754 549.115,-108.162 551.487,-118.487 557.409,-114.754"/>
</g>
<!-- 14&#45;&gt;13 -->
<g id="edge36" class="edge"><title>14&#45;&gt;13</title>
<path fill="none" stroke="grey" stroke-width="2" d="M507.624,-287.686C503.665,-277.499 499.165,-264.249 497,-252 493.391,-231.582 493.016,-208.122 493.476,-190.416"/>
<polygon fill="grey" stroke="grey" stroke-width="2" points="496.981,-190.335 493.848,-180.214 489.985,-190.079 496.981,-190.335"/>
</g>
<!-- 15 -->
<g id="node16" class="node"><title>15</title>
<path fill="none" stroke="#d8ac56" stroke-width="2" d="M559.5,-252C559.5,-252 518.5,-252 518.5,-252 512.5,-252 506.5,-246 506.5,-240 506.5,-240 506.5,-228 506.5,-228 506.5,-222 512.5,-216 518.5,-216 518.5,-216 559.5,-216 559.5,-216 565.5,-216 571.5,-222 571.5,-228 571.5,-228 571.5,-240 571.5,-240 571.5,-246 565.5,-252 559.5,-252"/>
<text text-anchor="middle" x="539" y="-231.5" font-family="sans" font-size="10.00">calc_dists</text>
</g>
<!-- 14&#45;&gt;15 -->
<g id="edge39" class="edge"><title>14&#45;&gt;15</title>
<path fill="none" stroke="grey" stroke-width="2" d="M520.933,-287.697C523.606,-279.898 526.826,-270.509 529.801,-261.829"/>
<polygon fill="grey" stroke="grey" stroke-width="2" points="533.203,-262.699 533.136,-252.104 526.582,-260.429 533.203,-262.699"/>
</g>
<!-- 15&#45;&gt;3 -->
<g id="edge15" class="edge"><title>15&#45;&gt;3</title>
<path fill="none" stroke="grey" stroke-width="2" d="M538.759,-215.871C538.418,-191.67 537.792,-147.211 537.386,-118.393"/>
<polygon fill="grey" stroke="grey" stroke-width="2" points="540.883,-118.139 537.242,-108.189 533.883,-118.238 540.883,-118.139"/>
</g>
<!-- 15&#45;&gt;13 -->
<g id="edge35" class="edge"><title>15&#45;&gt;13</title>
<path fill="none" stroke="grey" stroke-width="2" d="M528.124,-215.697C523.008,-207.559 516.805,-197.689 511.155,-188.701"/>
<polygon fill="grey" stroke="grey" stroke-width="2" points="514.036,-186.708 505.751,-180.104 508.11,-190.433 514.036,-186.708"/>
</g>
<!-- 16 -->
<g id="node17" class="node"><title>16</title>
<path fill="none" stroke="#59d856" stroke-width="2" d="M362,-180C362,-180 332,-180 332,-180 326,-180 320,-174 320,-168 320,-168 320,-156 320,-156 320,-150 326,-144 332,-144 332,-144 362,-144 362,-144 368,-144 374,-150 374,-156 374,-156 374,-168 374,-168 374,-174 368,-180 362,-180"/>
<text text-anchor="middle" x="347" y="-159.5" font-family="sans" font-size="10.00">cluster</text>
</g>
<!-- 16&#45;&gt;4 -->
<g id="edge16" class="edge"><title>16&#45;&gt;4</title>
<path fill="none" stroke="grey" stroke-width="2" d="M363.562,-143.697C371.675,-135.22 381.588,-124.864 390.471,-115.583"/>
<polygon fill="grey" stroke="grey" stroke-width="2" points="393.243,-117.749 397.629,-108.104 388.186,-112.908 393.243,-117.749"/>
</g>
<!-- 17 -->
<g id="node18" class="node"><title>17</title>
<path fill="none" stroke="#80d856" stroke-width="2" d="M438.5,-324C438.5,-324 367.5,-324 367.5,-324 361.5,-324 355.5,-318 355.5,-312 355.5,-312 355.5,-300 355.5,-300 355.5,-294 361.5,-288 367.5,-288 367.5,-288 438.5,-288 438.5,-288 444.5,-288 450.5,-294 450.5,-300 450.5,-300 450.5,-312 450.5,-312 450.5,-318 444.5,-324 438.5,-324"/>
<text text-anchor="middle" x="403" y="-309" font-family="sans" font-size="10.00">filter</text>
<text text-anchor="middle" x="403" y="-298" font-family="sans" font-size="10.00">region: bact_full</text>
</g>
<!-- 17&#45;&gt;4 -->
<g id="edge17" class="edge"><title>17&#45;&gt;4</title>
<path fill="none" stroke="grey" stroke-width="2" d="M410.066,-287.665C413.838,-277.47 418.088,-264.22 420,-252 427.303,-205.323 422.357,-150.153 418.147,-118.017"/>
<polygon fill="grey" stroke="grey" stroke-width="2" points="421.605,-117.472 416.766,-108.047 414.671,-118.433 421.605,-117.472"/>
</g>
<!-- 17&#45;&gt;16 -->
<g id="edge41" class="edge"><title>17&#45;&gt;16</title>
<path fill="none" stroke="grey" stroke-width="2" d="M370.947,-287.88C357.88,-279.055 344.18,-266.974 337,-252 327.741,-232.689 331.34,-208.395 336.641,-190.07"/>
<polygon fill="grey" stroke="grey" stroke-width="2" points="340.049,-190.904 339.782,-180.313 333.386,-188.759 340.049,-190.904"/>
</g>
<!-- 18 -->
<g id="node19" class="node"><title>18</title>
<path fill="none" stroke="#d8ac56" stroke-width="2" d="M399.5,-252C399.5,-252 358.5,-252 358.5,-252 352.5,-252 346.5,-246 346.5,-240 346.5,-240 346.5,-228 346.5,-228 346.5,-222 352.5,-216 358.5,-216 358.5,-216 399.5,-216 399.5,-216 405.5,-216 411.5,-222 411.5,-228 411.5,-228 411.5,-240 411.5,-240 411.5,-246 405.5,-252 399.5,-252"/>
<text text-anchor="middle" x="379" y="-231.5" font-family="sans" font-size="10.00">calc_dists</text>
</g>
<!-- 17&#45;&gt;18 -->
<g id="edge44" class="edge"><title>17&#45;&gt;18</title>
<path fill="none" stroke="grey" stroke-width="2" d="M397.067,-287.697C394.394,-279.898 391.174,-270.509 388.199,-261.829"/>
<polygon fill="grey" stroke="grey" stroke-width="2" points="391.418,-260.429 384.864,-252.104 384.797,-262.699 391.418,-260.429"/>
</g>
<!-- 18&#45;&gt;4 -->
<g id="edge18" class="edge"><title>18&#45;&gt;4</title>
<path fill="none" stroke="grey" stroke-width="2" d="M383.222,-215.871C389.213,-191.564 400.242,-146.819 407.342,-118.013"/>
<polygon fill="grey" stroke="grey" stroke-width="2" points="410.768,-118.736 409.763,-108.189 403.972,-117.061 410.768,-118.736"/>
</g>
<!-- 18&#45;&gt;16 -->
<g id="edge40" class="edge"><title>18&#45;&gt;16</title>
<path fill="none" stroke="grey" stroke-width="2" d="M371.09,-215.697C367.447,-207.728 363.046,-198.1 359.006,-189.264"/>
<polygon fill="grey" stroke="grey" stroke-width="2" points="362.16,-187.744 354.819,-180.104 355.794,-190.654 362.16,-187.744"/>
</g>
<!-- 19 -->
<g id="node20" class="node"><title>19</title>
<path fill="none" stroke="#59d856" stroke-width="2" d="M830,-180C830,-180 800,-180 800,-180 794,-180 788,-174 788,-168 788,-168 788,-156 788,-156 788,-150 794,-144 800,-144 800,-144 830,-144 830,-144 836,-144 842,-150 842,-156 842,-156 842,-168 842,-168 842,-174 836,-180 830,-180"/>
<text text-anchor="middle" x="815" y="-159.5" font-family="sans" font-size="10.00">cluster</text>
</g>
<!-- 19&#45;&gt;5 -->
<g id="edge19" class="edge"><title>19&#45;&gt;5</title>
<path fill="none" stroke="grey" stroke-width="2" d="M821.674,-143.697C824.715,-135.813 828.383,-126.304 831.761,-117.546"/>
<polygon fill="grey" stroke="grey" stroke-width="2" points="835.069,-118.694 835.403,-108.104 828.538,-116.175 835.069,-118.694"/>
</g>
<!-- 20 -->
<g id="node21" class="node"><title>20</title>
<path fill="none" stroke="#80d856" stroke-width="2" d="M845,-324C845,-324 777,-324 777,-324 771,-324 765,-318 765,-312 765,-312 765,-300 765,-300 765,-294 771,-288 777,-288 777,-288 845,-288 845,-288 851,-288 857,-294 857,-300 857,-300 857,-312 857,-312 857,-318 851,-324 845,-324"/>
<text text-anchor="middle" x="811" y="-309" font-family="sans" font-size="10.00">filter</text>
<text text-anchor="middle" x="811" y="-298" font-family="sans" font-size="10.00">region: bact_v4</text>
</g>
<!-- 20&#45;&gt;5 -->
<g id="edge20" class="edge"><title>20&#45;&gt;5</title>
<path fill="none" stroke="grey" stroke-width="2" d="M857.158,-288.805C873.703,-280.508 890.58,-268.573 900,-252 925.471,-207.187 889.778,-149.168 864.126,-116.425"/>
<polygon fill="grey" stroke="grey" stroke-width="2" points="866.55,-113.856 857.541,-108.28 861.106,-118.257 866.55,-113.856"/>
</g>
<!-- 20&#45;&gt;19 -->
<g id="edge46" class="edge"><title>20&#45;&gt;19</title>
<path fill="none" stroke="grey" stroke-width="2" d="M811.482,-287.871C812.164,-263.67 813.417,-219.211 814.228,-190.393"/>
<polygon fill="grey" stroke="grey" stroke-width="2" points="817.733,-190.284 814.516,-180.189 810.736,-190.087 817.733,-190.284"/>
</g>
<!-- 21 -->
<g id="node22" class="node"><title>21</title>
<path fill="none" stroke="#d8ac56" stroke-width="2" d="M879.5,-252C879.5,-252 838.5,-252 838.5,-252 832.5,-252 826.5,-246 826.5,-240 826.5,-240 826.5,-228 826.5,-228 826.5,-222 832.5,-216 838.5,-216 838.5,-216 879.5,-216 879.5,-216 885.5,-216 891.5,-222 891.5,-228 891.5,-228 891.5,-240 891.5,-240 891.5,-246 885.5,-252 879.5,-252"/>
<text text-anchor="middle" x="859" y="-231.5" font-family="sans" font-size="10.00">calc_dists</text>
</g>
<!-- 20&#45;&gt;21 -->
<g id="edge49" class="edge"><title>20&#45;&gt;21</title>
<path fill="none" stroke="grey" stroke-width="2" d="M822.865,-287.697C828.503,-279.474 835.354,-269.483 841.569,-260.421"/>
<polygon fill="grey" stroke="grey" stroke-width="2" points="844.503,-262.331 847.271,-252.104 838.729,-258.372 844.503,-262.331"/>
</g>
<!-- 21&#45;&gt;5 -->
<g id="edge21" class="edge"><title>21&#45;&gt;5</title>
<path fill="none" stroke="grey" stroke-width="2" d="M857.863,-215.895C856.577,-197.943 854.231,-168.924 851,-144 849.903,-135.54 848.442,-126.364 847.017,-118.063"/>
<polygon fill="grey" stroke="grey" stroke-width="2" points="850.449,-117.372 845.261,-108.135 843.556,-118.591 850.449,-117.372"/>
</g>
<!-- 21&#45;&gt;19 -->
<g id="edge45" class="edge"><title>21&#45;&gt;19</title>
<path fill="none" stroke="grey" stroke-width="2" d="M848.124,-215.697C843.008,-207.559 836.805,-197.689 831.155,-188.701"/>
<polygon fill="grey" stroke="grey" stroke-width="2" points="834.036,-186.708 825.751,-180.104 828.11,-190.433 834.036,-186.708"/>
</g>
<!-- 22 -->
<g id="node23" class="node"><title>22</title>
<path fill="none" stroke="#59d856" stroke-width="2" d="M670,-180C670,-180 640,-180 640,-180 634,-180 628,-174 628,-168 628,-168 628,-156 628,-156 628,-150 634,-144 640,-144 640,-144 670,-144 670,-144 676,-144 682,-150 682,-156 682,-156 682,-168 682,-168 682,-174 676,-180 670,-180"/>
<text text-anchor="middle" x="655" y="-159.5" font-family="sans" font-size="10.00">cluster</text>
</g>
<!-- 22&#45;&gt;6 -->
<g id="edge22" class="edge"><title>22&#45;&gt;6</title>
<path fill="none" stroke="grey" stroke-width="2" d="M661.674,-143.697C664.715,-135.813 668.383,-126.304 671.761,-117.546"/>
<polygon fill="grey" stroke="grey" stroke-width="2" points="675.069,-118.694 675.403,-108.104 668.538,-116.175 675.069,-118.694"/>
</g>
<!-- 23 -->
<g id="node24" class="node"><title>23</title>
<path fill="none" stroke="#80d856" stroke-width="2" d="M734.5,-324C734.5,-324 663.5,-324 663.5,-324 657.5,-324 651.5,-318 651.5,-312 651.5,-312 651.5,-300 651.5,-300 651.5,-294 657.5,-288 663.5,-288 663.5,-288 734.5,-288 734.5,-288 740.5,-288 746.5,-294 746.5,-300 746.5,-300 746.5,-312 746.5,-312 746.5,-318 740.5,-324 734.5,-324"/>
<text text-anchor="middle" x="699" y="-309" font-family="sans" font-size="10.00">filter</text>
<text text-anchor="middle" x="699" y="-298" font-family="sans" font-size="10.00">region: bact_full</text>
</g>
<!-- 23&#45;&gt;6 -->
<g id="edge23" class="edge"><title>23&#45;&gt;6</title>
<path fill="none" stroke="grey" stroke-width="2" d="M717.169,-287.677C725.885,-278.097 735.412,-265.43 740,-252 745.173,-236.859 743.412,-231.632 740,-216 732.084,-179.73 712.454,-141.502 698.22,-117.017"/>
<polygon fill="grey" stroke="grey" stroke-width="2" points="701.18,-115.148 693.064,-108.338 695.162,-118.723 701.18,-115.148"/>
</g>
<!-- 23&#45;&gt;22 -->
<g id="edge51" class="edge"><title>23&#45;&gt;22</title>
<path fill="none" stroke="grey" stroke-width="2" d="M680.52,-287.712C671.628,-278.141 661.861,-265.473 657,-252 649.886,-232.284 649.748,-208.479 651.191,-190.452"/>
<polygon fill="grey" stroke="grey" stroke-width="2" points="654.692,-190.622 652.215,-180.321 647.727,-189.919 654.692,-190.622"/>
</g>
<!-- 24 -->
<g id="node25" class="node"><title>24</title>
<path fill="none" stroke="#d8ac56" stroke-width="2" d="M719.5,-252C719.5,-252 678.5,-252 678.5,-252 672.5,-252 666.5,-246 666.5,-240 666.5,-240 666.5,-228 666.5,-228 666.5,-222 672.5,-216 678.5,-216 678.5,-216 719.5,-216 719.5,-216 725.5,-216 731.5,-222 731.5,-228 731.5,-228 731.5,-240 731.5,-240 731.5,-246 725.5,-252 719.5,-252"/>
<text text-anchor="middle" x="699" y="-231.5" font-family="sans" font-size="10.00">calc_dists</text>
</g>
<!-- 23&#45;&gt;24 -->
<g id="edge54" class="edge"><title>23&#45;&gt;24</title>
<path fill="none" stroke="grey" stroke-width="2" d="M699,-287.697C699,-279.983 699,-270.712 699,-262.112"/>
<polygon fill="grey" stroke="grey" stroke-width="2" points="702.5,-262.104 699,-252.104 695.5,-262.104 702.5,-262.104"/>
</g>
<!-- 24&#45;&gt;6 -->
<g id="edge24" class="edge"><title>24&#45;&gt;6</title>
<path fill="none" stroke="grey" stroke-width="2" d="M697.863,-215.895C696.577,-197.943 694.231,-168.924 691,-144 689.903,-135.54 688.442,-126.364 687.017,-118.063"/>
<polygon fill="grey" stroke="grey" stroke-width="2" points="690.449,-117.372 685.261,-108.135 683.556,-118.591 690.449,-117.372"/>
</g>
<!-- 24&#45;&gt;22 -->
<g id="edge50" class="edge"><title>24&#45;&gt;22</title>
<path fill="none" stroke="grey" stroke-width="2" d="M688.124,-215.697C683.008,-207.559 676.805,-197.689 671.155,-188.701"/>
<polygon fill="grey" stroke="grey" stroke-width="2" points="674.036,-186.708 665.751,-180.104 668.11,-190.433 674.036,-186.708"/>
</g>
<!-- 25 -->
<g id="node26" class="node"><title>25</title>
<path fill="none" stroke="#d85656" stroke-width="2" d="M199,-396C199,-396 133,-396 133,-396 127,-396 121,-390 121,-384 121,-384 121,-372 121,-372 121,-366 127,-360 133,-360 133,-360 199,-360 199,-360 205,-360 211,-366 211,-372 211,-372 211,-384 211,-384 211,-390 205,-396 199,-396"/>
<text text-anchor="middle" x="166" y="-381" font-family="sans" font-size="10.00">subset_regions</text>
<text text-anchor="middle" x="166" y="-370" font-family="sans" font-size="10.00">ref: silva</text>
</g>
<!-- 25&#45;&gt;8 -->
<g id="edge27" class="edge"><title>25&#45;&gt;8</title>
<path fill="none" stroke="grey" stroke-width="2" d="M145.483,-359.697C135.131,-350.965 122.414,-340.24 111.161,-330.75"/>
<polygon fill="grey" stroke="grey" stroke-width="2" points="113.182,-327.876 103.281,-324.104 108.669,-333.227 113.182,-327.876"/>
</g>
<!-- 25&#45;&gt;11 -->
<g id="edge32" class="edge"><title>25&#45;&gt;11</title>
<path fill="none" stroke="grey" stroke-width="2" d="M179.101,-359.697C185.391,-351.389 193.047,-341.277 199.965,-332.141"/>
<polygon fill="grey" stroke="grey" stroke-width="2" points="202.804,-334.19 206.05,-324.104 197.223,-329.964 202.804,-334.19"/>
</g>
<!-- 26 -->
<g id="node27" class="node"><title>26</title>
<path fill="none" stroke="#56d882" stroke-width="2" stroke-dasharray="5,2" d="M234.5,-540C234.5,-540 181.5,-540 181.5,-540 175.5,-540 169.5,-534 169.5,-528 169.5,-528 169.5,-516 169.5,-516 169.5,-510 175.5,-504 181.5,-504 181.5,-504 234.5,-504 234.5,-504 240.5,-504 246.5,-510 246.5,-516 246.5,-516 246.5,-528 246.5,-528 246.5,-534 240.5,-540 234.5,-540"/>
<text text-anchor="middle" x="208" y="-525" font-family="sans" font-size="10.00">get_bacteria</text>
<text text-anchor="middle" x="208" y="-514" font-family="sans" font-size="10.00">ref: silva</text>
</g>
<!-- 26&#45;&gt;8 -->
<g id="edge28" class="edge"><title>26&#45;&gt;8</title>
<path fill="none" stroke="grey" stroke-width="2" d="M169.259,-511.647C145.935,-503.925 117.787,-490.477 102,-468 74.0467,-428.201 75.1734,-368.776 78.8583,-334.353"/>
<polygon fill="grey" stroke="grey" stroke-width="2" points="82.3709,-334.462 80.111,-324.111 75.4227,-333.612 82.3709,-334.462"/>
</g>
<!-- 26&#45;&gt;11 -->
<g id="edge33" class="edge"><title>26&#45;&gt;11</title>
<path fill="none" stroke="grey" stroke-width="2" d="M216.718,-503.833C221.375,-493.694 226.625,-480.444 229,-468 237.87,-421.536 230.682,-366.298 224.765,-334.091"/>
<polygon fill="grey" stroke="grey" stroke-width="2" points="228.167,-333.251 222.832,-324.097 221.294,-334.58 228.167,-333.251"/>
</g>
<!-- 31 -->
<g id="node32" class="node"><title>31</title>
<path fill="none" stroke="#d88556" stroke-width="2" stroke-dasharray="5,2" d="M208.5,-468C208.5,-468 123.5,-468 123.5,-468 117.5,-468 111.5,-462 111.5,-456 111.5,-456 111.5,-444 111.5,-444 111.5,-438 117.5,-432 123.5,-432 123.5,-432 208.5,-432 208.5,-432 214.5,-432 220.5,-438 220.5,-444 220.5,-444 220.5,-456 220.5,-456 220.5,-462 214.5,-468 208.5,-468"/>
<text text-anchor="middle" x="166" y="-447.5" font-family="sans" font-size="10.00">rename_silva_bact</text>
</g>
<!-- 26&#45;&gt;31 -->
<g id="edge61" class="edge"><title>26&#45;&gt;31</title>
<path fill="none" stroke="grey" stroke-width="2" d="M197.618,-503.697C192.735,-495.559 186.813,-485.689 181.421,-476.701"/>
<polygon fill="grey" stroke="grey" stroke-width="2" points="184.409,-474.879 176.263,-468.104 178.406,-478.48 184.409,-474.879"/>
</g>
<!-- 27 -->
<g id="node28" class="node"><title>27</title>
<path fill="none" stroke="#d85656" stroke-width="2" d="M437,-396C437,-396 371,-396 371,-396 365,-396 359,-390 359,-384 359,-384 359,-372 359,-372 359,-366 365,-360 371,-360 371,-360 437,-360 437,-360 443,-360 449,-366 449,-372 449,-372 449,-384 449,-384 449,-390 443,-396 437,-396"/>
<text text-anchor="middle" x="404" y="-375.5" font-family="sans" font-size="10.00">subset_regions</text>
</g>
<!-- 27&#45;&gt;14 -->
<g id="edge37" class="edge"><title>27&#45;&gt;14</title>
<path fill="none" stroke="grey" stroke-width="2" d="M431.154,-359.876C445.533,-350.808 463.381,-339.552 478.91,-329.759"/>
<polygon fill="grey" stroke="grey" stroke-width="2" points="481.15,-332.484 487.742,-324.19 477.416,-326.564 481.15,-332.484"/>
</g>
<!-- 27&#45;&gt;17 -->
<g id="edge42" class="edge"><title>27&#45;&gt;17</title>
<path fill="none" stroke="grey" stroke-width="2" d="M403.753,-359.697C403.643,-351.983 403.51,-342.712 403.387,-334.112"/>
<polygon fill="grey" stroke="grey" stroke-width="2" points="406.887,-334.053 403.244,-324.104 399.888,-334.153 406.887,-334.053"/>
</g>
<!-- 28 -->
<g id="node29" class="node"><title>28</title>
<path fill="none" stroke="#56d882" stroke-width="2" stroke-dasharray="5,2" d="M507.5,-540C507.5,-540 454.5,-540 454.5,-540 448.5,-540 442.5,-534 442.5,-528 442.5,-528 442.5,-516 442.5,-516 442.5,-510 448.5,-504 454.5,-504 454.5,-504 507.5,-504 507.5,-504 513.5,-504 519.5,-510 519.5,-516 519.5,-516 519.5,-528 519.5,-528 519.5,-534 513.5,-540 507.5,-540"/>
<text text-anchor="middle" x="481" y="-525" font-family="sans" font-size="10.00">get_bacteria</text>
<text text-anchor="middle" x="481" y="-514" font-family="sans" font-size="10.00">ref: gg</text>
</g>
<!-- 28&#45;&gt;14 -->
<g id="edge38" class="edge"><title>28&#45;&gt;14</title>
<path fill="none" stroke="grey" stroke-width="2" d="M484.41,-503.844C486.427,-493.483 488.974,-480.003 491,-468 498.903,-421.183 506.77,-366.473 511.244,-334.394"/>
<polygon fill="grey" stroke="grey" stroke-width="2" points="514.719,-334.813 512.626,-324.427 507.786,-333.851 514.719,-334.813"/>
</g>
<!-- 28&#45;&gt;17 -->
<g id="edge43" class="edge"><title>28&#45;&gt;17</title>
<path fill="none" stroke="grey" stroke-width="2" d="M482.074,-503.937C483.269,-473.311 482.435,-407.759 458,-360 452.441,-349.135 443.77,-339.231 434.943,-331.003"/>
<polygon fill="grey" stroke="grey" stroke-width="2" points="437.044,-328.189 427.22,-324.22 432.425,-333.449 437.044,-328.189"/>
</g>
<!-- 33 -->
<g id="node34" class="node"><title>33</title>
<path fill="none" stroke="#56d8d8" stroke-width="2" stroke-dasharray="5,2" d="M419,-468C419,-468 389,-468 389,-468 383,-468 377,-462 377,-456 377,-456 377,-444 377,-444 377,-438 383,-432 389,-432 389,-432 419,-432 419,-432 425,-432 431,-438 431,-444 431,-444 431,-456 431,-456 431,-462 425,-468 419,-468"/>
<text text-anchor="middle" x="404" y="-447.5" font-family="sans" font-size="10.00">align</text>
</g>
<!-- 28&#45;&gt;33 -->
<g id="edge62" class="edge"><title>28&#45;&gt;33</title>
<path fill="none" stroke="grey" stroke-width="2" d="M461.966,-503.697C452.455,-495.05 440.793,-484.449 430.43,-475.027"/>
<polygon fill="grey" stroke="grey" stroke-width="2" points="432.569,-472.241 422.815,-468.104 427.86,-477.421 432.569,-472.241"/>
</g>
<!-- 29 -->
<g id="node30" class="node"><title>29</title>
<path fill="none" stroke="#d85656" stroke-width="2" d="M732,-396C732,-396 666,-396 666,-396 660,-396 654,-390 654,-384 654,-384 654,-372 654,-372 654,-366 660,-360 666,-360 666,-360 732,-360 732,-360 738,-360 744,-366 744,-372 744,-372 744,-384 744,-384 744,-390 738,-396 732,-396"/>
<text text-anchor="middle" x="699" y="-375.5" font-family="sans" font-size="10.00">subset_regions</text>
</g>
<!-- 29&#45;&gt;20 -->
<g id="edge47" class="edge"><title>29&#45;&gt;20</title>
<path fill="none" stroke="grey" stroke-width="2" d="M726.398,-359.876C740.907,-350.808 758.916,-339.552 774.585,-329.759"/>
<polygon fill="grey" stroke="grey" stroke-width="2" points="776.871,-332.458 783.496,-324.19 773.161,-326.522 776.871,-332.458"/>
</g>
<!-- 29&#45;&gt;23 -->
<g id="edge52" class="edge"><title>29&#45;&gt;23</title>
<path fill="none" stroke="grey" stroke-width="2" d="M699,-359.697C699,-351.983 699,-342.712 699,-334.112"/>
<polygon fill="grey" stroke="grey" stroke-width="2" points="702.5,-334.104 699,-324.104 695.5,-334.104 702.5,-334.104"/>
</g>
<!-- 30 -->
<g id="node31" class="node"><title>30</title>
<path fill="none" stroke="#56d882" stroke-width="2" stroke-dasharray="5,2" d="M798.5,-540C798.5,-540 745.5,-540 745.5,-540 739.5,-540 733.5,-534 733.5,-528 733.5,-528 733.5,-516 733.5,-516 733.5,-510 739.5,-504 745.5,-504 745.5,-504 798.5,-504 798.5,-504 804.5,-504 810.5,-510 810.5,-516 810.5,-516 810.5,-528 810.5,-528 810.5,-534 804.5,-540 798.5,-540"/>
<text text-anchor="middle" x="772" y="-525" font-family="sans" font-size="10.00">get_bacteria</text>
<text text-anchor="middle" x="772" y="-514" font-family="sans" font-size="10.00">ref: rdp</text>
</g>
<!-- 30&#45;&gt;20 -->
<g id="edge48" class="edge"><title>30&#45;&gt;20</title>
<path fill="none" stroke="grey" stroke-width="2" d="M776.995,-503.922C779.897,-493.588 783.468,-480.11 786,-468 795.78,-421.234 803.537,-366.093 807.684,-333.986"/>
<polygon fill="grey" stroke="grey" stroke-width="2" points="811.161,-334.388 808.949,-324.026 804.217,-333.505 811.161,-334.388"/>
</g>
<!-- 30&#45;&gt;23 -->
<g id="edge53" class="edge"><title>30&#45;&gt;23</title>
<path fill="none" stroke="grey" stroke-width="2" d="M773.559,-503.987C775.611,-473.441 776.554,-408.01 753,-360 747.675,-349.146 739.199,-339.245 730.526,-331.016"/>
<polygon fill="grey" stroke="grey" stroke-width="2" points="732.718,-328.282 722.927,-324.233 728.056,-333.503 732.718,-328.282"/>
</g>
<!-- 35 -->
<g id="node36" class="node"><title>35</title>
<path fill="none" stroke="#56d8d8" stroke-width="2" stroke-dasharray="5,2" d="M714,-468C714,-468 684,-468 684,-468 678,-468 672,-462 672,-456 672,-456 672,-444 672,-444 672,-438 678,-432 684,-432 684,-432 714,-432 714,-432 720,-432 726,-438 726,-444 726,-444 726,-456 726,-456 726,-462 720,-468 714,-468"/>
<text text-anchor="middle" x="699" y="-447.5" font-family="sans" font-size="10.00">align</text>
</g>
<!-- 30&#45;&gt;35 -->
<g id="edge64" class="edge"><title>30&#45;&gt;35</title>
<path fill="none" stroke="grey" stroke-width="2" d="M753.955,-503.697C744.938,-495.05 733.882,-484.449 724.057,-475.027"/>
<polygon fill="grey" stroke="grey" stroke-width="2" points="726.478,-472.499 716.837,-468.104 721.633,-477.552 726.478,-472.499"/>
</g>
<!-- 31&#45;&gt;25 -->
<g id="edge55" class="edge"><title>31&#45;&gt;25</title>
<path fill="none" stroke="grey" stroke-width="2" d="M166,-431.697C166,-423.983 166,-414.712 166,-406.112"/>
<polygon fill="grey" stroke="grey" stroke-width="2" points="169.5,-406.104 166,-396.104 162.5,-406.104 169.5,-406.104"/>
</g>
<!-- 32 -->
<g id="node33" class="node"><title>32</title>
<path fill="none" stroke="#afd856" stroke-width="2" stroke-dasharray="5,2" d="M414,-612C414,-612 346,-612 346,-612 340,-612 334,-606 334,-600 334,-600 334,-588 334,-588 334,-582 340,-576 346,-576 346,-576 414,-576 414,-576 420,-576 426,-582 426,-588 426,-588 426,-600 426,-600 426,-606 420,-612 414,-612"/>
<text text-anchor="middle" x="380" y="-591.5" font-family="sans" font-size="10.00">download_silva</text>
</g>
<!-- 32&#45;&gt;26 -->
<g id="edge56" class="edge"><title>32&#45;&gt;26</title>
<path fill="none" stroke="grey" stroke-width="2" d="M337.924,-575.876C313.232,-565.827 281.935,-553.09 256.246,-542.635"/>
<polygon fill="grey" stroke="grey" stroke-width="2" points="257.282,-539.278 246.701,-538.75 254.644,-545.762 257.282,-539.278"/>
</g>
<!-- 32&#45;&gt;33 -->
<g id="edge63" class="edge"><title>32&#45;&gt;33</title>
<path fill="none" stroke="grey" stroke-width="2" d="M382.895,-575.871C386.985,-551.67 394.5,-507.211 399.37,-478.393"/>
<polygon fill="grey" stroke="grey" stroke-width="2" points="402.879,-478.633 401.095,-468.189 395.977,-477.466 402.879,-478.633"/>
</g>
<!-- 32&#45;&gt;35 -->
<g id="edge65" class="edge"><title>32&#45;&gt;35</title>
<path fill="none" stroke="grey" stroke-width="2" d="M426.298,-578.227C455.799,-568.373 494.612,-554.586 528,-540 575.656,-519.18 628.462,-490.844 662.607,-471.787"/>
<polygon fill="grey" stroke="grey" stroke-width="2" points="664.715,-474.618 671.723,-466.672 661.29,-468.513 664.715,-474.618"/>
</g>
<!-- 33&#45;&gt;27 -->
<g id="edge57" class="edge"><title>33&#45;&gt;27</title>
<path fill="none" stroke="grey" stroke-width="2" d="M404,-431.697C404,-423.983 404,-414.712 404,-406.112"/>
<polygon fill="grey" stroke="grey" stroke-width="2" points="407.5,-406.104 404,-396.104 400.5,-406.104 407.5,-406.104"/>
</g>
<!-- 34 -->
<g id="node35" class="node"><title>34</title>
<path fill="none" stroke="#56d8a9" stroke-width="2" stroke-dasharray="5,2" d="M513.5,-612C513.5,-612 456.5,-612 456.5,-612 450.5,-612 444.5,-606 444.5,-600 444.5,-600 444.5,-588 444.5,-588 444.5,-582 450.5,-576 456.5,-576 456.5,-576 513.5,-576 513.5,-576 519.5,-576 525.5,-582 525.5,-588 525.5,-588 525.5,-600 525.5,-600 525.5,-606 519.5,-612 513.5,-612"/>
<text text-anchor="middle" x="485" y="-591.5" font-family="sans" font-size="10.00">download_gg</text>
</g>
<!-- 34&#45;&gt;28 -->
<g id="edge58" class="edge"><title>34&#45;&gt;28</title>
<path fill="none" stroke="grey" stroke-width="2" d="M484.011,-575.697C483.57,-567.983 483.041,-558.712 482.549,-550.112"/>
<polygon fill="grey" stroke="grey" stroke-width="2" points="486.042,-549.888 481.977,-540.104 479.054,-550.288 486.042,-549.888"/>
</g>
<!-- 35&#45;&gt;29 -->
<g id="edge59" class="edge"><title>35&#45;&gt;29</title>
<path fill="none" stroke="grey" stroke-width="2" d="M699,-431.697C699,-423.983 699,-414.712 699,-406.112"/>
<polygon fill="grey" stroke="grey" stroke-width="2" points="702.5,-406.104 699,-396.104 695.5,-406.104 702.5,-406.104"/>
</g>
<!-- 36 -->
<g id="node37" class="node"><title>36</title>
<path fill="none" stroke="#d6d856" stroke-width="2" stroke-dasharray="5,2" d="M802.5,-612C802.5,-612 741.5,-612 741.5,-612 735.5,-612 729.5,-606 729.5,-600 729.5,-600 729.5,-588 729.5,-588 729.5,-582 735.5,-576 741.5,-576 741.5,-576 802.5,-576 802.5,-576 808.5,-576 814.5,-582 814.5,-588 814.5,-588 814.5,-600 814.5,-600 814.5,-606 808.5,-612 802.5,-612"/>
<text text-anchor="middle" x="772" y="-591.5" font-family="sans" font-size="10.00">download_rdp</text>
</g>
<!-- 36&#45;&gt;30 -->
<g id="edge60" class="edge"><title>36&#45;&gt;30</title>
<path fill="none" stroke="grey" stroke-width="2" d="M772,-575.697C772,-567.983 772,-558.712 772,-550.112"/>
<polygon fill="grey" stroke="grey" stroke-width="2" points="775.5,-550.104 772,-540.104 768.5,-550.104 775.5,-550.104"/>
</g>
</g>
</svg>
