<?xml version="1.0" encoding="UTF-8" standalone="no"?>
<!DOCTYPE svg PUBLIC "-//W3C//DTD SVG 1.1//EN"
 "http://www.w3.org/Graphics/SVG/1.1/DTD/svg11.dtd">
<!-- Generated by graphviz version 2.38.0 (20140413.2041)
 -->
<!-- Title: snakemake_dag Pages: 1 -->
<svg width="2342pt" height="651pt"
 viewBox="0.00 0.00 2342.00 651.00" xmlns="http://www.w3.org/2000/svg" xmlns:xlink="http://www.w3.org/1999/xlink">
<g id="graph0" class="graph" transform="scale(1 1) rotate(0) translate(4 647)">
<title>snakemake_dag</title>
<polygon fill="white" stroke="none" points="-4,4 -4,-647 2338,-647 2338,4 -4,4"/>
<!-- 0 -->
<g id="node1" class="node"><title>0</title>
<path fill="none" stroke="#56d8a9" stroke-width="2" d="M1184,-36C1184,-36 1154,-36 1154,-36 1148,-36 1142,-30 1142,-24 1142,-24 1142,-12 1142,-12 1142,-6 1148,-0 1154,-0 1154,-0 1184,-0 1184,-0 1190,-0 1196,-6 1196,-12 1196,-12 1196,-24 1196,-24 1196,-30 1190,-36 1184,-36"/>
<text text-anchor="middle" x="1169" y="-15.5" font-family="sans" font-size="10.00">all</text>
</g>
<!-- 1 -->
<g id="node2" class="node"><title>1</title>
<path fill="none" stroke="#569ad8" stroke-width="2" d="M1200,-108C1200,-108 1138,-108 1138,-108 1132,-108 1126,-102 1126,-96 1126,-96 1126,-84 1126,-84 1126,-78 1132,-72 1138,-72 1138,-72 1200,-72 1200,-72 1206,-72 1212,-78 1212,-84 1212,-84 1212,-96 1212,-96 1212,-102 1206,-108 1200,-108"/>
<text text-anchor="middle" x="1169" y="-87.5" font-family="sans" font-size="10.00">plot_sensspec</text>
</g>
<!-- 1&#45;&gt;0 -->
<g id="edge1" class="edge"><title>1&#45;&gt;0</title>
<path fill="none" stroke="grey" stroke-width="2" d="M1169,-71.6966C1169,-63.9827 1169,-54.7125 1169,-46.1124"/>
<polygon fill="grey" stroke="grey" stroke-width="2" points="1172.5,-46.1043 1169,-36.1043 1165.5,-46.1044 1172.5,-46.1043"/>
</g>
<!-- 2 -->
<g id="node3" class="node"><title>2</title>
<path fill="none" stroke="#56d8d8" stroke-width="2" d="M1215,-180C1215,-180 1123,-180 1123,-180 1117,-180 1111,-174 1111,-168 1111,-168 1111,-156 1111,-156 1111,-150 1117,-144 1123,-144 1123,-144 1215,-144 1215,-144 1221,-144 1227,-150 1227,-156 1227,-156 1227,-168 1227,-168 1227,-174 1221,-180 1215,-180"/>
<text text-anchor="middle" x="1169" y="-159.5" font-family="sans" font-size="10.00">aggregate_sensspec</text>
</g>
<!-- 2&#45;&gt;1 -->
<g id="edge2" class="edge"><title>2&#45;&gt;1</title>
<path fill="none" stroke="grey" stroke-width="2" d="M1169,-143.697C1169,-135.983 1169,-126.712 1169,-118.112"/>
<polygon fill="grey" stroke="grey" stroke-width="2" points="1172.5,-118.104 1169,-108.104 1165.5,-118.104 1172.5,-118.104"/>
</g>
<!-- 3 -->
<g id="node4" class="node"><title>3</title>
<path fill="none" stroke="#5682d8" stroke-width="2" d="M896,-257C896,-257 836,-257 836,-257 830,-257 824,-251 824,-245 824,-245 824,-228 824,-228 824,-222 830,-216 836,-216 836,-216 896,-216 896,-216 902,-216 908,-222 908,-228 908,-228 908,-245 908,-245 908,-251 902,-257 896,-257"/>
<text text-anchor="middle" x="866" y="-245" font-family="sans" font-size="10.00">fit</text>
<text text-anchor="middle" x="866" y="-234" font-family="sans" font-size="10.00">method: open</text>
<text text-anchor="middle" x="866" y="-223" font-family="sans" font-size="10.00">printref: t</text>
</g>
<!-- 3&#45;&gt;2 -->
<g id="edge3" class="edge"><title>3&#45;&gt;2</title>
<path fill="none" stroke="grey" stroke-width="2" d="M908.125,-218.805C911.111,-217.804 914.09,-216.856 917,-216 978.316,-197.953 1049.74,-183.533 1100.86,-174.318"/>
<polygon fill="grey" stroke="grey" stroke-width="2" points="1101.58,-177.746 1110.81,-172.545 1100.35,-170.855 1101.58,-177.746"/>
</g>
<!-- 4 -->
<g id="node5" class="node"><title>4</title>
<path fill="none" stroke="#5682d8" stroke-width="2" d="M1962,-257C1962,-257 1902,-257 1902,-257 1896,-257 1890,-251 1890,-245 1890,-245 1890,-228 1890,-228 1890,-222 1896,-216 1902,-216 1902,-216 1962,-216 1962,-216 1968,-216 1974,-222 1974,-228 1974,-228 1974,-245 1974,-245 1974,-251 1968,-257 1962,-257"/>
<text text-anchor="middle" x="1932" y="-245" font-family="sans" font-size="10.00">fit</text>
<text text-anchor="middle" x="1932" y="-234" font-family="sans" font-size="10.00">method: open</text>
<text text-anchor="middle" x="1932" y="-223" font-family="sans" font-size="10.00">printref: f</text>
</g>
<!-- 4&#45;&gt;2 -->
<g id="edge4" class="edge"><title>4&#45;&gt;2</title>
<path fill="none" stroke="grey" stroke-width="2" d="M1889.99,-218.357C1886.98,-217.462 1883.96,-216.661 1881,-216 1759.64,-188.893 1391.16,-171.72 1237.46,-165.561"/>
<polygon fill="grey" stroke="grey" stroke-width="2" points="1237.34,-162.053 1227.21,-165.154 1237.07,-169.048 1237.34,-162.053"/>
</g>
<!-- 5 -->
<g id="node6" class="node"><title>5</title>
<path fill="none" stroke="#5682d8" stroke-width="2" d="M182,-257C182,-257 114,-257 114,-257 108,-257 102,-251 102,-245 102,-245 102,-228 102,-228 102,-222 108,-216 114,-216 114,-216 182,-216 182,-216 188,-216 194,-222 194,-228 194,-228 194,-245 194,-245 194,-251 188,-257 182,-257"/>
<text text-anchor="middle" x="148" y="-245" font-family="sans" font-size="10.00">fit</text>
<text text-anchor="middle" x="148" y="-234" font-family="sans" font-size="10.00">method: closed</text>
<text text-anchor="middle" x="148" y="-223" font-family="sans" font-size="10.00">printref: f</text>
</g>
<!-- 5&#45;&gt;2 -->
<g id="edge5" class="edge"><title>5&#45;&gt;2</title>
<path fill="none" stroke="grey" stroke-width="2" d="M194.205,-219.173C198.825,-217.937 203.478,-216.845 208,-216 379.567,-183.953 911.074,-168.915 1100.82,-164.467"/>
<polygon fill="grey" stroke="grey" stroke-width="2" points="1101.03,-167.964 1110.94,-164.232 1100.86,-160.965 1101.03,-167.964"/>
</g>
<!-- 6 -->
<g id="node7" class="node"><title>6</title>
<path fill="none" stroke="#5682d8" stroke-width="2" d="M794,-257C794,-257 726,-257 726,-257 720,-257 714,-251 714,-245 714,-245 714,-228 714,-228 714,-222 720,-216 726,-216 726,-216 794,-216 794,-216 800,-216 806,-222 806,-228 806,-228 806,-245 806,-245 806,-251 800,-257 794,-257"/>
<text text-anchor="middle" x="760" y="-245" font-family="sans" font-size="10.00">fit</text>
<text text-anchor="middle" x="760" y="-234" font-family="sans" font-size="10.00">method: closed</text>
<text text-anchor="middle" x="760" y="-223" font-family="sans" font-size="10.00">printref: f</text>
</g>
<!-- 6&#45;&gt;2 -->
<g id="edge6" class="edge"><title>6&#45;&gt;2</title>
<path fill="none" stroke="grey" stroke-width="2" d="M806.017,-218.462C809.038,-217.568 812.051,-216.736 815,-216 912.693,-191.609 1028.53,-176.862 1100.41,-169.322"/>
<polygon fill="grey" stroke="grey" stroke-width="2" points="1101.1,-172.769 1110.69,-168.261 1100.39,-165.806 1101.1,-172.769"/>
</g>
<!-- 7 -->
<g id="node8" class="node"><title>7</title>
<path fill="none" stroke="#5682d8" stroke-width="2" d="M2322,-257C2322,-257 2254,-257 2254,-257 2248,-257 2242,-251 2242,-245 2242,-245 2242,-228 2242,-228 2242,-222 2248,-216 2254,-216 2254,-216 2322,-216 2322,-216 2328,-216 2334,-222 2334,-228 2334,-228 2334,-245 2334,-245 2334,-251 2328,-257 2322,-257"/>
<text text-anchor="middle" x="2288" y="-245" font-family="sans" font-size="10.00">fit</text>
<text text-anchor="middle" x="2288" y="-234" font-family="sans" font-size="10.00">method: closed</text>
<text text-anchor="middle" x="2288" y="-223" font-family="sans" font-size="10.00">printref: t</text>
</g>
<!-- 7&#45;&gt;2 -->
<g id="edge7" class="edge"><title>7&#45;&gt;2</title>
<path fill="none" stroke="grey" stroke-width="2" d="M2241.8,-219.149C2237.18,-217.918 2232.52,-216.833 2228,-216 2036.82,-180.792 1440.29,-167.604 1237.37,-164.066"/>
<polygon fill="grey" stroke="grey" stroke-width="2" points="1237.21,-160.563 1227.15,-163.891 1237.09,-167.562 1237.21,-160.563"/>
</g>
<!-- 8 -->
<g id="node9" class="node"><title>8</title>
<path fill="none" stroke="#5682d8" stroke-width="2" d="M1256,-257C1256,-257 1188,-257 1188,-257 1182,-257 1176,-251 1176,-245 1176,-245 1176,-228 1176,-228 1176,-222 1182,-216 1188,-216 1188,-216 1256,-216 1256,-216 1262,-216 1268,-222 1268,-228 1268,-228 1268,-245 1268,-245 1268,-251 1262,-257 1256,-257"/>
<text text-anchor="middle" x="1222" y="-245" font-family="sans" font-size="10.00">fit</text>
<text text-anchor="middle" x="1222" y="-234" font-family="sans" font-size="10.00">method: closed</text>
<text text-anchor="middle" x="1222" y="-223" font-family="sans" font-size="10.00">printref: f</text>
</g>
<!-- 8&#45;&gt;2 -->
<g id="edge8" class="edge"><title>8&#45;&gt;2</title>
<path fill="none" stroke="grey" stroke-width="2" d="M1207.52,-215.689C1201.39,-207.301 1194.16,-197.424 1187.64,-188.501"/>
<polygon fill="grey" stroke="grey" stroke-width="2" points="1190.39,-186.327 1181.66,-180.319 1184.74,-190.458 1190.39,-186.327"/>
</g>
<!-- 9 -->
<g id="node10" class="node"><title>9</title>
<path fill="none" stroke="#d6d856" stroke-width="2" d="M558,-257C558,-257 474,-257 474,-257 468,-257 462,-251 462,-245 462,-245 462,-228 462,-228 462,-222 468,-216 474,-216 474,-216 558,-216 558,-216 564,-216 570,-222 570,-228 570,-228 570,-245 570,-245 570,-251 564,-257 558,-257"/>
<text text-anchor="middle" x="516" y="-245" font-family="sans" font-size="10.00">cluster</text>
<text text-anchor="middle" x="516" y="-234" font-family="sans" font-size="10.00">rep: 0</text>
<text text-anchor="middle" x="516" y="-223" font-family="sans" font-size="10.00">sampleref: sample</text>
</g>
<!-- 9&#45;&gt;2 -->
<g id="edge9" class="edge"><title>9&#45;&gt;2</title>
<path fill="none" stroke="grey" stroke-width="2" d="M570.11,-217.959C573.102,-217.237 576.079,-216.576 579,-216 765.389,-179.21 990.004,-167.918 1100.62,-164.482"/>
<polygon fill="grey" stroke="grey" stroke-width="2" points="1100.75,-167.98 1110.64,-164.182 1100.54,-160.983 1100.75,-167.98"/>
</g>
<!-- 10 -->
<g id="node11" class="node"><title>10</title>
<path fill="none" stroke="#5682d8" stroke-width="2" d="M1396,-257C1396,-257 1336,-257 1336,-257 1330,-257 1324,-251 1324,-245 1324,-245 1324,-228 1324,-228 1324,-222 1330,-216 1336,-216 1336,-216 1396,-216 1396,-216 1402,-216 1408,-222 1408,-228 1408,-228 1408,-245 1408,-245 1408,-251 1402,-257 1396,-257"/>
<text text-anchor="middle" x="1366" y="-245" font-family="sans" font-size="10.00">fit</text>
<text text-anchor="middle" x="1366" y="-234" font-family="sans" font-size="10.00">method: open</text>
<text text-anchor="middle" x="1366" y="-223" font-family="sans" font-size="10.00">printref: t</text>
</g>
<!-- 10&#45;&gt;2 -->
<g id="edge10" class="edge"><title>10&#45;&gt;2</title>
<path fill="none" stroke="grey" stroke-width="2" d="M1323.74,-219.947C1294.85,-209.314 1256.24,-195.107 1224.82,-183.544"/>
<polygon fill="grey" stroke="grey" stroke-width="2" points="1225.92,-180.217 1215.32,-180.047 1223.5,-186.786 1225.92,-180.217"/>
</g>
<!-- 11 -->
<g id="node12" class="node"><title>11</title>
<path fill="none" stroke="#5682d8" stroke-width="2" d="M1498,-257C1498,-257 1438,-257 1438,-257 1432,-257 1426,-251 1426,-245 1426,-245 1426,-228 1426,-228 1426,-222 1432,-216 1438,-216 1438,-216 1498,-216 1498,-216 1504,-216 1510,-222 1510,-228 1510,-228 1510,-245 1510,-245 1510,-251 1504,-257 1498,-257"/>
<text text-anchor="middle" x="1468" y="-245" font-family="sans" font-size="10.00">fit</text>
<text text-anchor="middle" x="1468" y="-234" font-family="sans" font-size="10.00">method: open</text>
<text text-anchor="middle" x="1468" y="-223" font-family="sans" font-size="10.00">printref: f</text>
</g>
<!-- 11&#45;&gt;2 -->
<g id="edge11" class="edge"><title>11&#45;&gt;2</title>
<path fill="none" stroke="grey" stroke-width="2" d="M1425.87,-218.816C1422.89,-217.812 1419.91,-216.861 1417,-216 1357.07,-198.254 1287.34,-183.891 1237.11,-174.616"/>
<polygon fill="grey" stroke="grey" stroke-width="2" points="1237.48,-171.126 1227.01,-172.772 1236.22,-178.012 1237.48,-171.126"/>
</g>
<!-- 12 -->
<g id="node13" class="node"><title>12</title>
<path fill="none" stroke="#5682d8" stroke-width="2" stroke-dasharray="5,2" d="M72,-257C72,-257 12,-257 12,-257 6,-257 0,-251 0,-245 0,-245 0,-228 0,-228 0,-222 6,-216 12,-216 12,-216 72,-216 72,-216 78,-216 84,-222 84,-228 84,-228 84,-245 84,-245 84,-251 78,-257 72,-257"/>
<text text-anchor="middle" x="42" y="-245" font-family="sans" font-size="10.00">fit</text>
<text text-anchor="middle" x="42" y="-234" font-family="sans" font-size="10.00">method: open</text>
<text text-anchor="middle" x="42" y="-223" font-family="sans" font-size="10.00">printref: t</text>
</g>
<!-- 12&#45;&gt;2 -->
<g id="edge12" class="edge"><title>12&#45;&gt;2</title>
<path fill="none" stroke="grey" stroke-width="2" d="M84.2733,-218.19C87.1972,-217.349 90.1243,-216.605 93,-216 286.717,-175.276 895.741,-165.662 1100.82,-163.554"/>
<polygon fill="grey" stroke="grey" stroke-width="2" points="1100.9,-167.053 1110.86,-163.453 1100.83,-160.054 1100.9,-167.053"/>
</g>
<!-- 13 -->
<g id="node14" class="node"><title>13</title>
<path fill="none" stroke="#5682d8" stroke-width="2" stroke-dasharray="5,2" d="M1608,-257C1608,-257 1540,-257 1540,-257 1534,-257 1528,-251 1528,-245 1528,-245 1528,-228 1528,-228 1528,-222 1534,-216 1540,-216 1540,-216 1608,-216 1608,-216 1614,-216 1620,-222 1620,-228 1620,-228 1620,-245 1620,-245 1620,-251 1614,-257 1608,-257"/>
<text text-anchor="middle" x="1574" y="-245" font-family="sans" font-size="10.00">fit</text>
<text text-anchor="middle" x="1574" y="-234" font-family="sans" font-size="10.00">method: closed</text>
<text text-anchor="middle" x="1574" y="-223" font-family="sans" font-size="10.00">printref: t</text>
</g>
<!-- 13&#45;&gt;2 -->
<g id="edge13" class="edge"><title>13&#45;&gt;2</title>
<path fill="none" stroke="grey" stroke-width="2" d="M1527.98,-218.468C1524.96,-217.572 1521.95,-216.739 1519,-216 1422.69,-191.869 1308.55,-177.088 1237.44,-169.465"/>
<polygon fill="grey" stroke="grey" stroke-width="2" points="1237.58,-165.961 1227.27,-168.392 1236.84,-172.922 1237.58,-165.961"/>
</g>
<!-- 14 -->
<g id="node15" class="node"><title>14</title>
<path fill="none" stroke="#d6d856" stroke-width="2" d="M1734,-257C1734,-257 1650,-257 1650,-257 1644,-257 1638,-251 1638,-245 1638,-245 1638,-228 1638,-228 1638,-222 1644,-216 1650,-216 1650,-216 1734,-216 1734,-216 1740,-216 1746,-222 1746,-228 1746,-228 1746,-245 1746,-245 1746,-251 1740,-257 1734,-257"/>
<text text-anchor="middle" x="1692" y="-245" font-family="sans" font-size="10.00">cluster</text>
<text text-anchor="middle" x="1692" y="-234" font-family="sans" font-size="10.00">rep: 0</text>
<text text-anchor="middle" x="1692" y="-223" font-family="sans" font-size="10.00">sampleref: sample</text>
</g>
<!-- 14&#45;&gt;2 -->
<g id="edge14" class="edge"><title>14&#45;&gt;2</title>
<path fill="none" stroke="grey" stroke-width="2" d="M1637.87,-218.047C1634.88,-217.303 1631.91,-216.613 1629,-216 1491.71,-187.105 1327.82,-172.975 1237.41,-166.908"/>
<polygon fill="grey" stroke="grey" stroke-width="2" points="1237.49,-163.406 1227.29,-166.242 1237.03,-170.391 1237.49,-163.406"/>
</g>
<!-- 15 -->
<g id="node16" class="node"><title>15</title>
<path fill="none" stroke="#5682d8" stroke-width="2" d="M1006,-257C1006,-257 938,-257 938,-257 932,-257 926,-251 926,-245 926,-245 926,-228 926,-228 926,-222 932,-216 938,-216 938,-216 1006,-216 1006,-216 1012,-216 1018,-222 1018,-228 1018,-228 1018,-245 1018,-245 1018,-251 1012,-257 1006,-257"/>
<text text-anchor="middle" x="972" y="-245" font-family="sans" font-size="10.00">fit</text>
<text text-anchor="middle" x="972" y="-234" font-family="sans" font-size="10.00">method: closed</text>
<text text-anchor="middle" x="972" y="-223" font-family="sans" font-size="10.00">printref: t</text>
</g>
<!-- 15&#45;&gt;2 -->
<g id="edge15" class="edge"><title>15&#45;&gt;2</title>
<path fill="none" stroke="grey" stroke-width="2" d="M1018.19,-218.502C1046.61,-208.041 1083.23,-194.566 1113.26,-183.514"/>
<polygon fill="grey" stroke="grey" stroke-width="2" points="1114.58,-186.755 1122.76,-180.017 1112.17,-180.186 1114.58,-186.755"/>
</g>
<!-- 16 -->
<g id="node17" class="node"><title>16</title>
<path fill="none" stroke="#5682d8" stroke-width="2" d="M1146,-257C1146,-257 1086,-257 1086,-257 1080,-257 1074,-251 1074,-245 1074,-245 1074,-228 1074,-228 1074,-222 1080,-216 1086,-216 1086,-216 1146,-216 1146,-216 1152,-216 1158,-222 1158,-228 1158,-228 1158,-245 1158,-245 1158,-251 1152,-257 1146,-257"/>
<text text-anchor="middle" x="1116" y="-245" font-family="sans" font-size="10.00">fit</text>
<text text-anchor="middle" x="1116" y="-234" font-family="sans" font-size="10.00">method: open</text>
<text text-anchor="middle" x="1116" y="-223" font-family="sans" font-size="10.00">printref: f</text>
</g>
<!-- 16&#45;&gt;2 -->
<g id="edge16" class="edge"><title>16&#45;&gt;2</title>
<path fill="none" stroke="grey" stroke-width="2" d="M1130.48,-215.689C1136.61,-207.301 1143.84,-197.424 1150.36,-188.501"/>
<polygon fill="grey" stroke="grey" stroke-width="2" points="1153.26,-190.458 1156.34,-180.319 1147.61,-186.327 1153.26,-190.458"/>
</g>
<!-- 17 -->
<g id="node18" class="node"><title>17</title>
<path fill="none" stroke="#d6d856" stroke-width="2" stroke-dasharray="5,2" d="M322.5,-334C322.5,-334 227.5,-334 227.5,-334 221.5,-334 215.5,-328 215.5,-322 215.5,-322 215.5,-305 215.5,-305 215.5,-299 221.5,-293 227.5,-293 227.5,-293 322.5,-293 322.5,-293 328.5,-293 334.5,-299 334.5,-305 334.5,-305 334.5,-322 334.5,-322 334.5,-328 328.5,-334 322.5,-334"/>
<text text-anchor="middle" x="275" y="-322" font-family="sans" font-size="10.00">cluster</text>
<text text-anchor="middle" x="275" y="-311" font-family="sans" font-size="10.00">rep: 1</text>
<text text-anchor="middle" x="275" y="-300" font-family="sans" font-size="10.00">sampleref: reference</text>
</g>
<!-- 17&#45;&gt;2 -->
<g id="edge17" class="edge"><title>17&#45;&gt;2</title>
<path fill="none" stroke="grey" stroke-width="2" d="M257.537,-292.665C240.817,-271.236 220.875,-237.307 241,-216 270.455,-184.814 891.356,-168.867 1100.74,-164.361"/>
<polygon fill="grey" stroke="grey" stroke-width="2" points="1101.07,-167.855 1110.99,-164.143 1100.92,-160.857 1101.07,-167.855"/>
</g>
<!-- 17&#45;&gt;5 -->
<g id="edge35" class="edge"><title>17&#45;&gt;5</title>
<path fill="none" stroke="grey" stroke-width="2" d="M241.964,-292.99C226.213,-283.689 207.185,-272.452 190.383,-262.529"/>
<polygon fill="grey" stroke="grey" stroke-width="2" points="191.702,-259.244 181.312,-257.172 188.143,-265.271 191.702,-259.244"/>
</g>
<!-- 17&#45;&gt;12 -->
<g id="edge54" class="edge"><title>17&#45;&gt;12</title>
<path fill="none" stroke="grey" stroke-width="2" d="M215.239,-295.41C181.86,-285.601 139.361,-272.681 93.6991,-257.148"/>
<polygon fill="grey" stroke="grey" stroke-width="2" points="94.8132,-253.83 84.2186,-253.9 92.5448,-260.452 94.8132,-253.83"/>
</g>
<!-- 21 -->
<g id="node22" class="node"><title>21</title>
<path fill="none" stroke="#5682d8" stroke-width="2" d="M322,-257C322,-257 262,-257 262,-257 256,-257 250,-251 250,-245 250,-245 250,-228 250,-228 250,-222 256,-216 262,-216 262,-216 322,-216 322,-216 328,-216 334,-222 334,-228 334,-228 334,-245 334,-245 334,-251 328,-257 322,-257"/>
<text text-anchor="middle" x="292" y="-245" font-family="sans" font-size="10.00">fit</text>
<text text-anchor="middle" x="292" y="-234" font-family="sans" font-size="10.00">method: open</text>
<text text-anchor="middle" x="292" y="-223" font-family="sans" font-size="10.00">printref: f</text>
</g>
<!-- 17&#45;&gt;21 -->
<g id="edge75" class="edge"><title>17&#45;&gt;21</title>
<path fill="none" stroke="grey" stroke-width="2" d="M279.467,-292.795C281.263,-284.871 283.371,-275.568 285.341,-266.877"/>
<polygon fill="grey" stroke="grey" stroke-width="2" points="288.766,-267.6 287.563,-257.074 281.939,-266.053 288.766,-267.6"/>
</g>
<!-- 24 -->
<g id="node25" class="node"><title>24</title>
<path fill="none" stroke="#5682d8" stroke-width="2" d="M432,-257C432,-257 364,-257 364,-257 358,-257 352,-251 352,-245 352,-245 352,-228 352,-228 352,-222 358,-216 364,-216 364,-216 432,-216 432,-216 438,-216 444,-222 444,-228 444,-228 444,-245 444,-245 444,-251 438,-257 432,-257"/>
<text text-anchor="middle" x="398" y="-245" font-family="sans" font-size="10.00">fit</text>
<text text-anchor="middle" x="398" y="-234" font-family="sans" font-size="10.00">method: closed</text>
<text text-anchor="middle" x="398" y="-223" font-family="sans" font-size="10.00">printref: t</text>
</g>
<!-- 17&#45;&gt;24 -->
<g id="edge80" class="edge"><title>17&#45;&gt;24</title>
<path fill="none" stroke="grey" stroke-width="2" d="M306.996,-292.99C322.251,-283.689 340.679,-272.452 356.952,-262.529"/>
<polygon fill="grey" stroke="grey" stroke-width="2" points="359.021,-265.367 365.737,-257.172 355.377,-259.39 359.021,-265.367"/>
</g>
<!-- 18 -->
<g id="node19" class="node"><title>18</title>
<path fill="none" stroke="#d6d856" stroke-width="2" stroke-dasharray="5,2" d="M2125.5,-334C2125.5,-334 2030.5,-334 2030.5,-334 2024.5,-334 2018.5,-328 2018.5,-322 2018.5,-322 2018.5,-305 2018.5,-305 2018.5,-299 2024.5,-293 2030.5,-293 2030.5,-293 2125.5,-293 2125.5,-293 2131.5,-293 2137.5,-299 2137.5,-305 2137.5,-305 2137.5,-322 2137.5,-322 2137.5,-328 2131.5,-334 2125.5,-334"/>
<text text-anchor="middle" x="2078" y="-322" font-family="sans" font-size="10.00">cluster</text>
<text text-anchor="middle" x="2078" y="-311" font-family="sans" font-size="10.00">rep: 1</text>
<text text-anchor="middle" x="2078" y="-300" font-family="sans" font-size="10.00">sampleref: reference</text>
</g>
<!-- 18&#45;&gt;2 -->
<g id="edge18" class="edge"><title>18&#45;&gt;2</title>
<path fill="none" stroke="grey" stroke-width="2" d="M2132.98,-292.975C2159.64,-282.278 2187.52,-268.828 2195,-257 2204.74,-241.599 2207.55,-229.213 2195,-216 2162.02,-181.267 1461.79,-167.504 1237.48,-163.976"/>
<polygon fill="grey" stroke="grey" stroke-width="2" points="1237.22,-160.472 1227.16,-163.816 1237.11,-167.471 1237.22,-160.472"/>
</g>
<!-- 18&#45;&gt;4 -->
<g id="edge32" class="edge"><title>18&#45;&gt;4</title>
<path fill="none" stroke="grey" stroke-width="2" d="M2040.02,-292.99C2021.42,-283.436 1998.85,-271.839 1979.15,-261.723"/>
<polygon fill="grey" stroke="grey" stroke-width="2" points="1980.54,-258.498 1970.04,-257.042 1977.34,-264.725 1980.54,-258.498"/>
</g>
<!-- 18&#45;&gt;7 -->
<g id="edge41" class="edge"><title>18&#45;&gt;7</title>
<path fill="none" stroke="grey" stroke-width="2" d="M2132.63,-292.99C2163.22,-282.064 2201.29,-268.466 2232.09,-257.466"/>
<polygon fill="grey" stroke="grey" stroke-width="2" points="2233.58,-260.652 2241.82,-253.993 2231.23,-254.06 2233.58,-260.652"/>
</g>
<!-- 19 -->
<g id="node20" class="node"><title>19</title>
<path fill="none" stroke="#5682d8" stroke-width="2" d="M2072,-257C2072,-257 2004,-257 2004,-257 1998,-257 1992,-251 1992,-245 1992,-245 1992,-228 1992,-228 1992,-222 1998,-216 2004,-216 2004,-216 2072,-216 2072,-216 2078,-216 2084,-222 2084,-228 2084,-228 2084,-245 2084,-245 2084,-251 2078,-257 2072,-257"/>
<text text-anchor="middle" x="2038" y="-245" font-family="sans" font-size="10.00">fit</text>
<text text-anchor="middle" x="2038" y="-234" font-family="sans" font-size="10.00">method: closed</text>
<text text-anchor="middle" x="2038" y="-223" font-family="sans" font-size="10.00">printref: f</text>
</g>
<!-- 18&#45;&gt;19 -->
<g id="edge69" class="edge"><title>18&#45;&gt;19</title>
<path fill="none" stroke="grey" stroke-width="2" d="M2067.49,-292.795C2063.13,-284.613 2057.98,-274.96 2053.22,-266.028"/>
<polygon fill="grey" stroke="grey" stroke-width="2" points="2056.23,-264.25 2048.44,-257.074 2050.06,-267.544 2056.23,-264.25"/>
</g>
<!-- 20 -->
<g id="node21" class="node"><title>20</title>
<path fill="none" stroke="#5682d8" stroke-width="2" d="M2174,-257C2174,-257 2114,-257 2114,-257 2108,-257 2102,-251 2102,-245 2102,-245 2102,-228 2102,-228 2102,-222 2108,-216 2114,-216 2114,-216 2174,-216 2174,-216 2180,-216 2186,-222 2186,-228 2186,-228 2186,-245 2186,-245 2186,-251 2180,-257 2174,-257"/>
<text text-anchor="middle" x="2144" y="-245" font-family="sans" font-size="10.00">fit</text>
<text text-anchor="middle" x="2144" y="-234" font-family="sans" font-size="10.00">method: open</text>
<text text-anchor="middle" x="2144" y="-223" font-family="sans" font-size="10.00">printref: t</text>
</g>
<!-- 18&#45;&gt;20 -->
<g id="edge72" class="edge"><title>18&#45;&gt;20</title>
<path fill="none" stroke="grey" stroke-width="2" d="M2095.34,-292.795C2102.92,-284.182 2111.93,-273.94 2120.13,-264.624"/>
<polygon fill="grey" stroke="grey" stroke-width="2" points="2122.8,-266.893 2126.78,-257.074 2117.54,-262.269 2122.8,-266.893"/>
</g>
<!-- 19&#45;&gt;2 -->
<g id="edge19" class="edge"><title>19&#45;&gt;2</title>
<path fill="none" stroke="grey" stroke-width="2" d="M1991.75,-218.09C1988.81,-217.3 1985.88,-216.592 1983,-216 1841.12,-186.815 1406.2,-170.429 1237.18,-165.024"/>
<polygon fill="grey" stroke="grey" stroke-width="2" points="1237.26,-161.525 1227.16,-164.706 1237.04,-168.521 1237.26,-161.525"/>
</g>
<!-- 20&#45;&gt;2 -->
<g id="edge20" class="edge"><title>20&#45;&gt;2</title>
<path fill="none" stroke="grey" stroke-width="2" d="M2101.72,-218.216C2098.8,-217.369 2095.87,-216.616 2093,-216 1929.65,-180.97 1422.02,-167.879 1237.19,-164.199"/>
<polygon fill="grey" stroke="grey" stroke-width="2" points="1237.12,-160.697 1227.06,-164 1236.99,-167.695 1237.12,-160.697"/>
</g>
<!-- 21&#45;&gt;2 -->
<g id="edge21" class="edge"><title>21&#45;&gt;2</title>
<path fill="none" stroke="grey" stroke-width="2" d="M334.001,-218.322C337.017,-217.435 340.036,-216.646 343,-216 486.867,-184.637 929.746,-169.523 1100.7,-164.741"/>
<polygon fill="grey" stroke="grey" stroke-width="2" points="1100.93,-168.236 1110.83,-164.461 1100.73,-161.239 1100.93,-168.236"/>
</g>
<!-- 22 -->
<g id="node23" class="node"><title>22</title>
<path fill="none" stroke="#d6d856" stroke-width="2" d="M1860,-257C1860,-257 1776,-257 1776,-257 1770,-257 1764,-251 1764,-245 1764,-245 1764,-228 1764,-228 1764,-222 1770,-216 1776,-216 1776,-216 1860,-216 1860,-216 1866,-216 1872,-222 1872,-228 1872,-228 1872,-245 1872,-245 1872,-251 1866,-257 1860,-257"/>
<text text-anchor="middle" x="1818" y="-245" font-family="sans" font-size="10.00">cluster</text>
<text text-anchor="middle" x="1818" y="-234" font-family="sans" font-size="10.00">rep: 1</text>
<text text-anchor="middle" x="1818" y="-223" font-family="sans" font-size="10.00">sampleref: sample</text>
</g>
<!-- 22&#45;&gt;2 -->
<g id="edge22" class="edge"><title>22&#45;&gt;2</title>
<path fill="none" stroke="grey" stroke-width="2" d="M1763.89,-217.961C1760.9,-217.239 1757.92,-216.577 1755,-216 1570.31,-179.486 1347.82,-168.077 1237.68,-164.551"/>
<polygon fill="grey" stroke="grey" stroke-width="2" points="1237.48,-161.043 1227.38,-164.233 1237.27,-168.04 1237.48,-161.043"/>
</g>
<!-- 23 -->
<g id="node24" class="node"><title>23</title>
<path fill="none" stroke="#d6d856" stroke-width="2" stroke-dasharray="5,2" d="M1029.5,-334C1029.5,-334 934.5,-334 934.5,-334 928.5,-334 922.5,-328 922.5,-322 922.5,-322 922.5,-305 922.5,-305 922.5,-299 928.5,-293 934.5,-293 934.5,-293 1029.5,-293 1029.5,-293 1035.5,-293 1041.5,-299 1041.5,-305 1041.5,-305 1041.5,-322 1041.5,-322 1041.5,-328 1035.5,-334 1029.5,-334"/>
<text text-anchor="middle" x="982" y="-322" font-family="sans" font-size="10.00">cluster</text>
<text text-anchor="middle" x="982" y="-311" font-family="sans" font-size="10.00">rep: 0</text>
<text text-anchor="middle" x="982" y="-300" font-family="sans" font-size="10.00">sampleref: reference</text>
</g>
<!-- 23&#45;&gt;2 -->
<g id="edge23" class="edge"><title>23&#45;&gt;2</title>
<path fill="none" stroke="grey" stroke-width="2" d="M998.267,-292.775C1020.16,-266.356 1057.27,-222.075 1065,-216 1080.66,-203.694 1099.63,-193.025 1117.06,-184.549"/>
<polygon fill="grey" stroke="grey" stroke-width="2" points="1119,-187.503 1126.55,-180.07 1116.01,-181.173 1119,-187.503"/>
</g>
<!-- 23&#45;&gt;3 -->
<g id="edge29" class="edge"><title>23&#45;&gt;3</title>
<path fill="none" stroke="grey" stroke-width="2" d="M951.825,-292.99C937.572,-283.775 920.38,-272.66 905.138,-262.805"/>
<polygon fill="grey" stroke="grey" stroke-width="2" points="906.725,-259.663 896.427,-257.172 902.924,-265.541 906.725,-259.663"/>
</g>
<!-- 23&#45;&gt;6 -->
<g id="edge38" class="edge"><title>23&#45;&gt;6</title>
<path fill="none" stroke="grey" stroke-width="2" d="M922.39,-293.008C892.788,-283.254 856.273,-271.111 815.735,-257.227"/>
<polygon fill="grey" stroke="grey" stroke-width="2" points="816.785,-253.887 806.19,-253.951 814.512,-260.508 816.785,-253.887"/>
</g>
<!-- 23&#45;&gt;15 -->
<g id="edge61" class="edge"><title>23&#45;&gt;15</title>
<path fill="none" stroke="grey" stroke-width="2" d="M979.373,-292.795C978.328,-284.957 977.103,-275.77 975.955,-267.16"/>
<polygon fill="grey" stroke="grey" stroke-width="2" points="979.401,-266.523 974.61,-257.074 972.462,-267.449 979.401,-266.523"/>
</g>
<!-- 23&#45;&gt;16 -->
<g id="edge64" class="edge"><title>23&#45;&gt;16</title>
<path fill="none" stroke="grey" stroke-width="2" d="M1016.86,-292.99C1033.63,-283.603 1053.93,-272.243 1071.77,-262.254"/>
<polygon fill="grey" stroke="grey" stroke-width="2" points="1073.84,-265.111 1080.85,-257.172 1070.42,-259.002 1073.84,-265.111"/>
</g>
<!-- 24&#45;&gt;2 -->
<g id="edge24" class="edge"><title>24&#45;&gt;2</title>
<path fill="none" stroke="grey" stroke-width="2" d="M444.261,-218.12C447.195,-217.323 450.125,-216.605 453,-216 686.959,-166.793 972.27,-161.569 1100.65,-162.044"/>
<polygon fill="grey" stroke="grey" stroke-width="2" points="1100.71,-165.544 1110.73,-162.094 1100.75,-158.544 1100.71,-165.544"/>
</g>
<!-- 25 -->
<g id="node26" class="node"><title>25</title>
<path fill="none" stroke="#d6d856" stroke-width="2" d="M684,-257C684,-257 600,-257 600,-257 594,-257 588,-251 588,-245 588,-245 588,-228 588,-228 588,-222 594,-216 600,-216 600,-216 684,-216 684,-216 690,-216 696,-222 696,-228 696,-228 696,-245 696,-245 696,-251 690,-257 684,-257"/>
<text text-anchor="middle" x="642" y="-245" font-family="sans" font-size="10.00">cluster</text>
<text text-anchor="middle" x="642" y="-234" font-family="sans" font-size="10.00">rep: 1</text>
<text text-anchor="middle" x="642" y="-223" font-family="sans" font-size="10.00">sampleref: sample</text>
</g>
<!-- 25&#45;&gt;2 -->
<g id="edge25" class="edge"><title>25&#45;&gt;2</title>
<path fill="none" stroke="grey" stroke-width="2" d="M696.128,-218.044C699.115,-217.3 702.087,-216.612 705,-216 843.866,-186.844 1009.71,-172.783 1100.75,-166.803"/>
<polygon fill="grey" stroke="grey" stroke-width="2" points="1101.18,-170.283 1110.94,-166.148 1100.74,-163.297 1101.18,-170.283"/>
</g>
<!-- 26 -->
<g id="node27" class="node"><title>26</title>
<path fill="none" stroke="#d6d856" stroke-width="2" stroke-dasharray="5,2" d="M1457.5,-334C1457.5,-334 1362.5,-334 1362.5,-334 1356.5,-334 1350.5,-328 1350.5,-322 1350.5,-322 1350.5,-305 1350.5,-305 1350.5,-299 1356.5,-293 1362.5,-293 1362.5,-293 1457.5,-293 1457.5,-293 1463.5,-293 1469.5,-299 1469.5,-305 1469.5,-305 1469.5,-322 1469.5,-322 1469.5,-328 1463.5,-334 1457.5,-334"/>
<text text-anchor="middle" x="1410" y="-322" font-family="sans" font-size="10.00">cluster</text>
<text text-anchor="middle" x="1410" y="-311" font-family="sans" font-size="10.00">rep: 0</text>
<text text-anchor="middle" x="1410" y="-300" font-family="sans" font-size="10.00">sampleref: reference</text>
</g>
<!-- 26&#45;&gt;2 -->
<g id="edge26" class="edge"><title>26&#45;&gt;2</title>
<path fill="none" stroke="grey" stroke-width="2" d="M1370.42,-292.792C1352.68,-283.121 1331.99,-270.625 1315,-257 1295.62,-241.454 1296.93,-230.833 1277,-216 1260.23,-203.519 1240.06,-192.696 1221.72,-184.142"/>
<polygon fill="grey" stroke="grey" stroke-width="2" points="1223.16,-180.951 1212.61,-180.004 1220.26,-187.325 1223.16,-180.951"/>
</g>
<!-- 26&#45;&gt;8 -->
<g id="edge44" class="edge"><title>26&#45;&gt;8</title>
<path fill="none" stroke="grey" stroke-width="2" d="M1361.1,-292.99C1335.52,-282.785 1304.1,-270.251 1277.59,-259.678"/>
<polygon fill="grey" stroke="grey" stroke-width="2" points="1278.66,-256.335 1268.07,-255.88 1276.06,-262.836 1278.66,-256.335"/>
</g>
<!-- 26&#45;&gt;10 -->
<g id="edge48" class="edge"><title>26&#45;&gt;10</title>
<path fill="none" stroke="grey" stroke-width="2" d="M1398.44,-292.795C1393.59,-284.527 1387.86,-274.757 1382.57,-265.747"/>
<polygon fill="grey" stroke="grey" stroke-width="2" points="1385.56,-263.928 1377.48,-257.074 1379.52,-267.47 1385.56,-263.928"/>
</g>
<!-- 26&#45;&gt;11 -->
<g id="edge51" class="edge"><title>26&#45;&gt;11</title>
<path fill="none" stroke="grey" stroke-width="2" d="M1425.24,-292.795C1431.77,-284.355 1439.5,-274.349 1446.59,-265.184"/>
<polygon fill="grey" stroke="grey" stroke-width="2" points="1449.51,-267.125 1452.86,-257.074 1443.98,-262.843 1449.51,-267.125"/>
</g>
<!-- 26&#45;&gt;13 -->
<g id="edge57" class="edge"><title>26&#45;&gt;13</title>
<path fill="none" stroke="grey" stroke-width="2" d="M1452.66,-292.99C1473.84,-283.306 1499.6,-271.524 1521.93,-261.312"/>
<polygon fill="grey" stroke="grey" stroke-width="2" points="1523.63,-264.384 1531.27,-257.042 1520.72,-258.018 1523.63,-264.384"/>
</g>
<!-- 27 -->
<g id="node28" class="node"><title>27</title>
<path fill="none" stroke="#97d856" stroke-width="2" stroke-dasharray="5,2" d="M772.5,-331.5C772.5,-331.5 649.5,-331.5 649.5,-331.5 643.5,-331.5 637.5,-325.5 637.5,-319.5 637.5,-319.5 637.5,-307.5 637.5,-307.5 637.5,-301.5 643.5,-295.5 649.5,-295.5 649.5,-295.5 772.5,-295.5 772.5,-295.5 778.5,-295.5 784.5,-301.5 784.5,-307.5 784.5,-307.5 784.5,-319.5 784.5,-319.5 784.5,-325.5 778.5,-331.5 772.5,-331.5"/>
<text text-anchor="middle" x="711" y="-311" font-family="sans" font-size="10.00">prep_weighted_subsample</text>
</g>
<!-- 27&#45;&gt;3 -->
<g id="edge27" class="edge"><title>27&#45;&gt;3</title>
<path fill="none" stroke="grey" stroke-width="2" d="M746.172,-295.481C766.897,-285.453 793.447,-272.606 816.287,-261.555"/>
<polygon fill="grey" stroke="grey" stroke-width="2" points="818.014,-264.608 825.491,-257.101 814.965,-258.306 818.014,-264.608"/>
</g>
<!-- 27&#45;&gt;5 -->
<g id="edge33" class="edge"><title>27&#45;&gt;5</title>
<path fill="none" stroke="grey" stroke-width="2" d="M637.448,-305.863C544.692,-297.023 380.469,-279.81 241,-257 229.044,-255.045 216.294,-252.606 204.19,-250.123"/>
<polygon fill="grey" stroke="grey" stroke-width="2" points="204.711,-246.657 194.206,-248.037 203.279,-253.508 204.711,-246.657"/>
</g>
<!-- 27&#45;&gt;6 -->
<g id="edge36" class="edge"><title>27&#45;&gt;6</title>
<path fill="none" stroke="grey" stroke-width="2" d="M722.119,-295.481C727.884,-286.657 735.076,-275.649 741.639,-265.603"/>
<polygon fill="grey" stroke="grey" stroke-width="2" points="744.654,-267.387 747.194,-257.101 738.794,-263.559 744.654,-267.387"/>
</g>
<!-- 27&#45;&gt;9 -->
<g id="edge45" class="edge"><title>27&#45;&gt;9</title>
<path fill="none" stroke="grey" stroke-width="2" d="M666.751,-295.481C640.099,-285.23 605.788,-272.034 576.634,-260.821"/>
<polygon fill="grey" stroke="grey" stroke-width="2" points="577.553,-257.424 566.963,-257.101 575.04,-263.958 577.553,-257.424"/>
</g>
<!-- 27&#45;&gt;12 -->
<g id="edge52" class="edge"><title>27&#45;&gt;12</title>
<path fill="none" stroke="grey" stroke-width="2" d="M637.454,-308.44C500.808,-300.489 211.718,-281.648 93.8796,-256.781"/>
<polygon fill="grey" stroke="grey" stroke-width="2" points="94.5416,-253.343 84.0206,-254.591 93.024,-260.176 94.5416,-253.343"/>
</g>
<!-- 27&#45;&gt;15 -->
<g id="edge59" class="edge"><title>27&#45;&gt;15</title>
<path fill="none" stroke="grey" stroke-width="2" d="M779.581,-295.445C817.395,-285.709 865.336,-272.827 916.038,-257.201"/>
<polygon fill="grey" stroke="grey" stroke-width="2" points="917.362,-260.455 925.874,-254.146 915.285,-253.77 917.362,-260.455"/>
</g>
<!-- 27&#45;&gt;16 -->
<g id="edge62" class="edge"><title>27&#45;&gt;16</title>
<path fill="none" stroke="grey" stroke-width="2" d="M784.591,-300.471C848.738,-289.772 944.209,-273.333 1027,-257 1039,-254.632 1051.88,-251.915 1064,-249.276"/>
<polygon fill="grey" stroke="grey" stroke-width="2" points="1064.95,-252.65 1073.97,-247.087 1063.45,-245.813 1064.95,-252.65"/>
</g>
<!-- 27&#45;&gt;21 -->
<g id="edge73" class="edge"><title>27&#45;&gt;21</title>
<path fill="none" stroke="grey" stroke-width="2" d="M637.44,-306.115C564.74,-298.745 450.46,-284.311 344.016,-256.985"/>
<polygon fill="grey" stroke="grey" stroke-width="2" points="344.631,-253.529 334.071,-254.388 342.862,-260.301 344.631,-253.529"/>
</g>
<!-- 27&#45;&gt;24 -->
<g id="edge78" class="edge"><title>27&#45;&gt;24</title>
<path fill="none" stroke="grey" stroke-width="2" d="M637.261,-299.259C587.756,-289.763 520.988,-275.79 453.963,-257.111"/>
<polygon fill="grey" stroke="grey" stroke-width="2" points="454.649,-253.668 444.075,-254.321 452.748,-260.405 454.649,-253.668"/>
</g>
<!-- 27&#45;&gt;25 -->
<g id="edge81" class="edge"><title>27&#45;&gt;25</title>
<path fill="none" stroke="grey" stroke-width="2" d="M695.343,-295.481C686.978,-286.389 676.481,-274.98 667.017,-264.692"/>
<polygon fill="grey" stroke="grey" stroke-width="2" points="669.38,-262.091 660.033,-257.101 664.228,-266.83 669.38,-262.091"/>
</g>
<!-- 28 -->
<g id="node29" class="node"><title>28</title>
<path fill="none" stroke="#80d856" stroke-width="2" stroke-dasharray="5,2" d="M926.5,-406C926.5,-406 789.5,-406 789.5,-406 783.5,-406 777.5,-400 777.5,-394 777.5,-394 777.5,-382 777.5,-382 777.5,-376 783.5,-370 789.5,-370 789.5,-370 926.5,-370 926.5,-370 932.5,-370 938.5,-376 938.5,-382 938.5,-382 938.5,-394 938.5,-394 938.5,-400 932.5,-406 926.5,-406"/>
<text text-anchor="middle" x="858" y="-385.5" font-family="sans" font-size="10.00">prep_reference_from_dataset</text>
</g>
<!-- 28&#45;&gt;3 -->
<g id="edge28" class="edge"><title>28&#45;&gt;3</title>
<path fill="none" stroke="grey" stroke-width="2" d="M858.918,-369.85C860.254,-344.877 862.755,-298.14 864.399,-267.421"/>
<polygon fill="grey" stroke="grey" stroke-width="2" points="867.902,-267.458 864.941,-257.285 860.912,-267.084 867.902,-267.458"/>
</g>
<!-- 28&#45;&gt;5 -->
<g id="edge34" class="edge"><title>28&#45;&gt;5</title>
<path fill="none" stroke="grey" stroke-width="2" d="M777.33,-384.541C613.549,-378.959 253.496,-363.472 206,-334 181.549,-318.828 166.039,-289.194 157.273,-266.748"/>
<polygon fill="grey" stroke="grey" stroke-width="2" points="160.547,-265.509 153.817,-257.326 153.975,-267.919 160.547,-265.509"/>
</g>
<!-- 28&#45;&gt;6 -->
<g id="edge37" class="edge"><title>28&#45;&gt;6</title>
<path fill="none" stroke="grey" stroke-width="2" d="M846.758,-369.85C830.102,-344.441 798.676,-296.501 778.568,-265.826"/>
<polygon fill="grey" stroke="grey" stroke-width="2" points="781.379,-263.729 772.969,-257.285 775.525,-267.567 781.379,-263.729"/>
</g>
<!-- 28&#45;&gt;12 -->
<g id="edge53" class="edge"><title>28&#45;&gt;12</title>
<path fill="none" stroke="grey" stroke-width="2" d="M777.345,-386.573C619.671,-384.8 276.428,-376.065 167,-334 127.745,-318.91 90.6522,-287.255 67.2251,-264.306"/>
<polygon fill="grey" stroke="grey" stroke-width="2" points="69.659,-261.79 60.1137,-257.192 64.7086,-266.739 69.659,-261.79"/>
</g>
<!-- 28&#45;&gt;15 -->
<g id="edge60" class="edge"><title>28&#45;&gt;15</title>
<path fill="none" stroke="grey" stroke-width="2" d="M866.187,-369.771C875.915,-350.174 893.326,-317.697 913,-293 921.078,-282.86 930.989,-272.826 940.365,-264.136"/>
<polygon fill="grey" stroke="grey" stroke-width="2" points="942.99,-266.482 948.064,-257.181 938.297,-261.288 942.99,-266.482"/>
</g>
<!-- 28&#45;&gt;16 -->
<g id="edge63" class="edge"><title>28&#45;&gt;16</title>
<path fill="none" stroke="grey" stroke-width="2" d="M938.647,-377.605C975.24,-370.266 1017.5,-357.211 1050,-334 1074.03,-316.841 1092.06,-288.022 1103.15,-266.336"/>
<polygon fill="grey" stroke="grey" stroke-width="2" points="1106.35,-267.757 1107.62,-257.238 1100.07,-264.673 1106.35,-267.757"/>
</g>
<!-- 28&#45;&gt;17 -->
<g id="edge65" class="edge"><title>28&#45;&gt;17</title>
<path fill="none" stroke="grey" stroke-width="2" d="M777.474,-381.582C678.309,-374.195 504.948,-358.949 358,-334 353.613,-333.255 349.112,-332.416 344.583,-331.516"/>
<polygon fill="grey" stroke="grey" stroke-width="2" points="345.164,-328.062 334.661,-329.459 343.742,-334.916 345.164,-328.062"/>
</g>
<!-- 28&#45;&gt;21 -->
<g id="edge74" class="edge"><title>28&#45;&gt;21</title>
<path fill="none" stroke="grey" stroke-width="2" d="M777.291,-380.302C707.192,-373.118 603.475,-359.179 516,-334 452.367,-315.684 382.892,-283.737 338.456,-261.646"/>
<polygon fill="grey" stroke="grey" stroke-width="2" points="339.873,-258.442 329.365,-257.091 336.737,-264.7 339.873,-258.442"/>
</g>
<!-- 28&#45;&gt;23 -->
<g id="edge77" class="edge"><title>28&#45;&gt;23</title>
<path fill="none" stroke="grey" stroke-width="2" d="M887.386,-369.819C902.999,-360.69 922.469,-349.306 939.681,-339.243"/>
<polygon fill="grey" stroke="grey" stroke-width="2" points="941.578,-342.188 948.444,-334.12 938.044,-336.145 941.578,-342.188"/>
</g>
<!-- 28&#45;&gt;24 -->
<g id="edge79" class="edge"><title>28&#45;&gt;24</title>
<path fill="none" stroke="grey" stroke-width="2" d="M777.255,-371.915C732.729,-362.721 676.75,-349.717 628,-334 564.38,-313.49 493.857,-282.627 447.888,-261.355"/>
<polygon fill="grey" stroke="grey" stroke-width="2" points="449.291,-258.147 438.747,-257.101 446.337,-264.493 449.291,-258.147"/>
</g>
<!-- 29 -->
<g id="node30" class="node"><title>29</title>
<path fill="none" stroke="#80d856" stroke-width="2" stroke-dasharray="5,2" d="M1564.5,-406C1564.5,-406 1427.5,-406 1427.5,-406 1421.5,-406 1415.5,-400 1415.5,-394 1415.5,-394 1415.5,-382 1415.5,-382 1415.5,-376 1421.5,-370 1427.5,-370 1427.5,-370 1564.5,-370 1564.5,-370 1570.5,-370 1576.5,-376 1576.5,-382 1576.5,-382 1576.5,-394 1576.5,-394 1576.5,-400 1570.5,-406 1564.5,-406"/>
<text text-anchor="middle" x="1496" y="-385.5" font-family="sans" font-size="10.00">prep_reference_from_dataset</text>
</g>
<!-- 29&#45;&gt;4 -->
<g id="edge30" class="edge"><title>29&#45;&gt;4</title>
<path fill="none" stroke="grey" stroke-width="2" d="M1576.64,-372.623C1621.04,-363.643 1676.77,-350.618 1725,-334 1782.68,-314.125 1845.8,-283.282 1886.99,-261.834"/>
<polygon fill="grey" stroke="grey" stroke-width="2" points="1888.71,-264.881 1895.94,-257.138 1885.46,-258.682 1888.71,-264.881"/>
</g>
<!-- 29&#45;&gt;7 -->
<g id="edge39" class="edge"><title>29&#45;&gt;7</title>
<path fill="none" stroke="grey" stroke-width="2" d="M1576.72,-385.58C1727.05,-382.091 2044,-370.518 2147,-334 2190.07,-318.729 2232.37,-286.889 2259.22,-263.953"/>
<polygon fill="grey" stroke="grey" stroke-width="2" points="2261.8,-266.353 2267.05,-257.149 2257.2,-261.072 2261.8,-266.353"/>
</g>
<!-- 29&#45;&gt;8 -->
<g id="edge42" class="edge"><title>29&#45;&gt;8</title>
<path fill="none" stroke="grey" stroke-width="2" d="M1419.66,-369.883C1390.46,-361.508 1357.58,-349.76 1330,-334 1297.72,-315.557 1266.71,-286.231 1246.26,-264.744"/>
<polygon fill="grey" stroke="grey" stroke-width="2" points="1248.61,-262.131 1239.22,-257.217 1243.5,-266.911 1248.61,-262.131"/>
</g>
<!-- 29&#45;&gt;10 -->
<g id="edge46" class="edge"><title>29&#45;&gt;10</title>
<path fill="none" stroke="grey" stroke-width="2" d="M1415.15,-378.581C1387.01,-371.319 1358.2,-358.061 1341,-334 1326.77,-314.099 1335.88,-286.755 1346.89,-266.254"/>
<polygon fill="grey" stroke="grey" stroke-width="2" points="1350.05,-267.78 1352,-257.367 1343.98,-264.288 1350.05,-267.78"/>
</g>
<!-- 29&#45;&gt;11 -->
<g id="edge49" class="edge"><title>29&#45;&gt;11</title>
<path fill="none" stroke="grey" stroke-width="2" d="M1492.79,-369.85C1488.11,-344.877 1479.36,-298.14 1473.6,-267.421"/>
<polygon fill="grey" stroke="grey" stroke-width="2" points="1476.99,-266.47 1471.71,-257.285 1470.11,-267.758 1476.99,-266.47"/>
</g>
<!-- 29&#45;&gt;13 -->
<g id="edge55" class="edge"><title>29&#45;&gt;13</title>
<path fill="none" stroke="grey" stroke-width="2" d="M1504.95,-369.85C1518.15,-344.55 1543,-296.912 1559.01,-266.222"/>
<polygon fill="grey" stroke="grey" stroke-width="2" points="1562.15,-267.77 1563.68,-257.285 1555.95,-264.532 1562.15,-267.77"/>
</g>
<!-- 29&#45;&gt;18 -->
<g id="edge66" class="edge"><title>29&#45;&gt;18</title>
<path fill="none" stroke="grey" stroke-width="2" d="M1576.62,-380.641C1673.64,-372.436 1841.31,-356.495 1984,-334 1991.96,-332.745 2000.26,-331.269 2008.5,-329.7"/>
<polygon fill="grey" stroke="grey" stroke-width="2" points="2009.34,-333.101 2018.49,-327.748 2008,-326.231 2009.34,-333.101"/>
</g>
<!-- 29&#45;&gt;19 -->
<g id="edge67" class="edge"><title>29&#45;&gt;19</title>
<path fill="none" stroke="grey" stroke-width="2" d="M1576.52,-376.661C1635.92,-368.018 1718.34,-353.886 1789,-334 1858.6,-314.413 1935.8,-282.879 1985.52,-261.222"/>
<polygon fill="grey" stroke="grey" stroke-width="2" points="1987.03,-264.384 1994.78,-257.164 1984.22,-257.972 1987.03,-264.384"/>
</g>
<!-- 29&#45;&gt;20 -->
<g id="edge70" class="edge"><title>29&#45;&gt;20</title>
<path fill="none" stroke="grey" stroke-width="2" d="M1576.74,-379.48C1651.42,-371.544 1765.17,-356.957 1862,-334 1964.22,-309.767 1989.64,-294.366 2092.25,-257.238"/>
<polygon fill="grey" stroke="grey" stroke-width="2" points="2093.53,-260.496 2101.75,-253.816 2091.16,-253.91 2093.53,-260.496"/>
</g>
<!-- 29&#45;&gt;26 -->
<g id="edge82" class="edge"><title>29&#45;&gt;26</title>
<path fill="none" stroke="grey" stroke-width="2" d="M1475.62,-369.819C1465.29,-361.109 1452.52,-350.346 1441,-340.636"/>
<polygon fill="grey" stroke="grey" stroke-width="2" points="1443.17,-337.889 1433.27,-334.12 1438.66,-343.241 1443.17,-337.889"/>
</g>
<!-- 30 -->
<g id="node31" class="node"><title>30</title>
<path fill="none" stroke="#97d856" stroke-width="2" stroke-dasharray="5,2" d="M1704.5,-331.5C1704.5,-331.5 1581.5,-331.5 1581.5,-331.5 1575.5,-331.5 1569.5,-325.5 1569.5,-319.5 1569.5,-319.5 1569.5,-307.5 1569.5,-307.5 1569.5,-301.5 1575.5,-295.5 1581.5,-295.5 1581.5,-295.5 1704.5,-295.5 1704.5,-295.5 1710.5,-295.5 1716.5,-301.5 1716.5,-307.5 1716.5,-307.5 1716.5,-319.5 1716.5,-319.5 1716.5,-325.5 1710.5,-331.5 1704.5,-331.5"/>
<text text-anchor="middle" x="1643" y="-311" font-family="sans" font-size="10.00">prep_weighted_subsample</text>
</g>
<!-- 30&#45;&gt;4 -->
<g id="edge31" class="edge"><title>30&#45;&gt;4</title>
<path fill="none" stroke="grey" stroke-width="2" d="M1716.6,-298.042C1761.57,-288.579 1820.31,-275.1 1880.23,-257.057"/>
<polygon fill="grey" stroke="grey" stroke-width="2" points="1881.31,-260.387 1889.85,-254.122 1879.27,-253.691 1881.31,-260.387"/>
</g>
<!-- 30&#45;&gt;7 -->
<g id="edge40" class="edge"><title>30&#45;&gt;7</title>
<path fill="none" stroke="grey" stroke-width="2" d="M1716.53,-307.609C1822.63,-299.986 2024.62,-283.351 2195,-257 2206.97,-255.148 2219.73,-252.754 2231.83,-250.282"/>
<polygon fill="grey" stroke="grey" stroke-width="2" points="2232.75,-253.667 2241.82,-248.196 2231.31,-246.815 2232.75,-253.667"/>
</g>
<!-- 30&#45;&gt;8 -->
<g id="edge43" class="edge"><title>30&#45;&gt;8</title>
<path fill="none" stroke="grey" stroke-width="2" d="M1569.25,-300.866C1502.68,-290.163 1402.1,-273.495 1315,-257 1303.1,-254.746 1290.37,-252.18 1278.27,-249.668"/>
<polygon fill="grey" stroke="grey" stroke-width="2" points="1278.79,-246.201 1268.29,-247.577 1277.36,-253.052 1278.79,-246.201"/>
</g>
<!-- 30&#45;&gt;10 -->
<g id="edge47" class="edge"><title>30&#45;&gt;10</title>
<path fill="none" stroke="grey" stroke-width="2" d="M1569.34,-296.848C1527.28,-287.343 1473.49,-274.231 1417.83,-257.097"/>
<polygon fill="grey" stroke="grey" stroke-width="2" points="1418.75,-253.716 1408.16,-254.083 1416.67,-260.399 1418.75,-253.716"/>
</g>
<!-- 30&#45;&gt;11 -->
<g id="edge50" class="edge"><title>30&#45;&gt;11</title>
<path fill="none" stroke="grey" stroke-width="2" d="M1603.29,-295.481C1578.48,-284.85 1546.28,-271.05 1519.52,-259.58"/>
<polygon fill="grey" stroke="grey" stroke-width="2" points="1520.87,-256.351 1510.3,-255.629 1518.11,-262.786 1520.87,-256.351"/>
</g>
<!-- 30&#45;&gt;13 -->
<g id="edge56" class="edge"><title>30&#45;&gt;13</title>
<path fill="none" stroke="grey" stroke-width="2" d="M1627.34,-295.481C1618.98,-286.389 1608.48,-274.98 1599.02,-264.692"/>
<polygon fill="grey" stroke="grey" stroke-width="2" points="1601.38,-262.091 1592.03,-257.101 1596.23,-266.83 1601.38,-262.091"/>
</g>
<!-- 30&#45;&gt;14 -->
<g id="edge58" class="edge"><title>30&#45;&gt;14</title>
<path fill="none" stroke="grey" stroke-width="2" d="M1654.12,-295.481C1659.88,-286.657 1667.08,-275.649 1673.64,-265.603"/>
<polygon fill="grey" stroke="grey" stroke-width="2" points="1676.65,-267.387 1679.19,-257.101 1670.79,-263.559 1676.65,-267.387"/>
</g>
<!-- 30&#45;&gt;19 -->
<g id="edge68" class="edge"><title>30&#45;&gt;19</title>
<path fill="none" stroke="grey" stroke-width="2" d="M1716.74,-304.329C1783.84,-296.018 1885.6,-281.221 1982.05,-257.02"/>
<polygon fill="grey" stroke="grey" stroke-width="2" points="1983.15,-260.353 1991.97,-254.493 1981.42,-253.57 1983.15,-260.353"/>
</g>
<!-- 30&#45;&gt;20 -->
<g id="edge71" class="edge"><title>30&#45;&gt;20</title>
<path fill="none" stroke="grey" stroke-width="2" d="M1716.87,-308.886C1804.74,-303.365 1955.67,-290.016 2092.15,-256.898"/>
<polygon fill="grey" stroke="grey" stroke-width="2" points="2093.08,-260.273 2101.95,-254.479 2091.41,-253.477 2093.08,-260.273"/>
</g>
<!-- 30&#45;&gt;22 -->
<g id="edge76" class="edge"><title>30&#45;&gt;22</title>
<path fill="none" stroke="grey" stroke-width="2" d="M1682.71,-295.481C1706.42,-285.319 1736.89,-272.263 1762.9,-261.114"/>
<polygon fill="grey" stroke="grey" stroke-width="2" points="1764.45,-264.258 1772.26,-257.101 1761.69,-257.824 1764.45,-264.258"/>
</g>
<!-- 31 -->
<g id="node32" class="node"><title>31</title>
<path fill="none" stroke="#56d8c1" stroke-width="2" stroke-dasharray="5,2" d="M1248.5,-643C1248.5,-643 1147.5,-643 1147.5,-643 1141.5,-643 1135.5,-637 1135.5,-631 1135.5,-631 1135.5,-614 1135.5,-614 1135.5,-608 1141.5,-602 1147.5,-602 1147.5,-602 1248.5,-602 1248.5,-602 1254.5,-602 1260.5,-608 1260.5,-614 1260.5,-614 1260.5,-631 1260.5,-631 1260.5,-637 1254.5,-643 1248.5,-643"/>
<text text-anchor="middle" x="1198" y="-631" font-family="sans" font-size="10.00">subset</text>
<text text-anchor="middle" x="1198" y="-620" font-family="sans" font-size="10.00">dataset: soil</text>
<text text-anchor="middle" x="1198" y="-609" font-family="sans" font-size="10.00">subsample_size: 1000</text>
</g>
<!-- 31&#45;&gt;27 -->
<g id="edge83" class="edge"><title>31&#45;&gt;27</title>
<path fill="none" stroke="grey" stroke-width="2" d="M1135.17,-612.175C1088.72,-603.842 1024.65,-589.283 972,-566 855.429,-514.454 807.288,-510.281 734,-406 720.65,-387.004 715.032,-360.991 712.677,-341.556"/>
<polygon fill="grey" stroke="grey" stroke-width="2" points="716.152,-341.125 711.676,-331.522 709.186,-341.82 716.152,-341.125"/>
</g>
<!-- 31&#45;&gt;28 -->
<g id="edge86" class="edge"><title>31&#45;&gt;28</title>
<path fill="none" stroke="grey" stroke-width="2" d="M1135.34,-603.762C1075.7,-584.428 986.084,-548.736 924,-494 899.128,-472.072 880.296,-438.529 869.238,-415.28"/>
<polygon fill="grey" stroke="grey" stroke-width="2" points="872.335,-413.637 864.98,-406.011 865.974,-416.559 872.335,-413.637"/>
</g>
<!-- 31&#45;&gt;29 -->
<g id="edge89" class="edge"><title>31&#45;&gt;29</title>
<path fill="none" stroke="grey" stroke-width="2" d="M1224.18,-601.78C1236.1,-591.927 1249.79,-579.286 1260,-566 1297.67,-516.991 1275.68,-481.776 1323,-442 1346.33,-422.388 1376.83,-410.028 1405.71,-402.242"/>
<polygon fill="grey" stroke="grey" stroke-width="2" points="1406.6,-405.627 1415.43,-399.772 1404.88,-398.842 1406.6,-405.627"/>
</g>
<!-- 31&#45;&gt;30 -->
<g id="edge92" class="edge"><title>31&#45;&gt;30</title>
<path fill="none" stroke="grey" stroke-width="2" d="M1260.78,-607.773C1354.01,-583.905 1527.41,-525.439 1615,-406 1628.93,-387.01 1636.01,-360.997 1639.57,-341.56"/>
<polygon fill="grey" stroke="grey" stroke-width="2" points="1643.05,-341.957 1641.2,-331.524 1636.14,-340.833 1643.05,-341.957"/>
</g>
<!-- 32 -->
<g id="node33" class="node"><title>32</title>
<path fill="none" stroke="#c6d856" stroke-width="2" stroke-dasharray="5,2" d="M1239,-566C1239,-566 1157,-566 1157,-566 1151,-566 1145,-560 1145,-554 1145,-554 1145,-542 1145,-542 1145,-536 1151,-530 1157,-530 1157,-530 1239,-530 1239,-530 1245,-530 1251,-536 1251,-542 1251,-542 1251,-554 1251,-554 1251,-560 1245,-566 1239,-566"/>
<text text-anchor="middle" x="1198" y="-551" font-family="sans" font-size="10.00">calc_seq_dists</text>
<text text-anchor="middle" x="1198" y="-540" font-family="sans" font-size="10.00">dataset: soil_1000</text>
</g>
<!-- 31&#45;&gt;32 -->
<g id="edge95" class="edge"><title>31&#45;&gt;32</title>
<path fill="none" stroke="grey" stroke-width="2" d="M1198,-601.689C1198,-593.907 1198,-584.842 1198,-576.447"/>
<polygon fill="grey" stroke="grey" stroke-width="2" points="1201.5,-576.319 1198,-566.319 1194.5,-576.32 1201.5,-576.319"/>
</g>
<!-- 33 -->
<g id="node34" class="node"><title>33</title>
<path fill="none" stroke="#d8ac56" stroke-width="2" stroke-dasharray="5,2" d="M1067,-494C1067,-494 945,-494 945,-494 939,-494 933,-488 933,-482 933,-482 933,-454 933,-454 933,-448 939,-442 945,-442 945,-442 1067,-442 1067,-442 1073,-442 1079,-448 1079,-454 1079,-454 1079,-482 1079,-482 1079,-488 1073,-494 1067,-494"/>
<text text-anchor="middle" x="1006" y="-482" font-family="sans" font-size="10.00">split_weighted_subsample</text>
<text text-anchor="middle" x="1006" y="-471" font-family="sans" font-size="10.00">iter: 0</text>
<text text-anchor="middle" x="1006" y="-460" font-family="sans" font-size="10.00">reference_fraction: 0.5</text>
<text text-anchor="middle" x="1006" y="-449" font-family="sans" font-size="10.00">weight: sample&#45;dists</text>
</g>
<!-- 31&#45;&gt;33 -->
<g id="edge96" class="edge"><title>31&#45;&gt;33</title>
<path fill="none" stroke="grey" stroke-width="2" d="M1173.29,-601.875C1140.95,-576.19 1083.89,-530.866 1045.52,-500.386"/>
<polygon fill="grey" stroke="grey" stroke-width="2" points="1047.63,-497.598 1037.63,-494.12 1043.28,-503.08 1047.63,-497.598"/>
</g>
<!-- 34 -->
<g id="node35" class="node"><title>34</title>
<path fill="none" stroke="#d8ac56" stroke-width="2" stroke-dasharray="5,2" d="M1466,-494C1466,-494 1344,-494 1344,-494 1338,-494 1332,-488 1332,-482 1332,-482 1332,-454 1332,-454 1332,-448 1338,-442 1344,-442 1344,-442 1466,-442 1466,-442 1472,-442 1478,-448 1478,-454 1478,-454 1478,-482 1478,-482 1478,-488 1472,-494 1466,-494"/>
<text text-anchor="middle" x="1405" y="-482" font-family="sans" font-size="10.00">split_weighted_subsample</text>
<text text-anchor="middle" x="1405" y="-471" font-family="sans" font-size="10.00">iter: 1</text>
<text text-anchor="middle" x="1405" y="-460" font-family="sans" font-size="10.00">reference_fraction: 0.5</text>
<text text-anchor="middle" x="1405" y="-449" font-family="sans" font-size="10.00">weight: sample&#45;dists</text>
</g>
<!-- 31&#45;&gt;34 -->
<g id="edge98" class="edge"><title>31&#45;&gt;34</title>
<path fill="none" stroke="grey" stroke-width="2" d="M1251.46,-601.946C1272.91,-592.768 1297.18,-580.608 1317,-566 1341.29,-548.095 1364.05,-522.685 1380.33,-502.364"/>
<polygon fill="grey" stroke="grey" stroke-width="2" points="1383.25,-504.312 1386.68,-494.287 1377.75,-499.986 1383.25,-504.312"/>
</g>
<!-- 32&#45;&gt;27 -->
<g id="edge84" class="edge"><title>32&#45;&gt;27</title>
<path fill="none" stroke="grey" stroke-width="2" d="M1191.79,-529.692C1182.69,-506.659 1163.66,-466.048 1135,-442 1037.23,-359.974 887.941,-330.716 795.078,-320.281"/>
<polygon fill="grey" stroke="grey" stroke-width="2" points="795.195,-316.774 784.878,-319.185 794.447,-323.733 795.195,-316.774"/>
</g>
<!-- 32&#45;&gt;28 -->
<g id="edge87" class="edge"><title>32&#45;&gt;28</title>
<path fill="none" stroke="grey" stroke-width="2" d="M1185.11,-529.906C1166.39,-506.349 1129.37,-464.295 1088,-442 1045.25,-418.959 992.785,-405.893 948.765,-398.504"/>
<polygon fill="grey" stroke="grey" stroke-width="2" points="949.069,-395.008 938.64,-396.878 947.959,-401.919 949.069,-395.008"/>
</g>
<!-- 32&#45;&gt;29 -->
<g id="edge90" class="edge"><title>32&#45;&gt;29</title>
<path fill="none" stroke="grey" stroke-width="2" d="M1208.02,-529.985C1222.75,-506.522 1252.48,-464.578 1289,-442 1323.9,-420.423 1367.29,-407.597 1405.32,-399.989"/>
<polygon fill="grey" stroke="grey" stroke-width="2" points="1406.2,-403.382 1415.37,-398.071 1404.89,-396.506 1406.2,-403.382"/>
</g>
<!-- 32&#45;&gt;30 -->
<g id="edge93" class="edge"><title>32&#45;&gt;30</title>
<path fill="none" stroke="grey" stroke-width="2" d="M1199.18,-529.904C1201.63,-507.111 1209.12,-466.771 1232,-442 1276.38,-393.955 1452.33,-351.985 1559.11,-330.257"/>
<polygon fill="grey" stroke="grey" stroke-width="2" points="1560.11,-333.625 1569.22,-328.217 1558.72,-326.764 1560.11,-333.625"/>
</g>
<!-- 32&#45;&gt;33 -->
<g id="edge97" class="edge"><title>32&#45;&gt;33</title>
<path fill="none" stroke="grey" stroke-width="2" d="M1155.86,-529.883C1132.86,-520.537 1103.75,-508.712 1077.32,-497.975"/>
<polygon fill="grey" stroke="grey" stroke-width="2" points="1078.3,-494.596 1067.72,-494.075 1075.67,-501.081 1078.3,-494.596"/>
</g>
<!-- 32&#45;&gt;34 -->
<g id="edge99" class="edge"><title>32&#45;&gt;34</title>
<path fill="none" stroke="grey" stroke-width="2" d="M1243.17,-529.979C1268.18,-520.555 1299.94,-508.589 1328.68,-497.758"/>
<polygon fill="grey" stroke="grey" stroke-width="2" points="1330.18,-500.934 1338.3,-494.133 1327.71,-494.384 1330.18,-500.934"/>
</g>
<!-- 33&#45;&gt;27 -->
<g id="edge85" class="edge"><title>33&#45;&gt;27</title>
<path fill="none" stroke="grey" stroke-width="2" d="M932.816,-462.448C882.36,-456.12 816,-441.166 768,-406 745.713,-389.672 730.176,-361.749 721.015,-341.033"/>
<polygon fill="grey" stroke="grey" stroke-width="2" points="724.239,-339.673 717.14,-331.808 717.785,-342.383 724.239,-339.673"/>
</g>
<!-- 33&#45;&gt;28 -->
<g id="edge88" class="edge"><title>33&#45;&gt;28</title>
<path fill="none" stroke="grey" stroke-width="2" d="M958.357,-441.891C939.418,-431.909 917.828,-420.531 899.538,-410.892"/>
<polygon fill="grey" stroke="grey" stroke-width="2" points="901.058,-407.736 890.579,-406.17 897.794,-413.929 901.058,-407.736"/>
</g>
<!-- 34&#45;&gt;29 -->
<g id="edge91" class="edge"><title>34&#45;&gt;29</title>
<path fill="none" stroke="grey" stroke-width="2" d="M1434.29,-441.891C1445.14,-432.593 1457.4,-422.083 1468.12,-412.896"/>
<polygon fill="grey" stroke="grey" stroke-width="2" points="1470.65,-415.336 1475.97,-406.17 1466.1,-410.021 1470.65,-415.336"/>
</g>
<!-- 34&#45;&gt;30 -->
<g id="edge94" class="edge"><title>34&#45;&gt;30</title>
<path fill="none" stroke="grey" stroke-width="2" d="M1478.4,-454.026C1513.41,-445.031 1554.26,-430.167 1585,-406 1606.6,-389.017 1622.44,-361.619 1632.05,-341.223"/>
<polygon fill="grey" stroke="grey" stroke-width="2" points="1635.36,-342.405 1636.27,-331.85 1628.97,-339.532 1635.36,-342.405"/>
</g>
</g>
</svg>
