<?xml version="1.0" encoding="UTF-8" standalone="no"?>
<!DOCTYPE svg PUBLIC "-//W3C//DTD SVG 1.1//EN"
 "http://www.w3.org/Graphics/SVG/1.1/DTD/svg11.dtd">
<!-- Generated by graphviz version 2.38.0 (20140413.2041)
 -->
<!-- Title: snakemake_dag Pages: 1 -->
<svg width="2327pt" height="651pt"
 viewBox="0.00 0.00 2326.87 651.00" xmlns="http://www.w3.org/2000/svg" xmlns:xlink="http://www.w3.org/1999/xlink">
<g id="graph0" class="graph" transform="scale(1 1) rotate(0) translate(4 647)">
<title>snakemake_dag</title>
<polygon fill="white" stroke="none" points="-4,4 -4,-647 2322.87,-647 2322.87,4 -4,4"/>
<!-- 0 -->
<g id="node1" class="node"><title>0</title>
<path fill="none" stroke="#56d89a" stroke-width="2" d="M1180,-36C1180,-36 1150,-36 1150,-36 1144,-36 1138,-30 1138,-24 1138,-24 1138,-12 1138,-12 1138,-6 1144,-0 1150,-0 1150,-0 1180,-0 1180,-0 1186,-0 1192,-6 1192,-12 1192,-12 1192,-24 1192,-24 1192,-30 1186,-36 1180,-36"/>
<text text-anchor="middle" x="1165" y="-15.5" font-family="sans" font-size="10.00">all</text>
</g>
<!-- 1 -->
<g id="node2" class="node"><title>1</title>
<path fill="none" stroke="#80d856" stroke-width="2" d="M1196,-108C1196,-108 1134,-108 1134,-108 1128,-108 1122,-102 1122,-96 1122,-96 1122,-84 1122,-84 1122,-78 1128,-72 1134,-72 1134,-72 1196,-72 1196,-72 1202,-72 1208,-78 1208,-84 1208,-84 1208,-96 1208,-96 1208,-102 1202,-108 1196,-108"/>
<text text-anchor="middle" x="1165" y="-87.5" font-family="sans" font-size="10.00">plot_sensspec</text>
</g>
<!-- 1&#45;&gt;0 -->
<g id="edge1" class="edge"><title>1&#45;&gt;0</title>
<path fill="none" stroke="grey" stroke-width="2" d="M1165,-71.6966C1165,-63.9827 1165,-54.7125 1165,-46.1124"/>
<polygon fill="grey" stroke="grey" stroke-width="2" points="1168.5,-46.1043 1165,-36.1043 1161.5,-46.1044 1168.5,-46.1043"/>
</g>
<!-- 2 -->
<g id="node3" class="node"><title>2</title>
<path fill="none" stroke="#56d8d8" stroke-width="2" d="M1211,-180C1211,-180 1119,-180 1119,-180 1113,-180 1107,-174 1107,-168 1107,-168 1107,-156 1107,-156 1107,-150 1113,-144 1119,-144 1119,-144 1211,-144 1211,-144 1217,-144 1223,-150 1223,-156 1223,-156 1223,-168 1223,-168 1223,-174 1217,-180 1211,-180"/>
<text text-anchor="middle" x="1165" y="-159.5" font-family="sans" font-size="10.00">aggregate_sensspec</text>
</g>
<!-- 2&#45;&gt;1 -->
<g id="edge2" class="edge"><title>2&#45;&gt;1</title>
<path fill="none" stroke="grey" stroke-width="2" d="M1165,-143.697C1165,-135.983 1165,-126.712 1165,-118.112"/>
<polygon fill="grey" stroke="grey" stroke-width="2" points="1168.5,-118.104 1165,-108.104 1161.5,-118.104 1168.5,-118.104"/>
</g>
<!-- 3 -->
<g id="node4" class="node"><title>3</title>
<path fill="none" stroke="#d86e56" stroke-width="2" d="M660,-257C660,-257 600,-257 600,-257 594,-257 588,-251 588,-245 588,-245 588,-228 588,-228 588,-222 594,-216 600,-216 600,-216 660,-216 660,-216 666,-216 672,-222 672,-228 672,-228 672,-245 672,-245 672,-251 666,-257 660,-257"/>
<text text-anchor="middle" x="630" y="-245" font-family="sans" font-size="10.00">fit</text>
<text text-anchor="middle" x="630" y="-234" font-family="sans" font-size="10.00">method: open</text>
<text text-anchor="middle" x="630" y="-223" font-family="sans" font-size="10.00">printref: t</text>
</g>
<!-- 3&#45;&gt;2 -->
<g id="edge3" class="edge"><title>3&#45;&gt;2</title>
<path fill="none" stroke="grey" stroke-width="2" d="M672.036,-218.475C675.043,-217.552 678.052,-216.713 681,-216 826.471,-180.842 1002.23,-168.964 1096.8,-164.982"/>
<polygon fill="grey" stroke="grey" stroke-width="2" points="1096.96,-168.478 1106.81,-164.577 1096.68,-161.484 1096.96,-168.478"/>
</g>
<!-- 4 -->
<g id="node5" class="node"><title>4</title>
<path fill="none" stroke="#d86e56" stroke-width="2" d="M896,-257C896,-257 828,-257 828,-257 822,-257 816,-251 816,-245 816,-245 816,-228 816,-228 816,-222 822,-216 828,-216 828,-216 896,-216 896,-216 902,-216 908,-222 908,-228 908,-228 908,-245 908,-245 908,-251 902,-257 896,-257"/>
<text text-anchor="middle" x="862" y="-245" font-family="sans" font-size="10.00">fit</text>
<text text-anchor="middle" x="862" y="-234" font-family="sans" font-size="10.00">method: closed</text>
<text text-anchor="middle" x="862" y="-223" font-family="sans" font-size="10.00">printref: f</text>
</g>
<!-- 4&#45;&gt;2 -->
<g id="edge4" class="edge"><title>4&#45;&gt;2</title>
<path fill="none" stroke="grey" stroke-width="2" d="M908.049,-220.023C912.742,-218.599 917.454,-217.231 922,-216 980.487,-200.16 1047.87,-185.76 1096.82,-175.981"/>
<polygon fill="grey" stroke="grey" stroke-width="2" points="1097.54,-179.407 1106.67,-174.027 1096.18,-172.54 1097.54,-179.407"/>
</g>
<!-- 5 -->
<g id="node6" class="node"><title>5</title>
<path fill="none" stroke="#d86e56" stroke-width="2" d="M1036,-257C1036,-257 976,-257 976,-257 970,-257 964,-251 964,-245 964,-245 964,-228 964,-228 964,-222 970,-216 976,-216 976,-216 1036,-216 1036,-216 1042,-216 1048,-222 1048,-228 1048,-228 1048,-245 1048,-245 1048,-251 1042,-257 1036,-257"/>
<text text-anchor="middle" x="1006" y="-245" font-family="sans" font-size="10.00">fit</text>
<text text-anchor="middle" x="1006" y="-234" font-family="sans" font-size="10.00">method: open</text>
<text text-anchor="middle" x="1006" y="-223" font-family="sans" font-size="10.00">printref: f</text>
</g>
<!-- 5&#45;&gt;2 -->
<g id="edge5" class="edge"><title>5&#45;&gt;2</title>
<path fill="none" stroke="grey" stroke-width="2" d="M1048.19,-216.262C1069.77,-206.424 1096.08,-194.425 1118.27,-184.309"/>
<polygon fill="grey" stroke="grey" stroke-width="2" points="1119.85,-187.433 1127.5,-180.1 1116.95,-181.064 1119.85,-187.433"/>
</g>
<!-- 6 -->
<g id="node7" class="node"><title>6</title>
<path fill="none" stroke="#d86e56" stroke-width="2" d="M1358,-257C1358,-257 1290,-257 1290,-257 1284,-257 1278,-251 1278,-245 1278,-245 1278,-228 1278,-228 1278,-222 1284,-216 1290,-216 1290,-216 1358,-216 1358,-216 1364,-216 1370,-222 1370,-228 1370,-228 1370,-245 1370,-245 1370,-251 1364,-257 1358,-257"/>
<text text-anchor="middle" x="1324" y="-245" font-family="sans" font-size="10.00">fit</text>
<text text-anchor="middle" x="1324" y="-234" font-family="sans" font-size="10.00">method: closed</text>
<text text-anchor="middle" x="1324" y="-223" font-family="sans" font-size="10.00">printref: t</text>
</g>
<!-- 6&#45;&gt;2 -->
<g id="edge6" class="edge"><title>6&#45;&gt;2</title>
<path fill="none" stroke="grey" stroke-width="2" d="M1280.97,-215.88C1259.49,-206.083 1233.46,-194.217 1211.51,-184.209"/>
<polygon fill="grey" stroke="grey" stroke-width="2" points="1212.93,-181.01 1202.38,-180.046 1210.03,-187.379 1212.93,-181.01"/>
</g>
<!-- 7 -->
<g id="node8" class="node"><title>7</title>
<path fill="none" stroke="#56c1d8" stroke-width="2" stroke-dasharray="5,2" d="M2089.5,-334C2089.5,-334 1994.5,-334 1994.5,-334 1988.5,-334 1982.5,-328 1982.5,-322 1982.5,-322 1982.5,-305 1982.5,-305 1982.5,-299 1988.5,-293 1994.5,-293 1994.5,-293 2089.5,-293 2089.5,-293 2095.5,-293 2101.5,-299 2101.5,-305 2101.5,-305 2101.5,-322 2101.5,-322 2101.5,-328 2095.5,-334 2089.5,-334"/>
<text text-anchor="middle" x="2042" y="-322" font-family="sans" font-size="10.00">cluster</text>
<text text-anchor="middle" x="2042" y="-311" font-family="sans" font-size="10.00">rep: 0</text>
<text text-anchor="middle" x="2042" y="-300" font-family="sans" font-size="10.00">sampleref: reference</text>
</g>
<!-- 7&#45;&gt;2 -->
<g id="edge7" class="edge"><title>7&#45;&gt;2</title>
<path fill="none" stroke="grey" stroke-width="2" d="M2101.56,-309.665C2197.16,-303.124 2368.05,-282.052 2305,-216 2267.87,-177.102 1473.62,-166.06 1233.29,-163.604"/>
<polygon fill="grey" stroke="grey" stroke-width="2" points="1233.32,-160.104 1223.28,-163.504 1233.25,-167.104 1233.32,-160.104"/>
</g>
<!-- 15 -->
<g id="node16" class="node"><title>15</title>
<path fill="none" stroke="#d86e56" stroke-width="2" stroke-dasharray="5,2" d="M1962,-257C1962,-257 1902,-257 1902,-257 1896,-257 1890,-251 1890,-245 1890,-245 1890,-228 1890,-228 1890,-222 1896,-216 1902,-216 1902,-216 1962,-216 1962,-216 1968,-216 1974,-222 1974,-228 1974,-228 1974,-245 1974,-245 1974,-251 1968,-257 1962,-257"/>
<text text-anchor="middle" x="1932" y="-245" font-family="sans" font-size="10.00">fit</text>
<text text-anchor="middle" x="1932" y="-234" font-family="sans" font-size="10.00">method: open</text>
<text text-anchor="middle" x="1932" y="-223" font-family="sans" font-size="10.00">printref: t</text>
</g>
<!-- 7&#45;&gt;15 -->
<g id="edge58" class="edge"><title>7&#45;&gt;15</title>
<path fill="none" stroke="grey" stroke-width="2" d="M2013.39,-292.99C2000,-283.861 1983.87,-272.867 1969.52,-263.082"/>
<polygon fill="grey" stroke="grey" stroke-width="2" points="1971.09,-259.914 1960.85,-257.172 1967.14,-265.698 1971.09,-259.914"/>
</g>
<!-- 16 -->
<g id="node17" class="node"><title>16</title>
<path fill="none" stroke="#d86e56" stroke-width="2" d="M2072,-257C2072,-257 2004,-257 2004,-257 1998,-257 1992,-251 1992,-245 1992,-245 1992,-228 1992,-228 1992,-222 1998,-216 2004,-216 2004,-216 2072,-216 2072,-216 2078,-216 2084,-222 2084,-228 2084,-228 2084,-245 2084,-245 2084,-251 2078,-257 2072,-257"/>
<text text-anchor="middle" x="2038" y="-245" font-family="sans" font-size="10.00">fit</text>
<text text-anchor="middle" x="2038" y="-234" font-family="sans" font-size="10.00">method: closed</text>
<text text-anchor="middle" x="2038" y="-223" font-family="sans" font-size="10.00">printref: t</text>
</g>
<!-- 7&#45;&gt;16 -->
<g id="edge61" class="edge"><title>7&#45;&gt;16</title>
<path fill="none" stroke="grey" stroke-width="2" d="M2040.95,-292.795C2040.53,-284.957 2040.04,-275.77 2039.58,-267.16"/>
<polygon fill="grey" stroke="grey" stroke-width="2" points="2043.07,-266.873 2039.04,-257.074 2036.08,-267.246 2043.07,-266.873"/>
</g>
<!-- 18 -->
<g id="node19" class="node"><title>18</title>
<path fill="none" stroke="#d86e56" stroke-width="2" d="M2174,-257C2174,-257 2114,-257 2114,-257 2108,-257 2102,-251 2102,-245 2102,-245 2102,-228 2102,-228 2102,-222 2108,-216 2114,-216 2114,-216 2174,-216 2174,-216 2180,-216 2186,-222 2186,-228 2186,-228 2186,-245 2186,-245 2186,-251 2180,-257 2174,-257"/>
<text text-anchor="middle" x="2144" y="-245" font-family="sans" font-size="10.00">fit</text>
<text text-anchor="middle" x="2144" y="-234" font-family="sans" font-size="10.00">method: open</text>
<text text-anchor="middle" x="2144" y="-223" font-family="sans" font-size="10.00">printref: f</text>
</g>
<!-- 7&#45;&gt;18 -->
<g id="edge65" class="edge"><title>7&#45;&gt;18</title>
<path fill="none" stroke="grey" stroke-width="2" d="M2068.53,-292.99C2080.83,-283.947 2095.62,-273.074 2108.83,-263.359"/>
<polygon fill="grey" stroke="grey" stroke-width="2" points="2111.26,-265.916 2117.25,-257.172 2107.12,-260.277 2111.26,-265.916"/>
</g>
<!-- 23 -->
<g id="node24" class="node"><title>23</title>
<path fill="none" stroke="#d86e56" stroke-width="2" d="M2284,-257C2284,-257 2216,-257 2216,-257 2210,-257 2204,-251 2204,-245 2204,-245 2204,-228 2204,-228 2204,-222 2210,-216 2216,-216 2216,-216 2284,-216 2284,-216 2290,-216 2296,-222 2296,-228 2296,-228 2296,-245 2296,-245 2296,-251 2290,-257 2284,-257"/>
<text text-anchor="middle" x="2250" y="-245" font-family="sans" font-size="10.00">fit</text>
<text text-anchor="middle" x="2250" y="-234" font-family="sans" font-size="10.00">method: closed</text>
<text text-anchor="middle" x="2250" y="-223" font-family="sans" font-size="10.00">printref: f</text>
</g>
<!-- 7&#45;&gt;23 -->
<g id="edge74" class="edge"><title>7&#45;&gt;23</title>
<path fill="none" stroke="grey" stroke-width="2" d="M2096.11,-292.99C2126.3,-282.103 2163.85,-268.564 2194.3,-257.585"/>
<polygon fill="grey" stroke="grey" stroke-width="2" points="2195.7,-260.801 2203.92,-254.117 2193.32,-254.216 2195.7,-260.801"/>
</g>
<!-- 8 -->
<g id="node9" class="node"><title>8</title>
<path fill="none" stroke="#d86e56" stroke-width="2" d="M1248,-257C1248,-257 1188,-257 1188,-257 1182,-257 1176,-251 1176,-245 1176,-245 1176,-228 1176,-228 1176,-222 1182,-216 1188,-216 1188,-216 1248,-216 1248,-216 1254,-216 1260,-222 1260,-228 1260,-228 1260,-245 1260,-245 1260,-251 1254,-257 1248,-257"/>
<text text-anchor="middle" x="1218" y="-245" font-family="sans" font-size="10.00">fit</text>
<text text-anchor="middle" x="1218" y="-234" font-family="sans" font-size="10.00">method: open</text>
<text text-anchor="middle" x="1218" y="-223" font-family="sans" font-size="10.00">printref: f</text>
</g>
<!-- 8&#45;&gt;2 -->
<g id="edge8" class="edge"><title>8&#45;&gt;2</title>
<path fill="none" stroke="grey" stroke-width="2" d="M1203.52,-215.689C1197.39,-207.301 1190.16,-197.424 1183.64,-188.501"/>
<polygon fill="grey" stroke="grey" stroke-width="2" points="1186.39,-186.327 1177.66,-180.319 1180.74,-190.458 1186.39,-186.327"/>
</g>
<!-- 9 -->
<g id="node10" class="node"><title>9</title>
<path fill="none" stroke="#d86e56" stroke-width="2" d="M1146,-257C1146,-257 1078,-257 1078,-257 1072,-257 1066,-251 1066,-245 1066,-245 1066,-228 1066,-228 1066,-222 1072,-216 1078,-216 1078,-216 1146,-216 1146,-216 1152,-216 1158,-222 1158,-228 1158,-228 1158,-245 1158,-245 1158,-251 1152,-257 1146,-257"/>
<text text-anchor="middle" x="1112" y="-245" font-family="sans" font-size="10.00">fit</text>
<text text-anchor="middle" x="1112" y="-234" font-family="sans" font-size="10.00">method: closed</text>
<text text-anchor="middle" x="1112" y="-223" font-family="sans" font-size="10.00">printref: t</text>
</g>
<!-- 9&#45;&gt;2 -->
<g id="edge9" class="edge"><title>9&#45;&gt;2</title>
<path fill="none" stroke="grey" stroke-width="2" d="M1126.48,-215.689C1132.61,-207.301 1139.84,-197.424 1146.36,-188.501"/>
<polygon fill="grey" stroke="grey" stroke-width="2" points="1149.26,-190.458 1152.34,-180.319 1143.61,-186.327 1149.26,-190.458"/>
</g>
<!-- 10 -->
<g id="node11" class="node"><title>10</title>
<path fill="none" stroke="#d86e56" stroke-width="2" d="M1608,-257C1608,-257 1548,-257 1548,-257 1542,-257 1536,-251 1536,-245 1536,-245 1536,-228 1536,-228 1536,-222 1542,-216 1548,-216 1548,-216 1608,-216 1608,-216 1614,-216 1620,-222 1620,-228 1620,-228 1620,-245 1620,-245 1620,-251 1614,-257 1608,-257"/>
<text text-anchor="middle" x="1578" y="-245" font-family="sans" font-size="10.00">fit</text>
<text text-anchor="middle" x="1578" y="-234" font-family="sans" font-size="10.00">method: open</text>
<text text-anchor="middle" x="1578" y="-223" font-family="sans" font-size="10.00">printref: t</text>
</g>
<!-- 10&#45;&gt;2 -->
<g id="edge10" class="edge"><title>10&#45;&gt;2</title>
<path fill="none" stroke="grey" stroke-width="2" d="M1535.93,-218.597C1532.93,-217.645 1529.94,-216.766 1527,-216 1426.48,-189.766 1306.64,-175.42 1233.2,-168.479"/>
<polygon fill="grey" stroke="grey" stroke-width="2" points="1233.43,-164.986 1223.15,-167.549 1232.78,-171.956 1233.43,-164.986"/>
</g>
<!-- 11 -->
<g id="node12" class="node"><title>11</title>
<path fill="none" stroke="#d86e56" stroke-width="2" d="M80,-257C80,-257 12,-257 12,-257 6,-257 0,-251 0,-245 0,-245 0,-228 0,-228 0,-222 6,-216 12,-216 12,-216 80,-216 80,-216 86,-216 92,-222 92,-228 92,-228 92,-245 92,-245 92,-251 86,-257 80,-257"/>
<text text-anchor="middle" x="46" y="-245" font-family="sans" font-size="10.00">fit</text>
<text text-anchor="middle" x="46" y="-234" font-family="sans" font-size="10.00">method: closed</text>
<text text-anchor="middle" x="46" y="-223" font-family="sans" font-size="10.00">printref: f</text>
</g>
<!-- 11&#45;&gt;2 -->
<g id="edge11" class="edge"><title>11&#45;&gt;2</title>
<path fill="none" stroke="grey" stroke-width="2" d="M92.2006,-219.149C96.8212,-217.918 101.476,-216.833 106,-216 297.181,-180.792 893.71,-167.604 1096.63,-164.066"/>
<polygon fill="grey" stroke="grey" stroke-width="2" points="1096.91,-167.562 1106.85,-163.891 1096.79,-160.563 1096.91,-167.562"/>
</g>
<!-- 12 -->
<g id="node13" class="node"><title>12</title>
<path fill="none" stroke="#d86e56" stroke-width="2" d="M228,-257C228,-257 160,-257 160,-257 154,-257 148,-251 148,-245 148,-245 148,-228 148,-228 148,-222 154,-216 160,-216 160,-216 228,-216 228,-216 234,-216 240,-222 240,-228 240,-228 240,-245 240,-245 240,-251 234,-257 228,-257"/>
<text text-anchor="middle" x="194" y="-245" font-family="sans" font-size="10.00">fit</text>
<text text-anchor="middle" x="194" y="-234" font-family="sans" font-size="10.00">method: closed</text>
<text text-anchor="middle" x="194" y="-223" font-family="sans" font-size="10.00">printref: t</text>
</g>
<!-- 12&#45;&gt;2 -->
<g id="edge12" class="edge"><title>12&#45;&gt;2</title>
<path fill="none" stroke="grey" stroke-width="2" d="M240.249,-218.066C243.187,-217.282 246.12,-216.582 249,-216 411.152,-183.256 913.14,-168.757 1096.8,-164.451"/>
<polygon fill="grey" stroke="grey" stroke-width="2" points="1096.95,-167.949 1106.87,-164.218 1096.79,-160.951 1096.95,-167.949"/>
</g>
<!-- 13 -->
<g id="node14" class="node"><title>13</title>
<path fill="none" stroke="#56c1d8" stroke-width="2" stroke-dasharray="5,2" d="M343.5,-334C343.5,-334 248.5,-334 248.5,-334 242.5,-334 236.5,-328 236.5,-322 236.5,-322 236.5,-305 236.5,-305 236.5,-299 242.5,-293 248.5,-293 248.5,-293 343.5,-293 343.5,-293 349.5,-293 355.5,-299 355.5,-305 355.5,-305 355.5,-322 355.5,-322 355.5,-328 349.5,-334 343.5,-334"/>
<text text-anchor="middle" x="296" y="-322" font-family="sans" font-size="10.00">cluster</text>
<text text-anchor="middle" x="296" y="-311" font-family="sans" font-size="10.00">rep: 1</text>
<text text-anchor="middle" x="296" y="-300" font-family="sans" font-size="10.00">sampleref: reference</text>
</g>
<!-- 13&#45;&gt;2 -->
<g id="edge13" class="edge"><title>13&#45;&gt;2</title>
<path fill="none" stroke="grey" stroke-width="2" d="M236.293,-307.912C201.775,-301.835 160.95,-288.04 139,-257 128.479,-242.122 126.452,-229.213 139,-216 171.985,-181.267 872.205,-167.504 1096.52,-163.976"/>
<polygon fill="grey" stroke="grey" stroke-width="2" points="1096.89,-167.471 1106.84,-163.816 1096.78,-160.472 1096.89,-167.471"/>
</g>
<!-- 13&#45;&gt;11 -->
<g id="edge51" class="edge"><title>13&#45;&gt;11</title>
<path fill="none" stroke="grey" stroke-width="2" d="M236.386,-295.584C198.879,-284.818 149.51,-270.422 106,-257 104.594,-256.566 103.17,-256.124 101.733,-255.676"/>
<polygon fill="grey" stroke="grey" stroke-width="2" points="102.733,-252.321 92.1434,-252.651 100.627,-258.997 102.733,-252.321"/>
</g>
<!-- 13&#45;&gt;12 -->
<g id="edge54" class="edge"><title>13&#45;&gt;12</title>
<path fill="none" stroke="grey" stroke-width="2" d="M269.467,-292.99C257.168,-283.947 242.381,-273.074 229.168,-263.359"/>
<polygon fill="grey" stroke="grey" stroke-width="2" points="230.884,-260.277 220.755,-257.172 226.738,-265.916 230.884,-260.277"/>
</g>
<!-- 21 -->
<g id="node22" class="node"><title>21</title>
<path fill="none" stroke="#d86e56" stroke-width="2" d="M330,-257C330,-257 270,-257 270,-257 264,-257 258,-251 258,-245 258,-245 258,-228 258,-228 258,-222 264,-216 270,-216 270,-216 330,-216 330,-216 336,-216 342,-222 342,-228 342,-228 342,-245 342,-245 342,-251 336,-257 330,-257"/>
<text text-anchor="middle" x="300" y="-245" font-family="sans" font-size="10.00">fit</text>
<text text-anchor="middle" x="300" y="-234" font-family="sans" font-size="10.00">method: open</text>
<text text-anchor="middle" x="300" y="-223" font-family="sans" font-size="10.00">printref: f</text>
</g>
<!-- 13&#45;&gt;21 -->
<g id="edge71" class="edge"><title>13&#45;&gt;21</title>
<path fill="none" stroke="grey" stroke-width="2" d="M297.051,-292.795C297.469,-284.957 297.959,-275.77 298.418,-267.16"/>
<polygon fill="grey" stroke="grey" stroke-width="2" points="301.918,-267.246 298.956,-257.074 294.928,-266.873 301.918,-267.246"/>
</g>
<!-- 25 -->
<g id="node26" class="node"><title>25</title>
<path fill="none" stroke="#d86e56" stroke-width="2" stroke-dasharray="5,2" d="M432,-257C432,-257 372,-257 372,-257 366,-257 360,-251 360,-245 360,-245 360,-228 360,-228 360,-222 366,-216 372,-216 372,-216 432,-216 432,-216 438,-216 444,-222 444,-228 444,-228 444,-245 444,-245 444,-251 438,-257 432,-257"/>
<text text-anchor="middle" x="402" y="-245" font-family="sans" font-size="10.00">fit</text>
<text text-anchor="middle" x="402" y="-234" font-family="sans" font-size="10.00">method: open</text>
<text text-anchor="middle" x="402" y="-223" font-family="sans" font-size="10.00">printref: t</text>
</g>
<!-- 13&#45;&gt;25 -->
<g id="edge79" class="edge"><title>13&#45;&gt;25</title>
<path fill="none" stroke="grey" stroke-width="2" d="M323.574,-292.99C336.477,-283.861 352.014,-272.867 365.845,-263.082"/>
<polygon fill="grey" stroke="grey" stroke-width="2" points="368.055,-265.806 374.196,-257.172 364.011,-260.091 368.055,-265.806"/>
</g>
<!-- 14 -->
<g id="node15" class="node"><title>14</title>
<path fill="none" stroke="#56c1d8" stroke-width="2" d="M1860,-257C1860,-257 1776,-257 1776,-257 1770,-257 1764,-251 1764,-245 1764,-245 1764,-228 1764,-228 1764,-222 1770,-216 1776,-216 1776,-216 1860,-216 1860,-216 1866,-216 1872,-222 1872,-228 1872,-228 1872,-245 1872,-245 1872,-251 1866,-257 1860,-257"/>
<text text-anchor="middle" x="1818" y="-245" font-family="sans" font-size="10.00">cluster</text>
<text text-anchor="middle" x="1818" y="-234" font-family="sans" font-size="10.00">rep: 1</text>
<text text-anchor="middle" x="1818" y="-223" font-family="sans" font-size="10.00">sampleref: sample</text>
</g>
<!-- 14&#45;&gt;2 -->
<g id="edge14" class="edge"><title>14&#45;&gt;2</title>
<path fill="none" stroke="grey" stroke-width="2" d="M1763.89,-217.959C1760.9,-217.237 1757.92,-216.576 1755,-216 1568.61,-179.21 1344,-167.918 1233.38,-164.482"/>
<polygon fill="grey" stroke="grey" stroke-width="2" points="1233.46,-160.983 1223.36,-164.182 1233.25,-167.98 1233.46,-160.983"/>
</g>
<!-- 15&#45;&gt;2 -->
<g id="edge15" class="edge"><title>15&#45;&gt;2</title>
<path fill="none" stroke="grey" stroke-width="2" d="M1889.99,-218.355C1886.98,-217.461 1883.96,-216.661 1881,-216 1758.81,-188.734 1387.5,-171.624 1233.28,-165.521"/>
<polygon fill="grey" stroke="grey" stroke-width="2" points="1233.13,-162.012 1223,-165.117 1232.86,-169.007 1233.13,-162.012"/>
</g>
<!-- 16&#45;&gt;2 -->
<g id="edge16" class="edge"><title>16&#45;&gt;2</title>
<path fill="none" stroke="grey" stroke-width="2" d="M1991.75,-218.089C1988.81,-217.299 1985.88,-216.591 1983,-216 1840.33,-186.677 1402.84,-170.362 1233.21,-165"/>
<polygon fill="grey" stroke="grey" stroke-width="2" points="1233.26,-161.5 1223.15,-164.685 1233.04,-168.496 1233.26,-161.5"/>
</g>
<!-- 17 -->
<g id="node18" class="node"><title>17</title>
<path fill="none" stroke="#56c1d8" stroke-width="2" d="M558,-257C558,-257 474,-257 474,-257 468,-257 462,-251 462,-245 462,-245 462,-228 462,-228 462,-222 468,-216 474,-216 474,-216 558,-216 558,-216 564,-216 570,-222 570,-228 570,-228 570,-245 570,-245 570,-251 564,-257 558,-257"/>
<text text-anchor="middle" x="516" y="-245" font-family="sans" font-size="10.00">cluster</text>
<text text-anchor="middle" x="516" y="-234" font-family="sans" font-size="10.00">rep: 1</text>
<text text-anchor="middle" x="516" y="-223" font-family="sans" font-size="10.00">sampleref: sample</text>
</g>
<!-- 17&#45;&gt;2 -->
<g id="edge17" class="edge"><title>17&#45;&gt;2</title>
<path fill="none" stroke="grey" stroke-width="2" d="M570.111,-217.961C573.103,-217.239 576.08,-216.577 579,-216 763.695,-179.486 986.183,-168.077 1096.32,-164.551"/>
<polygon fill="grey" stroke="grey" stroke-width="2" points="1096.73,-168.04 1106.62,-164.233 1096.52,-161.043 1096.73,-168.04"/>
</g>
<!-- 18&#45;&gt;2 -->
<g id="edge18" class="edge"><title>18&#45;&gt;2</title>
<path fill="none" stroke="grey" stroke-width="2" d="M2101.72,-218.216C2098.8,-217.368 2095.87,-216.616 2093,-216 1928.94,-180.839 1419.11,-167.83 1233.48,-164.185"/>
<polygon fill="grey" stroke="grey" stroke-width="2" points="1233.37,-160.682 1223.31,-163.988 1233.24,-167.681 1233.37,-160.682"/>
</g>
<!-- 19 -->
<g id="node20" class="node"><title>19</title>
<path fill="none" stroke="#56c1d8" stroke-width="2" d="M786,-257C786,-257 702,-257 702,-257 696,-257 690,-251 690,-245 690,-245 690,-228 690,-228 690,-222 696,-216 702,-216 702,-216 786,-216 786,-216 792,-216 798,-222 798,-228 798,-228 798,-245 798,-245 798,-251 792,-257 786,-257"/>
<text text-anchor="middle" x="744" y="-245" font-family="sans" font-size="10.00">cluster</text>
<text text-anchor="middle" x="744" y="-234" font-family="sans" font-size="10.00">rep: 0</text>
<text text-anchor="middle" x="744" y="-223" font-family="sans" font-size="10.00">sampleref: sample</text>
</g>
<!-- 19&#45;&gt;2 -->
<g id="edge19" class="edge"><title>19&#45;&gt;2</title>
<path fill="none" stroke="grey" stroke-width="2" d="M798.153,-218.161C801.134,-217.387 804.097,-216.66 807,-216 906.563,-193.362 1023.98,-178.108 1096.47,-169.985"/>
<polygon fill="grey" stroke="grey" stroke-width="2" points="1097.28,-173.417 1106.83,-168.839 1096.51,-166.46 1097.28,-173.417"/>
</g>
<!-- 20 -->
<g id="node21" class="node"><title>20</title>
<path fill="none" stroke="#56c1d8" stroke-width="2" stroke-dasharray="5,2" d="M975.5,-334C975.5,-334 880.5,-334 880.5,-334 874.5,-334 868.5,-328 868.5,-322 868.5,-322 868.5,-305 868.5,-305 868.5,-299 874.5,-293 880.5,-293 880.5,-293 975.5,-293 975.5,-293 981.5,-293 987.5,-299 987.5,-305 987.5,-305 987.5,-322 987.5,-322 987.5,-328 981.5,-334 975.5,-334"/>
<text text-anchor="middle" x="928" y="-322" font-family="sans" font-size="10.00">cluster</text>
<text text-anchor="middle" x="928" y="-311" font-family="sans" font-size="10.00">rep: 0</text>
<text text-anchor="middle" x="928" y="-300" font-family="sans" font-size="10.00">sampleref: reference</text>
</g>
<!-- 20&#45;&gt;2 -->
<g id="edge20" class="edge"><title>20&#45;&gt;2</title>
<path fill="none" stroke="grey" stroke-width="2" d="M927.977,-292.972C929.044,-271.166 934.195,-236.279 955,-216 975.142,-196.367 1043.46,-181.58 1096.77,-172.681"/>
<polygon fill="grey" stroke="grey" stroke-width="2" points="1097.57,-176.097 1106.88,-171.033 1096.44,-169.188 1097.57,-176.097"/>
</g>
<!-- 20&#45;&gt;3 -->
<g id="edge29" class="edge"><title>20&#45;&gt;3</title>
<path fill="none" stroke="grey" stroke-width="2" d="M868.489,-301.631C820.333,-292.269 750.712,-277.454 681.848,-257.063"/>
<polygon fill="grey" stroke="grey" stroke-width="2" points="682.723,-253.672 672.138,-254.149 680.71,-260.376 682.723,-253.672"/>
</g>
<!-- 20&#45;&gt;4 -->
<g id="edge32" class="edge"><title>20&#45;&gt;4</title>
<path fill="none" stroke="grey" stroke-width="2" d="M910.659,-292.795C903.08,-284.182 894.067,-273.94 885.87,-264.624"/>
<polygon fill="grey" stroke="grey" stroke-width="2" points="888.459,-262.269 879.225,-257.074 883.204,-266.893 888.459,-262.269"/>
</g>
<!-- 20&#45;&gt;5 -->
<g id="edge35" class="edge"><title>20&#45;&gt;5</title>
<path fill="none" stroke="grey" stroke-width="2" d="M948.494,-292.795C957.63,-284.01 968.529,-273.529 978.371,-264.067"/>
<polygon fill="grey" stroke="grey" stroke-width="2" points="980.861,-266.528 985.643,-257.074 976.009,-261.482 980.861,-266.528"/>
</g>
<!-- 20&#45;&gt;9 -->
<g id="edge45" class="edge"><title>20&#45;&gt;9</title>
<path fill="none" stroke="grey" stroke-width="2" d="M975.864,-292.99C1000.62,-282.901 1030.95,-270.535 1056.7,-260.04"/>
<polygon fill="grey" stroke="grey" stroke-width="2" points="1058.02,-263.281 1065.96,-256.265 1055.38,-256.799 1058.02,-263.281"/>
</g>
<!-- 21&#45;&gt;2 -->
<g id="edge21" class="edge"><title>21&#45;&gt;2</title>
<path fill="none" stroke="grey" stroke-width="2" d="M342.002,-218.325C345.017,-217.438 348.037,-216.647 351,-216 492.517,-185.08 927.655,-169.732 1096.78,-164.814"/>
<polygon fill="grey" stroke="grey" stroke-width="2" points="1096.91,-168.312 1106.8,-164.525 1096.71,-161.315 1096.91,-168.312"/>
</g>
<!-- 22 -->
<g id="node23" class="node"><title>22</title>
<path fill="none" stroke="#56c1d8" stroke-width="2" stroke-dasharray="5,2" d="M1459.5,-334C1459.5,-334 1364.5,-334 1364.5,-334 1358.5,-334 1352.5,-328 1352.5,-322 1352.5,-322 1352.5,-305 1352.5,-305 1352.5,-299 1358.5,-293 1364.5,-293 1364.5,-293 1459.5,-293 1459.5,-293 1465.5,-293 1471.5,-299 1471.5,-305 1471.5,-305 1471.5,-322 1471.5,-322 1471.5,-328 1465.5,-334 1459.5,-334"/>
<text text-anchor="middle" x="1412" y="-322" font-family="sans" font-size="10.00">cluster</text>
<text text-anchor="middle" x="1412" y="-311" font-family="sans" font-size="10.00">rep: 1</text>
<text text-anchor="middle" x="1412" y="-300" font-family="sans" font-size="10.00">sampleref: reference</text>
</g>
<!-- 22&#45;&gt;2 -->
<g id="edge22" class="edge"><title>22&#45;&gt;2</title>
<path fill="none" stroke="grey" stroke-width="2" d="M1410.71,-292.865C1408.2,-270.96 1400.8,-235.982 1379,-216 1357.75,-196.52 1287.42,-181.615 1233.13,-172.645"/>
<polygon fill="grey" stroke="grey" stroke-width="2" points="1233.62,-169.18 1223.19,-171.04 1232.5,-176.09 1233.62,-169.18"/>
</g>
<!-- 22&#45;&gt;6 -->
<g id="edge38" class="edge"><title>22&#45;&gt;6</title>
<path fill="none" stroke="grey" stroke-width="2" d="M1388.88,-292.795C1378.47,-283.924 1366.03,-273.324 1354.85,-263.789"/>
<polygon fill="grey" stroke="grey" stroke-width="2" points="1356.85,-260.897 1346.97,-257.074 1352.31,-266.224 1356.85,-260.897"/>
</g>
<!-- 22&#45;&gt;8 -->
<g id="edge42" class="edge"><title>22&#45;&gt;8</title>
<path fill="none" stroke="grey" stroke-width="2" d="M1361.54,-292.99C1333.19,-282.033 1297.9,-268.39 1269.41,-257.374"/>
<polygon fill="grey" stroke="grey" stroke-width="2" points="1270.61,-254.088 1260.02,-253.746 1268.09,-260.617 1270.61,-254.088"/>
</g>
<!-- 22&#45;&gt;10 -->
<g id="edge48" class="edge"><title>22&#45;&gt;10</title>
<path fill="none" stroke="grey" stroke-width="2" d="M1455.18,-292.99C1477.05,-283.11 1503.75,-271.047 1526.66,-260.694"/>
<polygon fill="grey" stroke="grey" stroke-width="2" points="1528.22,-263.83 1535.9,-256.523 1525.34,-257.451 1528.22,-263.83"/>
</g>
<!-- 26 -->
<g id="node27" class="node"><title>26</title>
<path fill="none" stroke="#d86e56" stroke-width="2" d="M1506,-257C1506,-257 1438,-257 1438,-257 1432,-257 1426,-251 1426,-245 1426,-245 1426,-228 1426,-228 1426,-222 1432,-216 1438,-216 1438,-216 1506,-216 1506,-216 1512,-216 1518,-222 1518,-228 1518,-228 1518,-245 1518,-245 1518,-251 1512,-257 1506,-257"/>
<text text-anchor="middle" x="1472" y="-245" font-family="sans" font-size="10.00">fit</text>
<text text-anchor="middle" x="1472" y="-234" font-family="sans" font-size="10.00">method: closed</text>
<text text-anchor="middle" x="1472" y="-223" font-family="sans" font-size="10.00">printref: f</text>
</g>
<!-- 22&#45;&gt;26 -->
<g id="edge82" class="edge"><title>22&#45;&gt;26</title>
<path fill="none" stroke="grey" stroke-width="2" d="M1427.76,-292.795C1434.59,-284.268 1442.68,-274.144 1450.08,-264.904"/>
<polygon fill="grey" stroke="grey" stroke-width="2" points="1452.83,-267.069 1456.34,-257.074 1447.36,-262.696 1452.83,-267.069"/>
</g>
<!-- 23&#45;&gt;2 -->
<g id="edge23" class="edge"><title>23&#45;&gt;2</title>
<path fill="none" stroke="grey" stroke-width="2" d="M2203.75,-218.044C2200.82,-217.265 2197.88,-216.572 2195,-216 2010.08,-179.271 1432.4,-167.105 1233.28,-163.944"/>
<polygon fill="grey" stroke="grey" stroke-width="2" points="1233.29,-160.444 1223.24,-163.788 1233.18,-167.443 1233.29,-160.444"/>
</g>
<!-- 24 -->
<g id="node25" class="node"><title>24</title>
<path fill="none" stroke="#56c1d8" stroke-width="2" d="M1734,-257C1734,-257 1650,-257 1650,-257 1644,-257 1638,-251 1638,-245 1638,-245 1638,-228 1638,-228 1638,-222 1644,-216 1650,-216 1650,-216 1734,-216 1734,-216 1740,-216 1746,-222 1746,-228 1746,-228 1746,-245 1746,-245 1746,-251 1740,-257 1734,-257"/>
<text text-anchor="middle" x="1692" y="-245" font-family="sans" font-size="10.00">cluster</text>
<text text-anchor="middle" x="1692" y="-234" font-family="sans" font-size="10.00">rep: 0</text>
<text text-anchor="middle" x="1692" y="-223" font-family="sans" font-size="10.00">sampleref: sample</text>
</g>
<!-- 24&#45;&gt;2 -->
<g id="edge24" class="edge"><title>24&#45;&gt;2</title>
<path fill="none" stroke="grey" stroke-width="2" d="M1637.87,-218.044C1634.88,-217.3 1631.91,-216.612 1629,-216 1490.13,-186.844 1324.29,-172.783 1233.25,-166.803"/>
<polygon fill="grey" stroke="grey" stroke-width="2" points="1233.26,-163.297 1223.06,-166.148 1232.82,-170.283 1233.26,-163.297"/>
</g>
<!-- 25&#45;&gt;2 -->
<g id="edge25" class="edge"><title>25&#45;&gt;2</title>
<path fill="none" stroke="grey" stroke-width="2" d="M444.009,-218.357C447.022,-217.462 450.04,-216.661 453,-216 574.359,-188.893 942.844,-171.72 1096.54,-165.561"/>
<polygon fill="grey" stroke="grey" stroke-width="2" points="1096.93,-169.048 1106.79,-165.154 1096.66,-162.053 1096.93,-169.048"/>
</g>
<!-- 26&#45;&gt;2 -->
<g id="edge26" class="edge"><title>26&#45;&gt;2</title>
<path fill="none" stroke="grey" stroke-width="2" d="M1425.96,-220.007C1421.26,-218.586 1416.55,-217.224 1412,-216 1352.17,-199.904 1283.16,-185.434 1233.31,-175.696"/>
<polygon fill="grey" stroke="grey" stroke-width="2" points="1233.78,-172.221 1223.3,-173.751 1232.45,-179.092 1233.78,-172.221"/>
</g>
<!-- 27 -->
<g id="node28" class="node"><title>27</title>
<path fill="none" stroke="#566bd8" stroke-width="2" stroke-dasharray="5,2" d="M908.5,-406C908.5,-406 771.5,-406 771.5,-406 765.5,-406 759.5,-400 759.5,-394 759.5,-394 759.5,-382 759.5,-382 759.5,-376 765.5,-370 771.5,-370 771.5,-370 908.5,-370 908.5,-370 914.5,-370 920.5,-376 920.5,-382 920.5,-382 920.5,-394 920.5,-394 920.5,-400 914.5,-406 908.5,-406"/>
<text text-anchor="middle" x="840" y="-385.5" font-family="sans" font-size="10.00">prep_reference_from_dataset</text>
</g>
<!-- 27&#45;&gt;3 -->
<g id="edge27" class="edge"><title>27&#45;&gt;3</title>
<path fill="none" stroke="grey" stroke-width="2" d="M759.271,-381.767C722.923,-375.352 682.169,-361.871 655,-334 637.845,-316.401 632.029,-288.633 630.252,-267.393"/>
<polygon fill="grey" stroke="grey" stroke-width="2" points="633.738,-267.046 629.662,-257.267 626.75,-267.454 633.738,-267.046"/>
</g>
<!-- 27&#45;&gt;4 -->
<g id="edge30" class="edge"><title>27&#45;&gt;4</title>
<path fill="none" stroke="grey" stroke-width="2" d="M842.524,-369.85C846.199,-344.877 853.076,-298.14 857.597,-267.421"/>
<polygon fill="grey" stroke="grey" stroke-width="2" points="861.095,-267.688 859.089,-257.285 854.17,-266.669 861.095,-267.688"/>
</g>
<!-- 27&#45;&gt;5 -->
<g id="edge33" class="edge"><title>27&#45;&gt;5</title>
<path fill="none" stroke="grey" stroke-width="2" d="M920.875,-377.517C948.788,-370.111 977.629,-357.033 996,-334 1010.76,-315.498 1012.33,-288.236 1010.74,-267.403"/>
<polygon fill="grey" stroke="grey" stroke-width="2" points="1014.19,-266.76 1009.68,-257.176 1007.23,-267.484 1014.19,-266.76"/>
</g>
<!-- 27&#45;&gt;9 -->
<g id="edge43" class="edge"><title>27&#45;&gt;9</title>
<path fill="none" stroke="grey" stroke-width="2" d="M920.704,-372.183C952.539,-364.043 988.479,-351.855 1018,-334 1047.63,-316.076 1074.44,-286.599 1091.77,-264.933"/>
<polygon fill="grey" stroke="grey" stroke-width="2" points="1094.53,-267.084 1097.93,-257.051 1089.02,-262.771 1094.53,-267.084"/>
</g>
<!-- 27&#45;&gt;11 -->
<g id="edge49" class="edge"><title>27&#45;&gt;11</title>
<path fill="none" stroke="grey" stroke-width="2" d="M759.351,-385.144C610.822,-380.937 299.91,-368.227 198,-334 152.152,-318.602 106.2,-286.566 77.0173,-263.628"/>
<polygon fill="grey" stroke="grey" stroke-width="2" points="78.8786,-260.635 68.8817,-257.126 74.5085,-266.104 78.8786,-260.635"/>
</g>
<!-- 27&#45;&gt;12 -->
<g id="edge52" class="edge"><title>27&#45;&gt;12</title>
<path fill="none" stroke="grey" stroke-width="2" d="M759.46,-384.88C602.648,-380.059 268.045,-366.104 227,-334 206.865,-318.251 198.945,-289.573 195.866,-267.559"/>
<polygon fill="grey" stroke="grey" stroke-width="2" points="199.316,-266.915 194.712,-257.373 192.36,-267.703 199.316,-266.915"/>
</g>
<!-- 27&#45;&gt;13 -->
<g id="edge55" class="edge"><title>27&#45;&gt;13</title>
<path fill="none" stroke="grey" stroke-width="2" d="M759.438,-376.263C652.78,-362.049 466.466,-337.218 365.614,-323.778"/>
<polygon fill="grey" stroke="grey" stroke-width="2" points="365.907,-320.286 355.532,-322.434 364.982,-327.224 365.907,-320.286"/>
</g>
<!-- 27&#45;&gt;20 -->
<g id="edge68" class="edge"><title>27&#45;&gt;20</title>
<path fill="none" stroke="grey" stroke-width="2" d="M860.855,-369.819C871.427,-361.109 884.49,-350.346 896.277,-340.636"/>
<polygon fill="grey" stroke="grey" stroke-width="2" points="898.693,-343.18 904.186,-334.12 894.242,-337.777 898.693,-343.18"/>
</g>
<!-- 27&#45;&gt;21 -->
<g id="edge69" class="edge"><title>27&#45;&gt;21</title>
<path fill="none" stroke="grey" stroke-width="2" d="M759.456,-378.72C695.315,-370.863 603.717,-356.802 526,-334 462.174,-315.274 392.265,-283.564 347.357,-261.631"/>
<polygon fill="grey" stroke="grey" stroke-width="2" points="348.682,-258.383 338.165,-257.108 345.592,-264.663 348.682,-258.383"/>
</g>
<!-- 27&#45;&gt;25 -->
<g id="edge77" class="edge"><title>27&#45;&gt;25</title>
<path fill="none" stroke="grey" stroke-width="2" d="M761.279,-369.996C721.768,-360.717 673.411,-348.224 631,-334 568.05,-312.888 498.027,-282.285 452.184,-261.232"/>
<polygon fill="grey" stroke="grey" stroke-width="2" points="453.611,-258.035 443.064,-257.023 450.677,-264.391 453.611,-258.035"/>
</g>
<!-- 28 -->
<g id="node29" class="node"><title>28</title>
<path fill="none" stroke="#56d882" stroke-width="2" stroke-dasharray="5,2" d="M799.5,-331.5C799.5,-331.5 676.5,-331.5 676.5,-331.5 670.5,-331.5 664.5,-325.5 664.5,-319.5 664.5,-319.5 664.5,-307.5 664.5,-307.5 664.5,-301.5 670.5,-295.5 676.5,-295.5 676.5,-295.5 799.5,-295.5 799.5,-295.5 805.5,-295.5 811.5,-301.5 811.5,-307.5 811.5,-307.5 811.5,-319.5 811.5,-319.5 811.5,-325.5 805.5,-331.5 799.5,-331.5"/>
<text text-anchor="middle" x="738" y="-311" font-family="sans" font-size="10.00">prep_weighted_subsample</text>
</g>
<!-- 28&#45;&gt;3 -->
<g id="edge28" class="edge"><title>28&#45;&gt;3</title>
<path fill="none" stroke="grey" stroke-width="2" d="M713.493,-295.481C699.63,-285.854 682.026,-273.629 666.561,-262.889"/>
<polygon fill="grey" stroke="grey" stroke-width="2" points="668.436,-259.93 658.226,-257.101 664.443,-265.68 668.436,-259.93"/>
</g>
<!-- 28&#45;&gt;4 -->
<g id="edge31" class="edge"><title>28&#45;&gt;4</title>
<path fill="none" stroke="grey" stroke-width="2" d="M766.138,-295.481C782.349,-285.676 803.016,-273.176 821.007,-262.294"/>
<polygon fill="grey" stroke="grey" stroke-width="2" points="822.847,-265.272 829.593,-257.101 819.225,-259.282 822.847,-265.272"/>
</g>
<!-- 28&#45;&gt;5 -->
<g id="edge34" class="edge"><title>28&#45;&gt;5</title>
<path fill="none" stroke="grey" stroke-width="2" d="M798.813,-295.481C845.62,-282.383 909.611,-264.475 954.041,-252.041"/>
<polygon fill="grey" stroke="grey" stroke-width="2" points="955.083,-255.384 963.77,-249.318 953.197,-248.643 955.083,-255.384"/>
</g>
<!-- 28&#45;&gt;9 -->
<g id="edge44" class="edge"><title>28&#45;&gt;9</title>
<path fill="none" stroke="grey" stroke-width="2" d="M811.703,-300.35C891.328,-287.126 1011.82,-266.803 1056.02,-256.861"/>
<polygon fill="grey" stroke="grey" stroke-width="2" points="1057.07,-260.21 1065.96,-254.457 1055.42,-253.406 1057.07,-260.21"/>
</g>
<!-- 28&#45;&gt;11 -->
<g id="edge50" class="edge"><title>28&#45;&gt;11</title>
<path fill="none" stroke="grey" stroke-width="2" d="M664.366,-308.396C551.03,-301.467 327.215,-285.357 139,-257 127.02,-255.195 114.261,-252.821 102.154,-250.353"/>
<polygon fill="grey" stroke="grey" stroke-width="2" points="102.674,-246.886 92.1699,-248.268 101.243,-253.738 102.674,-246.886"/>
</g>
<!-- 28&#45;&gt;12 -->
<g id="edge53" class="edge"><title>28&#45;&gt;12</title>
<path fill="none" stroke="grey" stroke-width="2" d="M664.214,-309.358C569.779,-304.175 401.292,-291.02 250.215,-257.017"/>
<polygon fill="grey" stroke="grey" stroke-width="2" points="250.819,-253.565 240.29,-254.747 249.258,-260.389 250.819,-253.565"/>
</g>
<!-- 28&#45;&gt;17 -->
<g id="edge63" class="edge"><title>28&#45;&gt;17</title>
<path fill="none" stroke="grey" stroke-width="2" d="M687.625,-295.481C655.722,-284.703 614.18,-270.669 579.959,-259.108"/>
<polygon fill="grey" stroke="grey" stroke-width="2" points="580.649,-255.646 570.054,-255.762 578.408,-262.278 580.649,-255.646"/>
</g>
<!-- 28&#45;&gt;19 -->
<g id="edge67" class="edge"><title>28&#45;&gt;19</title>
<path fill="none" stroke="grey" stroke-width="2" d="M739.361,-295.481C740.032,-287.102 740.86,-276.755 741.629,-267.132"/>
<polygon fill="grey" stroke="grey" stroke-width="2" points="745.123,-267.349 742.432,-257.101 738.145,-266.79 745.123,-267.349"/>
</g>
<!-- 28&#45;&gt;21 -->
<g id="edge70" class="edge"><title>28&#45;&gt;21</title>
<path fill="none" stroke="grey" stroke-width="2" d="M664.287,-306.847C587.928,-299.888 465.28,-285.619 351.949,-256.956"/>
<polygon fill="grey" stroke="grey" stroke-width="2" points="352.621,-253.515 342.065,-254.413 350.877,-260.294 352.621,-253.515"/>
</g>
<!-- 28&#45;&gt;25 -->
<g id="edge78" class="edge"><title>28&#45;&gt;25</title>
<path fill="none" stroke="grey" stroke-width="2" d="M664.253,-301.734C608.6,-292.786 530.368,-278.453 453.909,-257.032"/>
<polygon fill="grey" stroke="grey" stroke-width="2" points="454.686,-253.615 444.11,-254.245 452.771,-260.348 454.686,-253.615"/>
</g>
<!-- 29 -->
<g id="node30" class="node"><title>29</title>
<path fill="none" stroke="#56d882" stroke-width="2" stroke-dasharray="5,2" d="M1706.5,-331.5C1706.5,-331.5 1583.5,-331.5 1583.5,-331.5 1577.5,-331.5 1571.5,-325.5 1571.5,-319.5 1571.5,-319.5 1571.5,-307.5 1571.5,-307.5 1571.5,-301.5 1577.5,-295.5 1583.5,-295.5 1583.5,-295.5 1706.5,-295.5 1706.5,-295.5 1712.5,-295.5 1718.5,-301.5 1718.5,-307.5 1718.5,-307.5 1718.5,-319.5 1718.5,-319.5 1718.5,-325.5 1712.5,-331.5 1706.5,-331.5"/>
<text text-anchor="middle" x="1645" y="-311" font-family="sans" font-size="10.00">prep_weighted_subsample</text>
</g>
<!-- 29&#45;&gt;6 -->
<g id="edge36" class="edge"><title>29&#45;&gt;6</title>
<path fill="none" stroke="grey" stroke-width="2" d="M1572.16,-295.481C1513.94,-281.88 1433.53,-263.092 1380.21,-250.633"/>
<polygon fill="grey" stroke="grey" stroke-width="2" points="1380.78,-247.173 1370.25,-248.306 1379.19,-253.99 1380.78,-247.173"/>
</g>
<!-- 29&#45;&gt;8 -->
<g id="edge40" class="edge"><title>29&#45;&gt;8</title>
<path fill="none" stroke="grey" stroke-width="2" d="M1571.48,-303.587C1483.25,-292.572 1339.52,-273.527 1270.15,-256.933"/>
<polygon fill="grey" stroke="grey" stroke-width="2" points="1270.62,-253.443 1260.07,-254.399 1268.91,-260.232 1270.62,-253.443"/>
</g>
<!-- 29&#45;&gt;10 -->
<g id="edge46" class="edge"><title>29&#45;&gt;10</title>
<path fill="none" stroke="grey" stroke-width="2" d="M1629.8,-295.481C1621.67,-286.389 1611.48,-274.98 1602.29,-264.692"/>
<polygon fill="grey" stroke="grey" stroke-width="2" points="1604.78,-262.227 1595.51,-257.101 1599.56,-266.891 1604.78,-262.227"/>
</g>
<!-- 29&#45;&gt;14 -->
<g id="edge56" class="edge"><title>29&#45;&gt;14</title>
<path fill="none" stroke="grey" stroke-width="2" d="M1684.26,-295.481C1707.7,-285.319 1737.81,-272.263 1763.53,-261.114"/>
<polygon fill="grey" stroke="grey" stroke-width="2" points="1765,-264.29 1772.79,-257.101 1762.22,-257.868 1765,-264.29"/>
</g>
<!-- 29&#45;&gt;15 -->
<g id="edge57" class="edge"><title>29&#45;&gt;15</title>
<path fill="none" stroke="grey" stroke-width="2" d="M1718.5,-297.874C1762.94,-288.413 1820.8,-275.007 1879.96,-257.141"/>
<polygon fill="grey" stroke="grey" stroke-width="2" points="1881.31,-260.388 1889.85,-254.116 1879.26,-253.694 1881.31,-260.388"/>
</g>
<!-- 29&#45;&gt;16 -->
<g id="edge60" class="edge"><title>29&#45;&gt;16</title>
<path fill="none" stroke="grey" stroke-width="2" d="M1718.64,-304.246C1785.35,-295.898 1886.32,-281.094 1982.12,-257.004"/>
<polygon fill="grey" stroke="grey" stroke-width="2" points="1983.15,-260.355 1991.97,-254.489 1981.42,-253.572 1983.15,-260.355"/>
</g>
<!-- 29&#45;&gt;18 -->
<g id="edge64" class="edge"><title>29&#45;&gt;18</title>
<path fill="none" stroke="grey" stroke-width="2" d="M1718.54,-308.851C1806.03,-303.294 1956.28,-289.911 2092.19,-256.889"/>
<polygon fill="grey" stroke="grey" stroke-width="2" points="2093.08,-260.274 2101.95,-254.477 2091.4,-253.479 2093.08,-260.274"/>
</g>
<!-- 29&#45;&gt;23 -->
<g id="edge73" class="edge"><title>29&#45;&gt;23</title>
<path fill="none" stroke="grey" stroke-width="2" d="M1718.85,-310.661C1823.29,-306.824 2019.91,-295.045 2193.88,-256.977"/>
<polygon fill="grey" stroke="grey" stroke-width="2" points="2194.72,-260.376 2203.72,-254.789 2193.2,-253.542 2194.72,-260.376"/>
</g>
<!-- 29&#45;&gt;24 -->
<g id="edge76" class="edge"><title>29&#45;&gt;24</title>
<path fill="none" stroke="grey" stroke-width="2" d="M1655.67,-295.481C1661.2,-286.657 1668.09,-275.649 1674.39,-265.603"/>
<polygon fill="grey" stroke="grey" stroke-width="2" points="1677.37,-267.433 1679.72,-257.101 1671.44,-263.716 1677.37,-267.433"/>
</g>
<!-- 29&#45;&gt;26 -->
<g id="edge80" class="edge"><title>29&#45;&gt;26</title>
<path fill="none" stroke="grey" stroke-width="2" d="M1605.74,-295.481C1582.3,-285.319 1552.19,-272.263 1526.47,-261.114"/>
<polygon fill="grey" stroke="grey" stroke-width="2" points="1527.78,-257.868 1517.21,-257.101 1525,-264.29 1527.78,-257.868"/>
</g>
<!-- 30 -->
<g id="node31" class="node"><title>30</title>
<path fill="none" stroke="#566bd8" stroke-width="2" stroke-dasharray="5,2" d="M1566.5,-406C1566.5,-406 1429.5,-406 1429.5,-406 1423.5,-406 1417.5,-400 1417.5,-394 1417.5,-394 1417.5,-382 1417.5,-382 1417.5,-376 1423.5,-370 1429.5,-370 1429.5,-370 1566.5,-370 1566.5,-370 1572.5,-370 1578.5,-376 1578.5,-382 1578.5,-382 1578.5,-394 1578.5,-394 1578.5,-400 1572.5,-406 1566.5,-406"/>
<text text-anchor="middle" x="1498" y="-385.5" font-family="sans" font-size="10.00">prep_reference_from_dataset</text>
</g>
<!-- 30&#45;&gt;6 -->
<g id="edge37" class="edge"><title>30&#45;&gt;6</title>
<path fill="none" stroke="grey" stroke-width="2" d="M1417.12,-376.033C1390.01,-368.448 1361.89,-355.635 1343,-334 1327.15,-315.846 1323,-288.374 1322.47,-267.378"/>
<polygon fill="grey" stroke="grey" stroke-width="2" points="1325.97,-267.368 1322.47,-257.367 1318.97,-267.367 1325.97,-267.368"/>
</g>
<!-- 30&#45;&gt;7 -->
<g id="edge39" class="edge"><title>30&#45;&gt;7</title>
<path fill="none" stroke="grey" stroke-width="2" d="M1578.79,-378.117C1665.14,-368.368 1805.97,-351.729 1927,-334 1941.65,-331.854 1957.32,-329.343 1972.22,-326.85"/>
<polygon fill="grey" stroke="grey" stroke-width="2" points="1973.12,-330.248 1982.39,-325.132 1971.95,-323.346 1973.12,-330.248"/>
</g>
<!-- 30&#45;&gt;8 -->
<g id="edge41" class="edge"><title>30&#45;&gt;8</title>
<path fill="none" stroke="grey" stroke-width="2" d="M1417.32,-370.937C1386.24,-362.678 1351.21,-350.735 1322,-334 1290.4,-315.898 1260.61,-286.519 1241.08,-264.926"/>
<polygon fill="grey" stroke="grey" stroke-width="2" points="1243.62,-262.515 1234.37,-257.359 1238.39,-267.161 1243.62,-262.515"/>
</g>
<!-- 30&#45;&gt;10 -->
<g id="edge47" class="edge"><title>30&#45;&gt;10</title>
<path fill="none" stroke="grey" stroke-width="2" d="M1507.18,-369.85C1520.72,-344.55 1546.21,-296.912 1562.63,-266.222"/>
<polygon fill="grey" stroke="grey" stroke-width="2" points="1565.78,-267.753 1567.41,-257.285 1559.61,-264.451 1565.78,-267.753"/>
</g>
<!-- 30&#45;&gt;15 -->
<g id="edge59" class="edge"><title>30&#45;&gt;15</title>
<path fill="none" stroke="grey" stroke-width="2" d="M1578.66,-372.694C1623.08,-363.736 1678.8,-350.708 1727,-334 1784.19,-314.176 1846.68,-283.322 1887.45,-261.858"/>
<polygon fill="grey" stroke="grey" stroke-width="2" points="1889.12,-264.935 1896.32,-257.158 1885.84,-258.75 1889.12,-264.935"/>
</g>
<!-- 30&#45;&gt;16 -->
<g id="edge62" class="edge"><title>30&#45;&gt;16</title>
<path fill="none" stroke="grey" stroke-width="2" d="M1578.57,-376.617C1637.74,-367.971 1719.72,-353.854 1790,-334 1859.34,-314.413 1936.23,-282.879 1985.74,-261.223"/>
<polygon fill="grey" stroke="grey" stroke-width="2" points="1987.22,-264.396 1994.96,-257.164 1984.4,-257.989 1987.22,-264.396"/>
</g>
<!-- 30&#45;&gt;18 -->
<g id="edge66" class="edge"><title>30&#45;&gt;18</title>
<path fill="none" stroke="grey" stroke-width="2" d="M1578.68,-384.831C1735.32,-379.927 2068.9,-365.844 2110,-334 2130.27,-318.292 2138.49,-289.609 2141.81,-267.582"/>
<polygon fill="grey" stroke="grey" stroke-width="2" points="2145.31,-267.744 2143.07,-257.39 2138.37,-266.883 2145.31,-267.744"/>
</g>
<!-- 30&#45;&gt;22 -->
<g id="edge72" class="edge"><title>30&#45;&gt;22</title>
<path fill="none" stroke="grey" stroke-width="2" d="M1477.62,-369.819C1467.29,-361.109 1454.52,-350.346 1443,-340.636"/>
<polygon fill="grey" stroke="grey" stroke-width="2" points="1445.17,-337.889 1435.27,-334.12 1440.66,-343.241 1445.17,-337.889"/>
</g>
<!-- 30&#45;&gt;23 -->
<g id="edge75" class="edge"><title>30&#45;&gt;23</title>
<path fill="none" stroke="grey" stroke-width="2" d="M1578.77,-386.433C1727.43,-384.387 2038.23,-375.154 2137,-334 2173.21,-318.912 2206.28,-287.697 2227.16,-264.84"/>
<polygon fill="grey" stroke="grey" stroke-width="2" points="2229.97,-266.937 2234.02,-257.144 2224.75,-262.279 2229.97,-266.937"/>
</g>
<!-- 30&#45;&gt;26 -->
<g id="edge81" class="edge"><title>30&#45;&gt;26</title>
<path fill="none" stroke="grey" stroke-width="2" d="M1495.02,-369.85C1490.67,-344.877 1482.55,-298.14 1477.2,-267.421"/>
<polygon fill="grey" stroke="grey" stroke-width="2" points="1480.6,-266.537 1475.44,-257.285 1473.71,-267.737 1480.6,-266.537"/>
</g>
<!-- 31 -->
<g id="node32" class="node"><title>31</title>
<path fill="none" stroke="#d8c356" stroke-width="2" stroke-dasharray="5,2" d="M1240,-566C1240,-566 1158,-566 1158,-566 1152,-566 1146,-560 1146,-554 1146,-554 1146,-542 1146,-542 1146,-536 1152,-530 1158,-530 1158,-530 1240,-530 1240,-530 1246,-530 1252,-536 1252,-542 1252,-542 1252,-554 1252,-554 1252,-560 1246,-566 1240,-566"/>
<text text-anchor="middle" x="1199" y="-551" font-family="sans" font-size="10.00">calc_seq_dists</text>
<text text-anchor="middle" x="1199" y="-540" font-family="sans" font-size="10.00">dataset: soil_1000</text>
</g>
<!-- 31&#45;&gt;27 -->
<g id="edge83" class="edge"><title>31&#45;&gt;27</title>
<path fill="none" stroke="grey" stroke-width="2" d="M1145.82,-546.374C1089.27,-543.539 998.915,-532.636 932,-494 898.871,-474.872 871.622,-439.417 855.595,-415.039"/>
<polygon fill="grey" stroke="grey" stroke-width="2" points="858.344,-412.841 850.013,-406.295 852.443,-416.607 858.344,-412.841"/>
</g>
<!-- 31&#45;&gt;28 -->
<g id="edge86" class="edge"><title>31&#45;&gt;28</title>
<path fill="none" stroke="grey" stroke-width="2" d="M1198.07,-529.809C1195.12,-493.766 1182.86,-410.299 1132,-370 1084.04,-332 919.546,-342.869 859,-334 846.873,-332.224 834.077,-330.259 821.528,-328.282"/>
<polygon fill="grey" stroke="grey" stroke-width="2" points="821.959,-324.806 811.534,-326.696 820.862,-331.72 821.959,-324.806"/>
</g>
<!-- 31&#45;&gt;29 -->
<g id="edge89" class="edge"><title>31&#45;&gt;29</title>
<path fill="none" stroke="grey" stroke-width="2" d="M1211.35,-529.959C1227.86,-507.942 1258.79,-469.215 1291,-442 1337.64,-402.597 1351.55,-393.261 1408,-370 1457.05,-349.789 1514.99,-336.054 1561.3,-327.304"/>
<polygon fill="grey" stroke="grey" stroke-width="2" points="1562.1,-330.715 1571.3,-325.457 1560.83,-323.831 1562.1,-330.715"/>
</g>
<!-- 31&#45;&gt;30 -->
<g id="edge92" class="edge"><title>31&#45;&gt;30</title>
<path fill="none" stroke="grey" stroke-width="2" d="M1234.11,-529.793C1251.92,-520.334 1273.43,-507.742 1291,-494 1316.25,-474.246 1313.93,-459.174 1341,-442 1363.2,-427.92 1389.55,-417.139 1414.26,-409.096"/>
<polygon fill="grey" stroke="grey" stroke-width="2" points="1415.51,-412.372 1424,-406.036 1413.41,-405.694 1415.51,-412.372"/>
</g>
<!-- 32 -->
<g id="node33" class="node"><title>32</title>
<path fill="none" stroke="#68d856" stroke-width="2" stroke-dasharray="5,2" d="M1075,-494C1075,-494 953,-494 953,-494 947,-494 941,-488 941,-482 941,-482 941,-454 941,-454 941,-448 947,-442 953,-442 953,-442 1075,-442 1075,-442 1081,-442 1087,-448 1087,-454 1087,-454 1087,-482 1087,-482 1087,-488 1081,-494 1075,-494"/>
<text text-anchor="middle" x="1014" y="-482" font-family="sans" font-size="10.00">split_weighted_subsample</text>
<text text-anchor="middle" x="1014" y="-471" font-family="sans" font-size="10.00">iter: 0</text>
<text text-anchor="middle" x="1014" y="-460" font-family="sans" font-size="10.00">reference_fraction: 0.5</text>
<text text-anchor="middle" x="1014" y="-449" font-family="sans" font-size="10.00">weight: sample&#45;dists</text>
</g>
<!-- 31&#45;&gt;32 -->
<g id="edge96" class="edge"><title>31&#45;&gt;32</title>
<path fill="none" stroke="grey" stroke-width="2" d="M1158.4,-529.883C1136.23,-520.537 1108.19,-508.712 1082.72,-497.975"/>
<polygon fill="grey" stroke="grey" stroke-width="2" points="1084.05,-494.735 1073.47,-494.075 1081.33,-501.185 1084.05,-494.735"/>
</g>
<!-- 34 -->
<g id="node35" class="node"><title>34</title>
<path fill="none" stroke="#68d856" stroke-width="2" stroke-dasharray="5,2" d="M1518,-494C1518,-494 1396,-494 1396,-494 1390,-494 1384,-488 1384,-482 1384,-482 1384,-454 1384,-454 1384,-448 1390,-442 1396,-442 1396,-442 1518,-442 1518,-442 1524,-442 1530,-448 1530,-454 1530,-454 1530,-482 1530,-482 1530,-488 1524,-494 1518,-494"/>
<text text-anchor="middle" x="1457" y="-482" font-family="sans" font-size="10.00">split_weighted_subsample</text>
<text text-anchor="middle" x="1457" y="-471" font-family="sans" font-size="10.00">iter: 1</text>
<text text-anchor="middle" x="1457" y="-460" font-family="sans" font-size="10.00">reference_fraction: 0.5</text>
<text text-anchor="middle" x="1457" y="-449" font-family="sans" font-size="10.00">weight: sample&#45;dists</text>
</g>
<!-- 31&#45;&gt;34 -->
<g id="edge98" class="edge"><title>31&#45;&gt;34</title>
<path fill="none" stroke="grey" stroke-width="2" d="M1252.14,-530.933C1287.3,-520.303 1334.12,-506.149 1374.13,-494.055"/>
<polygon fill="grey" stroke="grey" stroke-width="2" points="1375.31,-497.353 1383.87,-491.108 1373.29,-490.652 1375.31,-497.353"/>
</g>
<!-- 32&#45;&gt;27 -->
<g id="edge84" class="edge"><title>32&#45;&gt;27</title>
<path fill="none" stroke="grey" stroke-width="2" d="M957.988,-441.891C935.227,-431.688 909.212,-420.026 887.412,-410.254"/>
<polygon fill="grey" stroke="grey" stroke-width="2" points="888.592,-406.947 878.035,-406.05 885.729,-413.335 888.592,-406.947"/>
</g>
<!-- 32&#45;&gt;28 -->
<g id="edge87" class="edge"><title>32&#45;&gt;28</title>
<path fill="none" stroke="grey" stroke-width="2" d="M998.124,-441.895C982.938,-419.861 958.086,-388.521 929,-370 896.785,-349.486 856.754,-336.339 821.675,-328.021"/>
<polygon fill="grey" stroke="grey" stroke-width="2" points="822.45,-324.608 811.923,-325.801 820.897,-331.434 822.45,-324.608"/>
</g>
<!-- 33 -->
<g id="node34" class="node"><title>33</title>
<path fill="none" stroke="#56d8c1" stroke-width="2" stroke-dasharray="5,2" d="M1249.5,-643C1249.5,-643 1148.5,-643 1148.5,-643 1142.5,-643 1136.5,-637 1136.5,-631 1136.5,-631 1136.5,-614 1136.5,-614 1136.5,-608 1142.5,-602 1148.5,-602 1148.5,-602 1249.5,-602 1249.5,-602 1255.5,-602 1261.5,-608 1261.5,-614 1261.5,-614 1261.5,-631 1261.5,-631 1261.5,-637 1255.5,-643 1249.5,-643"/>
<text text-anchor="middle" x="1199" y="-631" font-family="sans" font-size="10.00">subset</text>
<text text-anchor="middle" x="1199" y="-620" font-family="sans" font-size="10.00">dataset: soil</text>
<text text-anchor="middle" x="1199" y="-609" font-family="sans" font-size="10.00">subsample_size: 1000</text>
</g>
<!-- 33&#45;&gt;27 -->
<g id="edge85" class="edge"><title>33&#45;&gt;27</title>
<path fill="none" stroke="grey" stroke-width="2" d="M1136.23,-613.178C1063.35,-600.266 944.198,-568.595 874,-494 853.958,-472.703 845.729,-439.479 842.351,-416.119"/>
<polygon fill="grey" stroke="grey" stroke-width="2" points="845.819,-415.651 841.115,-406.158 838.873,-416.513 845.819,-415.651"/>
</g>
<!-- 33&#45;&gt;28 -->
<g id="edge88" class="edge"><title>33&#45;&gt;28</title>
<path fill="none" stroke="grey" stroke-width="2" d="M1171.27,-601.931C1159.31,-592.288 1146.03,-579.776 1137,-566 1105.19,-517.447 1133.26,-486.509 1096,-442 1052.85,-390.459 1025.69,-394.245 963,-370 917.482,-352.397 864.583,-339.015 821.518,-329.806"/>
<polygon fill="grey" stroke="grey" stroke-width="2" points="822.147,-326.362 811.641,-327.73 820.707,-333.212 822.147,-326.362"/>
</g>
<!-- 33&#45;&gt;29 -->
<g id="edge91" class="edge"><title>33&#45;&gt;29</title>
<path fill="none" stroke="grey" stroke-width="2" d="M1261.53,-610.214C1334.47,-594.486 1455.68,-560.142 1539,-494 1579.7,-461.688 1590.5,-451.283 1616,-406 1627.4,-385.757 1634.98,-360.426 1639.53,-341.551"/>
<polygon fill="grey" stroke="grey" stroke-width="2" points="1643,-342.065 1641.8,-331.538 1636.17,-340.515 1643,-342.065"/>
</g>
<!-- 33&#45;&gt;30 -->
<g id="edge94" class="edge"><title>33&#45;&gt;30</title>
<path fill="none" stroke="grey" stroke-width="2" d="M1221.76,-601.868C1233.65,-591.428 1248.33,-578.249 1261,-566 1292.87,-535.197 1300.16,-526.768 1330,-494 1350.58,-471.404 1350.34,-460.059 1375,-442 1392.98,-428.835 1414.73,-418.099 1434.91,-409.819"/>
<polygon fill="grey" stroke="grey" stroke-width="2" points="1436.36,-413.011 1444.36,-406.07 1433.77,-406.505 1436.36,-413.011"/>
</g>
<!-- 33&#45;&gt;31 -->
<g id="edge95" class="edge"><title>33&#45;&gt;31</title>
<path fill="none" stroke="grey" stroke-width="2" d="M1199,-601.689C1199,-593.907 1199,-584.842 1199,-576.447"/>
<polygon fill="grey" stroke="grey" stroke-width="2" points="1202.5,-576.319 1199,-566.319 1195.5,-576.32 1202.5,-576.319"/>
</g>
<!-- 33&#45;&gt;32 -->
<g id="edge97" class="edge"><title>33&#45;&gt;32</title>
<path fill="none" stroke="grey" stroke-width="2" d="M1159.42,-601.788C1141.69,-592.116 1120.99,-579.621 1104,-566 1080.37,-547.056 1057.21,-521.899 1040.3,-501.951"/>
<polygon fill="grey" stroke="grey" stroke-width="2" points="1042.78,-499.462 1033.68,-494.033 1037.41,-503.951 1042.78,-499.462"/>
</g>
<!-- 33&#45;&gt;34 -->
<g id="edge99" class="edge"><title>33&#45;&gt;34</title>
<path fill="none" stroke="grey" stroke-width="2" d="M1261.81,-609.246C1295.46,-600.715 1336.56,-587.014 1369,-566 1394.78,-549.303 1417.85,-523.223 1433.9,-502.308"/>
<polygon fill="grey" stroke="grey" stroke-width="2" points="1436.71,-504.389 1439.91,-494.287 1431.11,-500.192 1436.71,-504.389"/>
</g>
<!-- 34&#45;&gt;29 -->
<g id="edge90" class="edge"><title>34&#45;&gt;29</title>
<path fill="none" stroke="grey" stroke-width="2" d="M1529.2,-441.874C1549.33,-432.644 1570.26,-420.751 1587,-406 1607.49,-387.942 1623.4,-360.923 1633.33,-340.924"/>
<polygon fill="grey" stroke="grey" stroke-width="2" points="1636.57,-342.271 1637.72,-331.74 1630.25,-339.254 1636.57,-342.271"/>
</g>
<!-- 34&#45;&gt;30 -->
<g id="edge93" class="edge"><title>34&#45;&gt;30</title>
<path fill="none" stroke="grey" stroke-width="2" d="M1470.2,-441.891C1474.67,-433.388 1479.67,-423.871 1484.19,-415.279"/>
<polygon fill="grey" stroke="grey" stroke-width="2" points="1487.29,-416.891 1488.85,-406.411 1481.1,-413.634 1487.29,-416.891"/>
</g>
</g>
</svg>
