<?xml version="1.0" encoding="UTF-8" standalone="no"?>
<!DOCTYPE svg PUBLIC "-//W3C//DTD SVG 1.1//EN"
 "http://www.w3.org/Graphics/SVG/1.1/DTD/svg11.dtd">
<!-- Generated by graphviz version 2.38.0 (20140413.2041)
 -->
<!-- Title: snakemake_dag Pages: 1 -->
<svg width="346pt" height="908pt"
 viewBox="0.00 0.00 346.00 908.00" xmlns="http://www.w3.org/2000/svg" xmlns:xlink="http://www.w3.org/1999/xlink">
<g id="graph0" class="graph" transform="scale(1 1) rotate(0) translate(4 904)">
<title>snakemake_dag</title>
<polygon fill="white" stroke="none" points="-4,4 -4,-904 342,-904 342,4 -4,4"/>
<!-- 0 -->
<g id="node1" class="node"><title>0</title>
<path fill="none" stroke="#56d88a" stroke-width="2" d="M110,-36C110,-36 80,-36 80,-36 74,-36 68,-30 68,-24 68,-24 68,-12 68,-12 68,-6 74,-0 80,-0 80,-0 110,-0 110,-0 116,-0 122,-6 122,-12 122,-12 122,-24 122,-24 122,-30 116,-36 110,-36"/>
<text text-anchor="middle" x="95" y="-15.5" font-family="sans" font-size="10.00">all</text>
</g>
<!-- 1 -->
<g id="node2" class="node"><title>1</title>
<path fill="none" stroke="#d87556" stroke-width="2" d="M154,-324C154,-324 74,-324 74,-324 68,-324 62,-318 62,-312 62,-312 62,-300 62,-300 62,-294 68,-288 74,-288 74,-288 154,-288 154,-288 160,-288 166,-294 166,-300 166,-300 166,-312 166,-312 166,-318 160,-324 154,-324"/>
<text text-anchor="middle" x="114" y="-303.5" font-family="sans" font-size="10.00">rename_pcr_fasta</text>
</g>
<!-- 1&#45;&gt;0 -->
<g id="edge1" class="edge"><title>1&#45;&gt;0</title>
<path fill="none" stroke="grey" stroke-width="2" d="M87.4201,-287.912C75.7633,-278.81 63.3146,-266.494 57,-252 26.4096,-181.785 60.7255,-89.9283 81.4905,-45.437"/>
<polygon fill="grey" stroke="grey" stroke-width="2" points="84.7597,-46.7143 85.9353,-36.1849 78.4501,-43.683 84.7597,-46.7143"/>
</g>
<!-- 3 -->
<g id="node4" class="node"><title>3</title>
<path fill="none" stroke="#68d856" stroke-width="2" d="M227.5,-252C227.5,-252 78.5,-252 78.5,-252 72.5,-252 66.5,-246 66.5,-240 66.5,-240 66.5,-228 66.5,-228 66.5,-222 72.5,-216 78.5,-216 78.5,-216 227.5,-216 227.5,-216 233.5,-216 239.5,-222 239.5,-228 239.5,-228 239.5,-240 239.5,-240 239.5,-246 233.5,-252 227.5,-252"/>
<text text-anchor="middle" x="153" y="-231.5" font-family="sans" font-size="10.00">get_filtered_accession_numbers</text>
</g>
<!-- 1&#45;&gt;3 -->
<g id="edge8" class="edge"><title>1&#45;&gt;3</title>
<path fill="none" stroke="grey" stroke-width="2" d="M123.64,-287.697C128.127,-279.644 133.559,-269.894 138.524,-260.982"/>
<polygon fill="grey" stroke="grey" stroke-width="2" points="141.661,-262.544 143.47,-252.104 135.546,-259.137 141.661,-262.544"/>
</g>
<!-- 2 -->
<g id="node3" class="node"><title>2</title>
<path fill="none" stroke="#567bd8" stroke-width="2" d="M128,-612C128,-612 72,-612 72,-612 66,-612 60,-606 60,-600 60,-600 60,-588 60,-588 60,-582 66,-576 72,-576 72,-576 128,-576 128,-576 134,-576 140,-582 140,-588 140,-588 140,-600 140,-600 140,-606 134,-612 128,-612"/>
<text text-anchor="middle" x="100" y="-597" font-family="sans" font-size="10.00">rename_bact</text>
<text text-anchor="middle" x="100" y="-586" font-family="sans" font-size="10.00">ext: align</text>
</g>
<!-- 2&#45;&gt;0 -->
<g id="edge2" class="edge"><title>2&#45;&gt;0</title>
<path fill="none" stroke="grey" stroke-width="2" d="M76.8066,-575.613C47.2656,-551.285 0,-504.068 0,-451 0,-451 0,-451 0,-161 0,-113.012 37.9439,-68.9633 65.8715,-43.0419"/>
<polygon fill="grey" stroke="grey" stroke-width="2" points="68.3544,-45.516 73.443,-36.2232 63.67,-40.3144 68.3544,-45.516"/>
</g>
<!-- 10 -->
<g id="node11" class="node"><title>10</title>
<path fill="none" stroke="#56d8d0" stroke-width="2" d="M117.5,-540C117.5,-540 82.5,-540 82.5,-540 76.5,-540 70.5,-534 70.5,-528 70.5,-528 70.5,-516 70.5,-516 70.5,-510 76.5,-504 82.5,-504 82.5,-504 117.5,-504 117.5,-504 123.5,-504 129.5,-510 129.5,-516 129.5,-516 129.5,-528 129.5,-528 129.5,-534 123.5,-540 117.5,-540"/>
<text text-anchor="middle" x="100" y="-519.5" font-family="sans" font-size="10.00">pcr_seqs</text>
</g>
<!-- 2&#45;&gt;10 -->
<g id="edge17" class="edge"><title>2&#45;&gt;10</title>
<path fill="none" stroke="grey" stroke-width="2" d="M100,-575.697C100,-567.983 100,-558.712 100,-550.112"/>
<polygon fill="grey" stroke="grey" stroke-width="2" points="103.5,-550.104 100,-540.104 96.5001,-550.104 103.5,-550.104"/>
</g>
<!-- 3&#45;&gt;0 -->
<g id="edge3" class="edge"><title>3&#45;&gt;0</title>
<path fill="none" stroke="grey" stroke-width="2" d="M136.734,-215.768C128.513,-206.023 119.201,-193.177 114,-180 96.4539,-135.545 93.8251,-79.2296 94.044,-46.3462"/>
<polygon fill="grey" stroke="grey" stroke-width="2" points="97.5467,-46.1994 94.21,-36.1438 90.5477,-46.0855 97.5467,-46.1994"/>
</g>
<!-- 8 -->
<g id="node9" class="node"><title>8</title>
<path fill="none" stroke="#56d8a9" stroke-width="2" d="M204.5,-180C204.5,-180 135.5,-180 135.5,-180 129.5,-180 123.5,-174 123.5,-168 123.5,-168 123.5,-156 123.5,-156 123.5,-150 129.5,-144 135.5,-144 135.5,-144 204.5,-144 204.5,-144 210.5,-144 216.5,-150 216.5,-156 216.5,-156 216.5,-168 216.5,-168 216.5,-174 210.5,-180 204.5,-180"/>
<text text-anchor="middle" x="170" y="-159.5" font-family="sans" font-size="10.00">get_taxon_seqs</text>
</g>
<!-- 3&#45;&gt;8 -->
<g id="edge15" class="edge"><title>3&#45;&gt;8</title>
<path fill="none" stroke="grey" stroke-width="2" d="M157.202,-215.697C159.096,-207.898 161.377,-198.509 163.484,-189.829"/>
<polygon fill="grey" stroke="grey" stroke-width="2" points="166.887,-190.648 165.846,-180.104 160.085,-188.996 166.887,-190.648"/>
</g>
<!-- 4 -->
<g id="node5" class="node"><title>4</title>
<path fill="none" stroke="#56c1d8" stroke-width="2" d="M200.5,-108C200.5,-108 137.5,-108 137.5,-108 131.5,-108 125.5,-102 125.5,-96 125.5,-96 125.5,-84 125.5,-84 125.5,-78 131.5,-72 137.5,-72 137.5,-72 200.5,-72 200.5,-72 206.5,-72 212.5,-78 212.5,-84 212.5,-84 212.5,-96 212.5,-96 212.5,-102 206.5,-108 200.5,-108"/>
<text text-anchor="middle" x="169" y="-87.5" font-family="sans" font-size="10.00">rename_taxon</text>
</g>
<!-- 4&#45;&gt;0 -->
<g id="edge4" class="edge"><title>4&#45;&gt;0</title>
<path fill="none" stroke="grey" stroke-width="2" d="M150.708,-71.6966C141.567,-63.0503 130.36,-52.4486 120.4,-43.027"/>
<polygon fill="grey" stroke="grey" stroke-width="2" points="122.752,-40.4337 113.082,-36.1043 117.941,-45.519 122.752,-40.4337"/>
</g>
<!-- 5 -->
<g id="node6" class="node"><title>5</title>
<path fill="none" stroke="#567bd8" stroke-width="2" d="M326,-252C326,-252 270,-252 270,-252 264,-252 258,-246 258,-240 258,-240 258,-228 258,-228 258,-222 264,-216 270,-216 270,-216 326,-216 326,-216 332,-216 338,-222 338,-228 338,-228 338,-240 338,-240 338,-246 332,-252 326,-252"/>
<text text-anchor="middle" x="298" y="-237" font-family="sans" font-size="10.00">rename_bact</text>
<text text-anchor="middle" x="298" y="-226" font-family="sans" font-size="10.00">ext: tax</text>
</g>
<!-- 5&#45;&gt;0 -->
<g id="edge5" class="edge"><title>5&#45;&gt;0</title>
<path fill="none" stroke="grey" stroke-width="2" d="M294.043,-215.54C285.843,-183.085 264.061,-113.045 221,-72 196.324,-48.4795 159.668,-34.6672 132.246,-27.0738"/>
<polygon fill="grey" stroke="grey" stroke-width="2" points="132.793,-23.5992 122.233,-24.4608 131.025,-30.3724 132.793,-23.5992"/>
</g>
<!-- 5&#45;&gt;8 -->
<g id="edge14" class="edge"><title>5&#45;&gt;8</title>
<path fill="none" stroke="grey" stroke-width="2" d="M266.688,-215.876C249.797,-206.639 228.753,-195.131 210.615,-185.212"/>
<polygon fill="grey" stroke="grey" stroke-width="2" points="211.886,-181.917 201.433,-180.19 208.527,-188.059 211.886,-181.917"/>
</g>
<!-- 6 -->
<g id="node7" class="node"><title>6</title>
<path fill="none" stroke="#ced856" stroke-width="2" d="M147,-396C147,-396 81,-396 81,-396 75,-396 69,-390 69,-384 69,-384 69,-372 69,-372 69,-366 75,-360 81,-360 81,-360 147,-360 147,-360 153,-360 159,-366 159,-372 159,-372 159,-384 159,-384 159,-390 153,-396 147,-396"/>
<text text-anchor="middle" x="114" y="-375.5" font-family="sans" font-size="10.00">get_fasta_seqs</text>
</g>
<!-- 6&#45;&gt;1 -->
<g id="edge6" class="edge"><title>6&#45;&gt;1</title>
<path fill="none" stroke="grey" stroke-width="2" d="M114,-359.697C114,-351.983 114,-342.712 114,-334.112"/>
<polygon fill="grey" stroke="grey" stroke-width="2" points="117.5,-334.104 114,-324.104 110.5,-334.104 117.5,-334.104"/>
</g>
<!-- 7 -->
<g id="node8" class="node"><title>7</title>
<path fill="none" stroke="#d85656" stroke-width="2" d="M233,-684C233,-684 157,-684 157,-684 151,-684 145,-678 145,-672 145,-672 145,-660 145,-660 145,-654 151,-648 157,-648 157,-648 233,-648 233,-648 239,-648 245,-654 245,-660 245,-660 245,-672 245,-672 245,-678 239,-684 233,-684"/>
<text text-anchor="middle" x="195" y="-663.5" font-family="sans" font-size="10.00">get_bact_lineage</text>
</g>
<!-- 7&#45;&gt;2 -->
<g id="edge7" class="edge"><title>7&#45;&gt;2</title>
<path fill="none" stroke="grey" stroke-width="2" d="M171.517,-647.697C159.437,-638.796 144.546,-627.823 131.484,-618.199"/>
<polygon fill="grey" stroke="grey" stroke-width="2" points="133.34,-615.219 123.213,-612.104 129.187,-620.854 133.34,-615.219"/>
</g>
<!-- 7&#45;&gt;5 -->
<g id="edge10" class="edge"><title>7&#45;&gt;5</title>
<path fill="none" stroke="grey" stroke-width="2" d="M212.359,-647.935C235.887,-622.894 275,-573.65 275,-523 275,-523 275,-523 275,-377 275,-336.696 284.14,-290.776 290.897,-262.337"/>
<polygon fill="grey" stroke="grey" stroke-width="2" points="294.365,-262.888 293.346,-252.342 287.567,-261.222 294.365,-262.888"/>
</g>
<!-- 8&#45;&gt;4 -->
<g id="edge9" class="edge"><title>8&#45;&gt;4</title>
<path fill="none" stroke="grey" stroke-width="2" d="M169.753,-143.697C169.643,-135.983 169.51,-126.712 169.387,-118.112"/>
<polygon fill="grey" stroke="grey" stroke-width="2" points="172.887,-118.053 169.244,-108.104 165.888,-118.153 172.887,-118.053"/>
</g>
<!-- 9 -->
<g id="node10" class="node"><title>9</title>
<path fill="none" stroke="#88d856" stroke-width="2" d="M213,-468C213,-468 83,-468 83,-468 77,-468 71,-462 71,-456 71,-456 71,-444 71,-444 71,-438 77,-432 83,-432 83,-432 213,-432 213,-432 219,-432 225,-438 225,-444 225,-444 225,-456 225,-456 225,-462 219,-468 213,-468"/>
<text text-anchor="middle" x="148" y="-447.5" font-family="sans" font-size="10.00">get_pcr_accession_numbers</text>
</g>
<!-- 9&#45;&gt;6 -->
<g id="edge11" class="edge"><title>9&#45;&gt;6</title>
<path fill="none" stroke="grey" stroke-width="2" d="M139.596,-431.697C135.725,-423.728 131.048,-414.1 126.757,-405.264"/>
<polygon fill="grey" stroke="grey" stroke-width="2" points="129.825,-403.57 122.308,-396.104 123.529,-406.629 129.825,-403.57"/>
</g>
<!-- 10&#45;&gt;6 -->
<g id="edge12" class="edge"><title>10&#45;&gt;6</title>
<path fill="none" stroke="grey" stroke-width="2" d="M83.5365,-503.919C75.3462,-494.218 66.2964,-481.366 62,-468 57.1036,-452.768 55.9475,-446.811 62,-432 66.488,-421.017 74.4705,-411.081 82.8545,-402.858"/>
<polygon fill="grey" stroke="grey" stroke-width="2" points="85.2351,-405.424 90.2479,-396.09 80.5085,-400.261 85.2351,-405.424"/>
</g>
<!-- 10&#45;&gt;9 -->
<g id="edge16" class="edge"><title>10&#45;&gt;9</title>
<path fill="none" stroke="grey" stroke-width="2" d="M111.865,-503.697C117.503,-495.474 124.354,-485.483 130.569,-476.421"/>
<polygon fill="grey" stroke="grey" stroke-width="2" points="133.503,-478.331 136.271,-468.104 127.729,-474.372 133.503,-478.331"/>
</g>
<!-- 11 -->
<g id="node12" class="node"><title>11</title>
<path fill="none" stroke="#afd856" stroke-width="2" d="M233.5,-756C233.5,-756 156.5,-756 156.5,-756 150.5,-756 144.5,-750 144.5,-744 144.5,-744 144.5,-732 144.5,-732 144.5,-726 150.5,-720 156.5,-720 156.5,-720 233.5,-720 233.5,-720 239.5,-720 245.5,-726 245.5,-732 245.5,-732 245.5,-744 245.5,-744 245.5,-750 239.5,-756 233.5,-756"/>
<text text-anchor="middle" x="195" y="-735.5" font-family="sans" font-size="10.00">get_prok_lineage</text>
</g>
<!-- 11&#45;&gt;7 -->
<g id="edge13" class="edge"><title>11&#45;&gt;7</title>
<path fill="none" stroke="grey" stroke-width="2" d="M195,-719.697C195,-711.983 195,-702.712 195,-694.112"/>
<polygon fill="grey" stroke="grey" stroke-width="2" points="198.5,-694.104 195,-684.104 191.5,-694.104 198.5,-694.104"/>
</g>
<!-- 12 -->
<g id="node13" class="node"><title>12</title>
<path fill="none" stroke="#569ad8" stroke-width="2" stroke-dasharray="5,2" d="M232,-828C232,-828 158,-828 158,-828 152,-828 146,-822 146,-816 146,-816 146,-804 146,-804 146,-798 152,-792 158,-792 158,-792 232,-792 232,-792 238,-792 244,-798 244,-804 244,-804 244,-816 244,-816 244,-822 238,-828 232,-828"/>
<text text-anchor="middle" x="195" y="-813" font-family="sans" font-size="10.00">unpack_silva_db</text>
<text text-anchor="middle" x="195" y="-802" font-family="sans" font-size="10.00">version: v132</text>
</g>
<!-- 12&#45;&gt;11 -->
<g id="edge18" class="edge"><title>12&#45;&gt;11</title>
<path fill="none" stroke="grey" stroke-width="2" d="M195,-791.697C195,-783.983 195,-774.712 195,-766.112"/>
<polygon fill="grey" stroke="grey" stroke-width="2" points="198.5,-766.104 195,-756.104 191.5,-766.104 198.5,-766.104"/>
</g>
<!-- 13 -->
<g id="node14" class="node"><title>13</title>
<path fill="none" stroke="#d8bc56" stroke-width="2" stroke-dasharray="5,2" d="M257.5,-900C257.5,-900 132.5,-900 132.5,-900 126.5,-900 120.5,-894 120.5,-888 120.5,-888 120.5,-876 120.5,-876 120.5,-870 126.5,-864 132.5,-864 132.5,-864 257.5,-864 257.5,-864 263.5,-864 269.5,-870 269.5,-876 269.5,-876 269.5,-888 269.5,-888 269.5,-894 263.5,-900 257.5,-900"/>
<text text-anchor="middle" x="195" y="-885" font-family="sans" font-size="10.00">download_silva_db</text>
<text text-anchor="middle" x="195" y="-874" font-family="sans" font-size="10.00">output_dir: data/references</text>
</g>
<!-- 13&#45;&gt;12 -->
<g id="edge19" class="edge"><title>13&#45;&gt;12</title>
<path fill="none" stroke="grey" stroke-width="2" d="M195,-863.697C195,-855.983 195,-846.712 195,-838.112"/>
<polygon fill="grey" stroke="grey" stroke-width="2" points="198.5,-838.104 195,-828.104 191.5,-838.104 198.5,-838.104"/>
</g>
</g>
</svg>
