<?xml version="1.0" encoding="UTF-8" standalone="no"?>
<!DOCTYPE svg PUBLIC "-//W3C//DTD SVG 1.1//EN"
 "http://www.w3.org/Graphics/SVG/1.1/DTD/svg11.dtd">
<!-- Generated by graphviz version 2.38.0 (20140413.2041)
 -->
<!-- Title: snakemake_dag Pages: 1 -->
<svg width="510pt" height="908pt"
 viewBox="0.00 0.00 509.50 908.00" xmlns="http://www.w3.org/2000/svg" xmlns:xlink="http://www.w3.org/1999/xlink">
<g id="graph0" class="graph" transform="scale(1 1) rotate(0) translate(4 904)">
<title>snakemake_dag</title>
<polygon fill="white" stroke="none" points="-4,4 -4,-904 505.5,-904 505.5,4 -4,4"/>
<!-- 0 -->
<g id="node1" class="node"><title>0</title>
<path fill="none" stroke="#d87556" stroke-width="2" d="M296,-36C296,-36 266,-36 266,-36 260,-36 254,-30 254,-24 254,-24 254,-12 254,-12 254,-6 260,-0 266,-0 266,-0 296,-0 296,-0 302,-0 308,-6 308,-12 308,-12 308,-24 308,-24 308,-30 302,-36 296,-36"/>
<text text-anchor="middle" x="281" y="-15.5" font-family="sans" font-size="10.00">all</text>
</g>
<!-- 1 -->
<g id="node2" class="node"><title>1</title>
<path fill="none" stroke="#88d856" stroke-width="2" d="M68,-252C68,-252 12,-252 12,-252 6,-252 0,-246 0,-240 0,-240 0,-228 0,-228 0,-222 6,-216 12,-216 12,-216 68,-216 68,-216 74,-216 80,-222 80,-228 80,-228 80,-240 80,-240 80,-246 74,-252 68,-252"/>
<text text-anchor="middle" x="40" y="-237" font-family="sans" font-size="10.00">rename_bact</text>
<text text-anchor="middle" x="40" y="-226" font-family="sans" font-size="10.00">ext: tax</text>
</g>
<!-- 1&#45;&gt;0 -->
<g id="edge1" class="edge"><title>1&#45;&gt;0</title>
<path fill="none" stroke="grey" stroke-width="2" d="M45.5536,-215.809C56.9423,-183.178 85.9889,-111.964 134,-72 165.796,-45.5328 211.873,-31.7912 243.935,-25.006"/>
<polygon fill="grey" stroke="grey" stroke-width="2" points="244.691,-28.4242 253.816,-23.0402 243.325,-21.5588 244.691,-28.4242"/>
</g>
<!-- 10 -->
<g id="node11" class="node"><title>10</title>
<path fill="none" stroke="#569ad8" stroke-width="2" d="M219.5,-180C219.5,-180 150.5,-180 150.5,-180 144.5,-180 138.5,-174 138.5,-168 138.5,-168 138.5,-156 138.5,-156 138.5,-150 144.5,-144 150.5,-144 150.5,-144 219.5,-144 219.5,-144 225.5,-144 231.5,-150 231.5,-156 231.5,-156 231.5,-168 231.5,-168 231.5,-174 225.5,-180 219.5,-180"/>
<text text-anchor="middle" x="185" y="-159.5" font-family="sans" font-size="10.00">get_taxon_seqs</text>
</g>
<!-- 1&#45;&gt;10 -->
<g id="edge16" class="edge"><title>1&#45;&gt;10</title>
<path fill="none" stroke="grey" stroke-width="2" d="M75.471,-215.876C95.1172,-206.392 119.722,-194.513 140.632,-184.419"/>
<polygon fill="grey" stroke="grey" stroke-width="2" points="142.16,-187.568 149.644,-180.068 139.117,-181.264 142.16,-187.568"/>
</g>
<!-- 2 -->
<g id="node3" class="node"><title>2</title>
<path fill="none" stroke="#68d856" stroke-width="2" d="M267,-324C267,-324 187,-324 187,-324 181,-324 175,-318 175,-312 175,-312 175,-300 175,-300 175,-294 181,-288 187,-288 187,-288 267,-288 267,-288 273,-288 279,-294 279,-300 279,-300 279,-312 279,-312 279,-318 273,-324 267,-324"/>
<text text-anchor="middle" x="227" y="-303.5" font-family="sans" font-size="10.00">rename_pcr_fasta</text>
</g>
<!-- 2&#45;&gt;0 -->
<g id="edge2" class="edge"><title>2&#45;&gt;0</title>
<path fill="none" stroke="grey" stroke-width="2" d="M250.944,-287.893C261.888,-278.629 273.778,-266.18 280,-252 310.323,-182.9 296.985,-90.7841 287.515,-45.8869"/>
<polygon fill="grey" stroke="grey" stroke-width="2" points="290.913,-45.0439 285.337,-36.0355 284.078,-46.5553 290.913,-45.0439"/>
</g>
<!-- 5 -->
<g id="node6" class="node"><title>5</title>
<path fill="none" stroke="#56c1d8" stroke-width="2" d="M259.5,-252C259.5,-252 110.5,-252 110.5,-252 104.5,-252 98.5,-246 98.5,-240 98.5,-240 98.5,-228 98.5,-228 98.5,-222 104.5,-216 110.5,-216 110.5,-216 259.5,-216 259.5,-216 265.5,-216 271.5,-222 271.5,-228 271.5,-228 271.5,-240 271.5,-240 271.5,-246 265.5,-252 259.5,-252"/>
<text text-anchor="middle" x="185" y="-231.5" font-family="sans" font-size="10.00">get_filtered_accession_numbers</text>
</g>
<!-- 2&#45;&gt;5 -->
<g id="edge11" class="edge"><title>2&#45;&gt;5</title>
<path fill="none" stroke="grey" stroke-width="2" d="M216.618,-287.697C211.735,-279.559 205.813,-269.689 200.421,-260.701"/>
<polygon fill="grey" stroke="grey" stroke-width="2" points="203.409,-258.879 195.263,-252.104 197.406,-262.48 203.409,-258.879"/>
</g>
<!-- 3 -->
<g id="node4" class="node"><title>3</title>
<path fill="none" stroke="#88d856" stroke-width="2" d="M259,-612C259,-612 203,-612 203,-612 197,-612 191,-606 191,-600 191,-600 191,-588 191,-588 191,-582 197,-576 203,-576 203,-576 259,-576 259,-576 265,-576 271,-582 271,-588 271,-588 271,-600 271,-600 271,-606 265,-612 259,-612"/>
<text text-anchor="middle" x="231" y="-597" font-family="sans" font-size="10.00">rename_bact</text>
<text text-anchor="middle" x="231" y="-586" font-family="sans" font-size="10.00">ext: align</text>
</g>
<!-- 3&#45;&gt;0 -->
<g id="edge3" class="edge"><title>3&#45;&gt;0</title>
<path fill="none" stroke="grey" stroke-width="2" d="M255.817,-575.982C287.426,-552.072 338,-505.328 338,-451 338,-451 338,-451 338,-161 338,-117.801 315,-72.1859 298.22,-44.6553"/>
<polygon fill="grey" stroke="grey" stroke-width="2" points="301.093,-42.6485 292.81,-36.0417 295.165,-46.3716 301.093,-42.6485"/>
</g>
<!-- 13 -->
<g id="node14" class="node"><title>13</title>
<path fill="none" stroke="#56d8d0" stroke-width="2" d="M248.5,-540C248.5,-540 213.5,-540 213.5,-540 207.5,-540 201.5,-534 201.5,-528 201.5,-528 201.5,-516 201.5,-516 201.5,-510 207.5,-504 213.5,-504 213.5,-504 248.5,-504 248.5,-504 254.5,-504 260.5,-510 260.5,-516 260.5,-516 260.5,-528 260.5,-528 260.5,-534 254.5,-540 248.5,-540"/>
<text text-anchor="middle" x="231" y="-519.5" font-family="sans" font-size="10.00">pcr_seqs</text>
</g>
<!-- 3&#45;&gt;13 -->
<g id="edge20" class="edge"><title>3&#45;&gt;13</title>
<path fill="none" stroke="grey" stroke-width="2" d="M231,-575.697C231,-567.983 231,-558.712 231,-550.112"/>
<polygon fill="grey" stroke="grey" stroke-width="2" points="234.5,-550.104 231,-540.104 227.5,-550.104 234.5,-550.104"/>
</g>
<!-- 4 -->
<g id="node5" class="node"><title>4</title>
<path fill="none" stroke="#afd856" stroke-width="2" stroke-dasharray="5,2" d="M485,-108C485,-108 379,-108 379,-108 373,-108 367,-102 367,-96 367,-96 367,-84 367,-84 367,-78 373,-72 379,-72 379,-72 485,-72 485,-72 491,-72 497,-78 497,-84 497,-84 497,-96 497,-96 497,-102 491,-108 485,-108"/>
<text text-anchor="middle" x="432" y="-87.5" font-family="sans" font-size="10.00">organize_ribosomal_db</text>
</g>
<!-- 4&#45;&gt;0 -->
<g id="edge4" class="edge"><title>4&#45;&gt;0</title>
<path fill="none" stroke="grey" stroke-width="2" d="M395.061,-71.8761C371.426,-60.9193 340.898,-46.7675 317.374,-35.8621"/>
<polygon fill="grey" stroke="grey" stroke-width="2" points="318.63,-32.5867 308.086,-31.5563 315.686,-38.9375 318.63,-32.5867"/>
</g>
<!-- 5&#45;&gt;0 -->
<g id="edge5" class="edge"><title>5&#45;&gt;0</title>
<path fill="none" stroke="grey" stroke-width="2" d="M208.025,-215.901C219.207,-206.47 231.935,-193.871 240,-180 264.855,-137.25 274.808,-79.5498 278.671,-46.0981"/>
<polygon fill="grey" stroke="grey" stroke-width="2" points="282.153,-46.451 279.722,-36.1388 275.192,-45.7161 282.153,-46.451"/>
</g>
<!-- 5&#45;&gt;10 -->
<g id="edge17" class="edge"><title>5&#45;&gt;10</title>
<path fill="none" stroke="grey" stroke-width="2" d="M185,-215.697C185,-207.983 185,-198.712 185,-190.112"/>
<polygon fill="grey" stroke="grey" stroke-width="2" points="188.5,-190.104 185,-180.104 181.5,-190.104 188.5,-190.104"/>
</g>
<!-- 6 -->
<g id="node7" class="node"><title>6</title>
<path fill="none" stroke="#d89c56" stroke-width="2" d="M218.5,-108C218.5,-108 155.5,-108 155.5,-108 149.5,-108 143.5,-102 143.5,-96 143.5,-96 143.5,-84 143.5,-84 143.5,-78 149.5,-72 155.5,-72 155.5,-72 218.5,-72 218.5,-72 224.5,-72 230.5,-78 230.5,-84 230.5,-84 230.5,-96 230.5,-96 230.5,-102 224.5,-108 218.5,-108"/>
<text text-anchor="middle" x="187" y="-87.5" font-family="sans" font-size="10.00">rename_taxon</text>
</g>
<!-- 6&#45;&gt;0 -->
<g id="edge6" class="edge"><title>6&#45;&gt;0</title>
<path fill="none" stroke="grey" stroke-width="2" d="M210.236,-71.6966C222.188,-62.796 236.923,-51.8232 249.847,-42.1989"/>
<polygon fill="grey" stroke="grey" stroke-width="2" points="252.101,-44.8842 258.031,-36.1043 247.92,-39.2699 252.101,-44.8842"/>
</g>
<!-- 7 -->
<g id="node8" class="node"><title>7</title>
<path fill="none" stroke="#56d86b" stroke-width="2" d="M180,-684C180,-684 104,-684 104,-684 98,-684 92,-678 92,-672 92,-672 92,-660 92,-660 92,-654 98,-648 104,-648 104,-648 180,-648 180,-648 186,-648 192,-654 192,-660 192,-660 192,-672 192,-672 192,-678 186,-684 180,-684"/>
<text text-anchor="middle" x="142" y="-663.5" font-family="sans" font-size="10.00">get_bact_lineage</text>
</g>
<!-- 7&#45;&gt;1 -->
<g id="edge7" class="edge"><title>7&#45;&gt;1</title>
<path fill="none" stroke="grey" stroke-width="2" d="M122.248,-647.909C96.0279,-623.21 53,-574.789 53,-523 53,-523 53,-523 53,-377 53,-336.829 47.7768,-290.53 43.952,-262.013"/>
<polygon fill="grey" stroke="grey" stroke-width="2" points="47.4048,-261.43 42.5684,-252.003 40.4707,-262.388 47.4048,-261.43"/>
</g>
<!-- 7&#45;&gt;3 -->
<g id="edge9" class="edge"><title>7&#45;&gt;3</title>
<path fill="none" stroke="grey" stroke-width="2" d="M164,-647.697C175.209,-638.881 189.002,-628.032 201.154,-618.474"/>
<polygon fill="grey" stroke="grey" stroke-width="2" points="203.557,-621.038 209.253,-612.104 199.229,-615.535 203.557,-621.038"/>
</g>
<!-- 8 -->
<g id="node9" class="node"><title>8</title>
<path fill="none" stroke="#d85656" stroke-width="2" d="M260,-396C260,-396 194,-396 194,-396 188,-396 182,-390 182,-384 182,-384 182,-372 182,-372 182,-366 188,-360 194,-360 194,-360 260,-360 260,-360 266,-360 272,-366 272,-372 272,-372 272,-384 272,-384 272,-390 266,-396 260,-396"/>
<text text-anchor="middle" x="227" y="-375.5" font-family="sans" font-size="10.00">get_fasta_seqs</text>
</g>
<!-- 8&#45;&gt;2 -->
<g id="edge8" class="edge"><title>8&#45;&gt;2</title>
<path fill="none" stroke="grey" stroke-width="2" d="M227,-359.697C227,-351.983 227,-342.712 227,-334.112"/>
<polygon fill="grey" stroke="grey" stroke-width="2" points="230.5,-334.104 227,-324.104 223.5,-334.104 230.5,-334.104"/>
</g>
<!-- 9 -->
<g id="node10" class="node"><title>9</title>
<path fill="none" stroke="#ced856" stroke-width="2" stroke-dasharray="5,2" d="M489.5,-180C489.5,-180 378.5,-180 378.5,-180 372.5,-180 366.5,-174 366.5,-168 366.5,-168 366.5,-156 366.5,-156 366.5,-150 372.5,-144 378.5,-144 378.5,-144 489.5,-144 489.5,-144 495.5,-144 501.5,-150 501.5,-156 501.5,-156 501.5,-168 501.5,-168 501.5,-174 495.5,-180 489.5,-180"/>
<text text-anchor="middle" x="434" y="-165" font-family="sans" font-size="10.00">download_ribosomal_db</text>
<text text-anchor="middle" x="434" y="-154" font-family="sans" font-size="10.00">output_dir: testdir</text>
</g>
<!-- 9&#45;&gt;4 -->
<g id="edge10" class="edge"><title>9&#45;&gt;4</title>
<path fill="none" stroke="grey" stroke-width="2" d="M433.506,-143.697C433.285,-135.983 433.02,-126.712 432.775,-118.112"/>
<polygon fill="grey" stroke="grey" stroke-width="2" points="436.273,-118 432.489,-108.104 429.276,-118.2 436.273,-118"/>
</g>
<!-- 10&#45;&gt;6 -->
<g id="edge12" class="edge"><title>10&#45;&gt;6</title>
<path fill="none" stroke="grey" stroke-width="2" d="M185.494,-143.697C185.715,-135.983 185.98,-126.712 186.225,-118.112"/>
<polygon fill="grey" stroke="grey" stroke-width="2" points="189.724,-118.2 186.511,-108.104 182.727,-118 189.724,-118.2"/>
</g>
<!-- 11 -->
<g id="node12" class="node"><title>11</title>
<path fill="none" stroke="#d8bc56" stroke-width="2" d="M180.5,-756C180.5,-756 103.5,-756 103.5,-756 97.5,-756 91.5,-750 91.5,-744 91.5,-744 91.5,-732 91.5,-732 91.5,-726 97.5,-720 103.5,-720 103.5,-720 180.5,-720 180.5,-720 186.5,-720 192.5,-726 192.5,-732 192.5,-732 192.5,-744 192.5,-744 192.5,-750 186.5,-756 180.5,-756"/>
<text text-anchor="middle" x="142" y="-735.5" font-family="sans" font-size="10.00">get_prok_lineage</text>
</g>
<!-- 11&#45;&gt;7 -->
<g id="edge13" class="edge"><title>11&#45;&gt;7</title>
<path fill="none" stroke="grey" stroke-width="2" d="M142,-719.697C142,-711.983 142,-702.712 142,-694.112"/>
<polygon fill="grey" stroke="grey" stroke-width="2" points="145.5,-694.104 142,-684.104 138.5,-694.104 145.5,-694.104"/>
</g>
<!-- 12 -->
<g id="node13" class="node"><title>12</title>
<path fill="none" stroke="#56d88a" stroke-width="2" d="M248,-468C248,-468 118,-468 118,-468 112,-468 106,-462 106,-456 106,-456 106,-444 106,-444 106,-438 112,-432 118,-432 118,-432 248,-432 248,-432 254,-432 260,-438 260,-444 260,-444 260,-456 260,-456 260,-462 254,-468 248,-468"/>
<text text-anchor="middle" x="183" y="-447.5" font-family="sans" font-size="10.00">get_pcr_accession_numbers</text>
</g>
<!-- 12&#45;&gt;8 -->
<g id="edge14" class="edge"><title>12&#45;&gt;8</title>
<path fill="none" stroke="grey" stroke-width="2" d="M193.876,-431.697C198.992,-423.559 205.195,-413.689 210.845,-404.701"/>
<polygon fill="grey" stroke="grey" stroke-width="2" points="213.89,-406.433 216.249,-396.104 207.964,-402.708 213.89,-406.433"/>
</g>
<!-- 13&#45;&gt;8 -->
<g id="edge15" class="edge"><title>13&#45;&gt;8</title>
<path fill="none" stroke="grey" stroke-width="2" d="M247.463,-503.919C255.654,-494.218 264.704,-481.366 269,-468 273.896,-452.768 274.261,-447.11 269,-432 265.468,-421.855 259.095,-412.191 252.363,-403.961"/>
<polygon fill="grey" stroke="grey" stroke-width="2" points="254.826,-401.46 245.604,-396.244 249.56,-406.072 254.826,-401.46"/>
</g>
<!-- 13&#45;&gt;12 -->
<g id="edge19" class="edge"><title>13&#45;&gt;12</title>
<path fill="none" stroke="grey" stroke-width="2" d="M219.135,-503.697C213.497,-495.474 206.646,-485.483 200.431,-476.421"/>
<polygon fill="grey" stroke="grey" stroke-width="2" points="203.271,-474.372 194.729,-468.104 197.497,-478.331 203.271,-474.372"/>
</g>
<!-- 14 -->
<g id="node15" class="node"><title>14</title>
<path fill="none" stroke="#567bd8" stroke-width="2" stroke-dasharray="5,2" d="M179,-828C179,-828 105,-828 105,-828 99,-828 93,-822 93,-816 93,-816 93,-804 93,-804 93,-798 99,-792 105,-792 105,-792 179,-792 179,-792 185,-792 191,-798 191,-804 191,-804 191,-816 191,-816 191,-822 185,-828 179,-828"/>
<text text-anchor="middle" x="142" y="-813" font-family="sans" font-size="10.00">unpack_silva_db</text>
<text text-anchor="middle" x="142" y="-802" font-family="sans" font-size="10.00">version: v132</text>
</g>
<!-- 14&#45;&gt;11 -->
<g id="edge18" class="edge"><title>14&#45;&gt;11</title>
<path fill="none" stroke="grey" stroke-width="2" d="M142,-791.697C142,-783.983 142,-774.712 142,-766.112"/>
<polygon fill="grey" stroke="grey" stroke-width="2" points="145.5,-766.104 142,-756.104 138.5,-766.104 145.5,-766.104"/>
</g>
<!-- 15 -->
<g id="node16" class="node"><title>15</title>
<path fill="none" stroke="#56d8a9" stroke-width="2" stroke-dasharray="5,2" d="M185,-900C185,-900 99,-900 99,-900 93,-900 87,-894 87,-888 87,-888 87,-876 87,-876 87,-870 93,-864 99,-864 99,-864 185,-864 185,-864 191,-864 197,-870 197,-876 197,-876 197,-888 197,-888 197,-894 191,-900 185,-900"/>
<text text-anchor="middle" x="142" y="-885" font-family="sans" font-size="10.00">download_silva_db</text>
<text text-anchor="middle" x="142" y="-874" font-family="sans" font-size="10.00">output_dir: testdir</text>
</g>
<!-- 15&#45;&gt;14 -->
<g id="edge21" class="edge"><title>15&#45;&gt;14</title>
<path fill="none" stroke="grey" stroke-width="2" d="M142,-863.697C142,-855.983 142,-846.712 142,-838.112"/>
<polygon fill="grey" stroke="grey" stroke-width="2" points="145.5,-838.104 142,-828.104 138.5,-838.104 145.5,-838.104"/>
</g>
</g>
</svg>
